<svg version="1.2" baseProfile="tiny-ps" xmlns="http://www.w3.org/2000/svg" viewBox="0 0 786 525" width="786" height="525">
	<title>appreciation-svg</title>
	<style>
		tspan { white-space:pre }
		.shp0 { fill: none } 
		.shp1 { fill: #2f2e41 } 
		.shp2 { fill: #ffffff } 
		.shp3 { fill: #3f3d56 } 
		.shp4 { fill: #e6e6e6 } 
		.shp5 { fill: #b3018a } 
		.shp6 { opacity: 0.149;fill: #000000 } 
		.shp7 { fill: #f2f2f2 } 
		.shp8 { fill: #cccccc } 
	</style>
	<path id="backgroundrect" class="shp0" d="M-5 -35L95 -35L95 65L-5 65L-5 -35Z" />
	<g id="Layer">
		<path id="svg_1" class="shp1" d="M430.37 331.19C426.12 342.32 419.86 350.23 416.37 348.89C412.88 347.56 413.49 337.49 417.74 326.36C422 315.24 428.26 307.33 431.75 308.66C435.24 310 434.63 320.07 430.37 331.19Z" />
		<path id="svg_2" class="shp1" d="M288.3 432.05C284.49 455.55 262.4 471.47 238.89 467.66C215.38 463.84 199.46 441.76 203.28 418.25C207.09 394.74 229.18 378.82 252.69 382.64C276.2 386.45 292.12 408.54 288.3 432.05Z" />
		<path id="svg_10" class="shp1" d="M216.74 414.39C215.14 417.77 205.14 416.37 194.39 411.27C183.63 406.17 176.22 399.31 177.83 395.94C179.43 392.56 189.42 393.95 200.18 399.06C210.94 404.16 218.34 411.01 216.74 414.39Z" />
		<path id="svg_28" class="shp1" d="M621.83 398.34C618.95 400.72 610.49 395.21 602.91 386.02C595.34 376.84 591.54 367.49 594.43 365.11C597.31 362.73 605.77 368.24 613.34 377.42C620.92 386.61 624.71 395.96 621.83 398.34Z" />
		<path id="svg_38" class="shp1" d="M686.5 482.3C683.01 483.63 676.75 475.72 672.5 464.6C668.25 453.48 667.63 443.41 671.13 442.07C674.62 440.74 680.88 448.65 685.13 459.77C689.38 470.9 689.99 480.97 686.5 482.3Z" />
		<path id="svg_3" class="shp1" d="M226.16 458.95L239.25 458.95L239.25 482.39L226.16 482.39L226.16 458.95Z" />
		<path id="svg_40" class="shp1" d="M226.16 458.95L239.25 458.95L239.25 482.39L226.16 482.39L226.16 458.95Z" />
		<path id="svg_41" class="shp1" d="M252.33 458.95L265.42 458.95L265.42 482.39L252.33 482.39L252.33 458.95Z" />
		<path id="svg_42" class="shp1" d="M237.07 486.75C231.04 486.75 226.16 484.92 226.16 482.66C226.16 480.4 231.04 478.57 237.07 478.57C243.1 478.57 247.97 480.4 247.97 482.66C247.97 484.92 243.1 486.75 237.07 486.75Z" />
		<path id="svg_43" class="shp1" d="M263.24 486.2C257.21 486.2 252.33 484.38 252.33 482.12C252.33 479.85 257.21 478.03 263.24 478.03C269.26 478.03 274.14 479.85 274.14 482.12C274.14 484.38 269.26 486.2 263.24 486.2Z" />
		<path id="svg_44" class="shp2" d="M247.31 428.96C239.18 429.2 232.41 422.81 232.17 414.68C231.93 406.54 238.31 399.77 246.45 399.53C254.58 399.29 261.35 405.67 261.59 413.81C261.83 421.95 255.45 428.72 247.31 428.96Z" />
		<path id="svg_45" class="shp3" d="M246.88 419.15C244.17 419.15 241.97 416.96 241.97 414.24C241.97 411.53 244.17 409.34 246.88 409.34C249.59 409.34 251.79 411.53 251.79 414.24C251.79 416.96 249.59 419.15 246.88 419.15Z" />
		<path id="svg_46" class="shp4" d="M204.01 385.1C200.54 369.52 211.65 353.78 228.84 349.95C246.03 346.11 262.79 355.62 266.26 371.2C269.74 386.77 258.35 392.51 241.16 396.35C223.97 400.19 207.49 400.67 204.01 385.1Z" />
		<path id="svg_47" class="shp2" d="M224.64 440.68C224.64 444.9 235.49 453.22 247.53 453.22C259.58 453.22 270.87 441.36 270.87 437.14C270.87 432.92 259.58 437.96 247.53 437.96C235.49 437.96 224.64 436.47 224.64 440.68Z" />
		<path id="svg_48" class="shp5" d="M548.68 308.11L501.9 354.28L396.18 458.6L394.04 460.71L382.12 472.47L357.13 447.78L354.93 445.61L309.24 400.48L309.23 400.48L294.59 386.01L285.94 377.46L260.18 352.02L256.7 348.58L215.64 308.02C213.6 305.98 211.64 303.88 209.76 301.7C207.88 299.52 206.08 297.27 204.36 294.96C202.65 292.65 201.02 290.27 199.47 287.84C197.93 285.41 196.48 282.93 195.12 280.39C194.62 279.48 194.15 278.56 193.69 277.64C183.95 258.23 179.79 236.49 181.65 214.86C183.52 193.22 191.35 172.52 204.27 155.06C217.19 137.6 234.69 124.07 254.84 115.95C274.99 107.84 296.99 105.47 318.4 109.11L318.41 109.11C318.79 109.17 319.16 109.23 319.54 109.31C320.54 109.49 321.54 109.68 322.54 109.88C323.54 110.09 324.54 110.3 325.53 110.53C326.52 110.77 327.51 111.01 328.5 111.27C329.49 111.52 330.47 111.8 331.45 112.08C334.01 112.82 336.54 113.65 339.04 114.56C341.55 115.47 344.02 116.47 346.45 117.55C348.89 118.63 351.28 119.79 353.64 121.04C355.99 122.28 358.3 123.61 360.57 125.01C361.52 125.6 362.46 126.2 363.39 126.81C365.05 127.91 366.68 129.05 368.29 130.23C369.89 131.41 371.46 132.63 373.01 133.89C374.55 135.15 376.06 136.45 377.53 137.78C379.01 139.12 380.45 140.49 381.86 141.9L382.21 141.55L382.56 141.9C383.41 141.05 384.28 140.21 385.16 139.38C386.03 138.56 386.93 137.74 387.83 136.94C388.73 136.15 389.65 135.36 390.57 134.59C391.5 133.82 392.44 133.06 393.39 132.32C394.22 131.67 395.06 131.03 395.9 130.41C402.31 125.68 409.19 121.62 416.43 118.28C423.66 114.94 431.22 112.35 438.98 110.55C446.74 108.74 454.67 107.73 462.63 107.53C470.6 107.33 478.57 107.94 486.41 109.35C487.41 109.53 488.42 109.72 489.42 109.92C490.42 110.13 491.41 110.35 492.41 110.58C493.4 110.81 494.39 111.05 495.38 111.31C496.37 111.57 497.35 111.84 498.33 112.13C499.64 112.5 500.94 112.9 502.23 113.33C503.27 113.67 504.31 114.02 505.34 114.4C507.48 115.17 509.6 115.99 511.69 116.88C513.79 117.77 515.85 118.72 517.89 119.73C519.93 120.75 521.93 121.82 523.91 122.94C525.88 124.07 527.82 125.26 529.73 126.5C531.4 127.59 533.05 128.73 534.67 129.92C548.41 139.91 559.82 152.76 568.12 167.58C576.42 182.4 581.41 198.85 582.74 215.79C584.07 232.72 581.71 249.75 575.83 265.68C569.95 281.62 560.69 296.1 548.68 308.11L548.68 308.11Z" />
		<path id="svg_49" class="shp6" d="M501.9 354.28L396.18 458.6L394.04 460.71L382.12 472.47L357.13 447.78L354.93 445.61L309.24 400.48C316.58 398.77 327.86 401.12 331.99 403.16C341.78 407.99 349.83 415.92 359.77 420.44C361.97 421.43 364.25 422.25 366.58 422.89C368.91 423.53 371.29 423.98 373.69 424.25C376.09 424.51 378.51 424.59 380.92 424.48C383.33 424.36 385.73 424.06 388.1 423.57C405.92 419.83 419.71 406.05 431.87 392.49C444.03 378.92 456.46 364.36 473.55 358.07C482.56 354.75 492.24 354 501.9 354.28Z" />
		<path id="svg_50" fill-rule="evenodd" class="shp3" d="M604.52 182.45C610.49 196.88 613.56 212.35 613.56 227.97C613.56 243.6 610.49 259.07 604.52 273.5C598.55 287.94 589.79 301.06 578.76 312.12L411.18 477.57L394.09 460.7L371.97 438.86L369.8 436.71L285.58 353.58L282.52 350.55L243.6 312.13C240.88 309.42 238.3 306.58 235.86 303.62C233.42 300.66 231.13 297.58 228.99 294.4C226.85 291.22 224.87 287.93 223.05 284.56C221.23 281.18 219.57 277.72 218.09 274.18C217.69 273.25 217.31 272.32 216.96 271.38C212.77 260.66 210.15 249.39 209.19 237.92C208.24 226.45 208.94 214.91 211.3 203.64C213.65 192.37 217.62 181.51 223.09 171.38C228.56 161.26 235.47 151.98 243.6 143.83C245.34 142.09 247.13 140.41 248.95 138.81C253.74 134.57 258.86 130.72 264.27 127.31C269.68 123.9 275.36 120.93 281.25 118.44C287.13 115.94 293.22 113.93 299.43 112.42C305.65 110.9 311.97 109.9 318.35 109.41C318.73 109.37 319.12 109.34 319.51 109.32C323.01 109.08 326.51 108.99 330.02 109.05C333.53 109.12 337.03 109.34 340.52 109.71C344 110.08 347.47 110.61 350.91 111.29C354.35 111.96 357.76 112.79 361.13 113.77C362.13 114.06 363.13 114.37 364.12 114.69C368.48 116.09 372.77 117.73 376.94 119.63C381.11 121.52 385.18 123.65 389.1 126.01C393.03 128.37 396.82 130.96 400.45 133.76C404.08 136.56 407.54 139.57 410.82 142.77L411.18 142.41L411.54 142.77C416.53 137.89 421.95 133.46 427.72 129.54C433.49 125.62 439.6 122.21 445.97 119.36C452.34 116.51 458.96 114.23 465.73 112.55C472.5 110.87 479.41 109.79 486.38 109.32C487.66 109.23 488.95 109.16 490.23 109.11C491.52 109.06 492.81 109.04 494.09 109.03C495.38 109.03 496.67 109.04 497.95 109.08C499.24 109.12 500.53 109.18 501.81 109.26C502.84 109.31 503.86 109.38 504.88 109.48C506.34 109.6 507.8 109.75 509.26 109.93C510.72 110.11 512.18 110.31 513.63 110.55C515.08 110.78 516.52 111.04 517.96 111.33C519.41 111.61 520.84 111.93 522.27 112.27C523.6 112.58 524.91 112.91 526.23 113.28C531.17 114.63 536.02 116.3 540.75 118.28C545.47 120.26 550.06 122.54 554.49 125.12C558.92 127.7 563.18 130.56 567.23 133.69C571.29 136.81 575.14 140.2 578.76 143.83C589.79 154.89 598.55 168.01 604.52 182.45ZM606.43 258.9C611.78 239.58 612.02 219.21 607.15 199.76C602.27 180.32 592.44 162.48 578.61 147.97C564.78 133.46 547.43 122.78 528.24 116.98C526.92 116.57 525.59 116.2 524.25 115.86C522.69 115.45 521.11 115.07 519.53 114.72C517.95 114.38 516.37 114.06 514.77 113.78C513.18 113.5 511.58 113.26 509.98 113.04C508.38 112.83 506.77 112.65 505.16 112.51C504.15 112.41 503.13 112.34 502.11 112.28C500.84 112.19 499.57 112.13 498.3 112.09C490.4 111.83 482.49 112.37 474.7 113.72C466.91 115.07 459.28 117.21 451.93 120.12C444.57 123.02 437.54 126.67 430.93 131.01C424.32 135.35 418.18 140.36 412.59 145.95L411.53 147.01L411.18 146.66L410.83 147.01L409.77 145.95C408.51 144.69 407.22 143.46 405.91 142.26C404.59 141.06 403.25 139.89 401.88 138.75C400.51 137.61 399.11 136.51 397.69 135.43C396.27 134.36 394.83 133.32 393.36 132.31C391.11 130.76 388.8 129.29 386.44 127.91C384.08 126.52 381.67 125.22 379.22 124.01C376.76 122.8 374.27 121.67 371.73 120.64C369.2 119.61 366.63 118.67 364.03 117.82C363.05 117.49 362.06 117.18 361.07 116.89C358.66 116.17 356.24 115.53 353.79 114.97C351.34 114.41 348.88 113.93 346.4 113.53C343.92 113.13 341.43 112.81 338.93 112.57C336.43 112.33 333.93 112.17 331.42 112.09C330.19 112.05 328.97 112.03 327.74 112.03C324.46 112.03 321.19 112.17 317.92 112.45C311.82 112.95 305.77 113.94 299.82 115.41C293.88 116.87 288.06 118.81 282.42 121.2C276.78 123.58 271.34 126.42 266.16 129.67C260.97 132.92 256.05 136.58 251.44 140.61L251.43 140.61C249.48 142.31 247.58 144.09 245.72 145.95C237.78 153.9 231.04 162.97 225.7 172.86C220.37 182.75 216.49 193.36 214.21 204.36C211.92 215.36 211.24 226.64 212.19 237.84C213.15 249.03 215.72 260.03 219.83 270.49C220.18 271.42 220.56 272.35 220.96 273.28C222.41 276.7 224.02 280.05 225.79 283.32C227.55 286.58 229.48 289.76 231.56 292.84C233.63 295.92 235.86 298.9 238.22 301.76C240.59 304.63 243.09 307.38 245.72 310L286.82 350.58L289.83 353.55L372.41 435.08L374.58 437.22L396.23 458.59L411.18 473.35L576.65 309.99C590.83 295.82 601.09 278.22 606.43 258.9Z" />
		<path id="svg_51" class="shp6" d="M344.3 116.62C337.88 121.69 330.99 126.37 326.82 133.3C323.75 138.42 322.42 144.37 321.43 150.25C319.51 161.69 318.69 173.41 314.93 184.38C311.18 195.35 303.86 205.83 293.01 209.92C286.28 212.45 278.86 212.31 271.69 211.82C254 210.62 236.19 207.45 220.27 199.66C211.37 195.3 202.74 189.42 192.85 188.77C192.35 188.74 191.84 188.72 191.34 188.72C190.84 188.72 190.33 188.73 189.83 188.76C189.33 188.78 188.82 188.83 188.32 188.88C187.82 188.94 187.33 189.01 186.83 189.1C191.11 175.74 197.75 163.25 206.43 152.23C215.11 141.21 225.7 131.84 237.68 124.55C249.67 117.26 262.87 112.18 276.65 109.54C290.43 106.91 304.57 106.76 318.4 109.11L318.41 109.11C318.79 109.17 319.16 109.23 319.54 109.31C320.54 109.49 321.54 109.68 322.54 109.88C323.54 110.09 324.54 110.3 325.53 110.53C326.52 110.77 327.51 111.01 328.5 111.27C329.49 111.52 330.47 111.8 331.45 112.08C332.54 112.4 333.63 112.73 334.71 113.07C335.79 113.42 336.87 113.78 337.94 114.16C339.01 114.54 340.08 114.94 341.14 115.35C342.2 115.76 343.25 116.18 344.3 116.62L344.3 116.62Z" />
		<path id="svg_52" class="shp4" d="M62.18 433.68C64.5 434.49 66.92 435.01 69.37 435.21C71.82 435.41 74.28 435.3 76.7 434.87C79.13 434.44 81.48 433.71 83.72 432.68C85.95 431.66 88.04 430.35 89.94 428.79C99.67 420.63 102.72 407.18 105.2 394.73L112.53 357.91L97.17 368.49C86.13 376.09 74.83 383.94 67.18 394.96C59.53 405.98 56.2 421.02 62.34 432.94L62.18 433.68Z" />
		<path id="svg_53" class="shp7" d="M63.5 478.26C61.94 466.94 60.34 455.47 61.43 444.02C62.4 433.86 65.5 423.93 71.82 415.79C72.65 414.71 73.53 413.67 74.46 412.67C75.39 411.68 76.36 410.72 77.37 409.8C78.38 408.89 79.42 408.02 80.51 407.19C81.59 406.37 82.71 405.59 83.87 404.87C85.07 404.11 86.18 406.02 84.98 406.78C83 408.03 81.12 409.44 79.35 410.99C77.59 412.54 75.95 414.22 74.46 416.03C72.96 417.83 71.61 419.76 70.41 421.77C69.22 423.79 68.18 425.9 67.32 428.09C63.47 437.87 62.86 448.53 63.52 458.92C63.92 465.2 64.77 471.44 65.63 477.68C65.66 477.82 65.67 477.96 65.65 478.1C65.63 478.24 65.58 478.38 65.51 478.51C65.44 478.63 65.34 478.74 65.23 478.83C65.12 478.92 64.99 478.99 64.85 479.03C64.71 479.07 64.57 479.08 64.43 479.06C64.28 479.04 64.14 479 64.02 478.93C63.89 478.86 63.78 478.76 63.69 478.65C63.6 478.53 63.54 478.4 63.5 478.26L63.5 478.26Z" />
		<path id="svg_54" class="shp4" d="M78.47 458.22C79.47 459.74 80.65 461.11 82 462.32C83.34 463.53 84.84 464.57 86.44 465.4C88.05 466.23 89.76 466.85 91.53 467.24C93.29 467.64 95.1 467.81 96.91 467.74C106.24 467.3 114.03 460.78 121.03 454.6L141.75 436.3L128.04 435.65C118.18 435.18 108.06 434.74 98.67 437.78C89.27 440.82 80.61 448.14 78.89 457.86L78.47 458.22Z" />
		<path id="svg_55" class="shp7" d="M59.1 484.77C66.59 471.53 75.27 456.82 90.77 452.11C91.85 451.79 92.94 451.51 94.04 451.29C95.14 451.07 96.25 450.9 97.37 450.79C98.49 450.67 99.61 450.61 100.73 450.6C101.85 450.59 102.98 450.64 104.1 450.74C105.51 450.86 105.16 453.04 103.74 452.92C101.88 452.76 100.01 452.77 98.15 452.93C96.28 453.1 94.44 453.42 92.63 453.9C90.82 454.38 89.06 455.01 87.36 455.79C85.66 456.56 84.03 457.49 82.49 458.54C76.49 462.62 71.82 468.29 67.87 474.31C65.45 477.99 63.29 481.84 61.12 485.67C60.43 486.9 58.4 486.01 59.1 484.77L59.1 484.77Z" />
		<path id="svg_56" class="shp1" d="M275.51 147.96C251.69 147.96 232.44 128.71 232.44 104.9C232.44 81.08 251.69 61.83 275.51 61.83C299.33 61.83 318.58 81.08 318.58 104.9C318.58 128.71 299.33 147.96 275.51 147.96Z" />
		<path id="svg_57" class="shp1" d="M255.88 138.7L268.97 138.7L268.97 162.14L255.88 162.14L255.88 138.7Z" />
		<path id="svg_58" class="shp1" d="M282.05 138.7L295.14 138.7L295.14 162.14L282.05 162.14L282.05 138.7Z" />
		<path id="svg_59" class="shp1" d="M266.79 166.5C260.76 166.5 255.88 164.67 255.88 162.41C255.88 160.15 260.76 158.32 266.79 158.32C272.82 158.32 277.69 160.15 277.69 162.41C277.69 164.67 272.82 166.5 266.79 166.5Z" />
		<path id="svg_60" class="shp1" d="M292.95 165.95C286.93 165.95 282.05 164.13 282.05 161.87C282.05 159.6 286.93 157.78 292.95 157.78C298.98 157.78 303.86 159.6 303.86 161.87C303.86 164.13 298.98 165.95 292.95 165.95Z" />
		<path id="svg_61" class="shp2" d="M276.6 108.71C268.46 108.71 261.88 102.13 261.88 93.99C261.88 85.85 268.46 79.27 276.6 79.27C284.74 79.27 291.32 85.85 291.32 93.99C291.32 102.13 284.74 108.71 276.6 108.71Z" />
		<path id="svg_62" class="shp3" d="M285.08 100.47C283.17 102.38 280.07 102.37 278.14 100.45C276.22 98.52 276.21 95.42 278.12 93.51C280.03 91.6 283.13 91.62 285.06 93.54C286.98 95.46 286.99 98.56 285.08 100.47Z" />
		<path id="svg_63" class="shp4" d="M233.73 64.85C230.26 49.27 241.37 33.54 258.56 29.7C275.75 25.86 292.51 35.37 295.98 50.95C299.46 66.52 288.07 72.26 270.88 76.1C253.69 79.94 237.21 80.42 233.73 64.85Z" />
		<path id="svg_64" class="shp1" d="M652.52 467.22C629.01 471.03 606.92 455.11 603.11 431.61C599.29 408.1 615.21 386.01 638.72 382.2C662.23 378.38 684.32 394.3 688.13 417.81C691.95 441.32 676.03 463.4 652.52 467.22Z" />
		<path id="svg_65" class="shp1" d="M652.16 458.51L665.25 458.51L665.25 481.95L652.16 481.95L652.16 458.51Z" />
		<path id="svg_66" class="shp1" d="M625.99 458.51L639.08 458.51L639.08 481.95L625.99 481.95L625.99 458.51Z" />
		<path id="svg_67" class="shp1" d="M654.34 486.31C648.31 486.31 643.44 484.48 643.44 482.22C643.44 479.96 648.31 478.13 654.34 478.13C660.37 478.13 665.25 479.96 665.25 482.22C665.25 484.48 660.37 486.31 654.34 486.31Z" />
		<path id="svg_68" class="shp1" d="M628.18 485.76C622.15 485.76 617.27 483.94 617.27 481.68C617.27 479.42 622.15 477.59 628.18 477.59C634.2 477.59 639.08 479.42 639.08 481.68C639.08 483.94 634.2 485.76 628.18 485.76Z" />
		<path id="svg_69" class="shp5" d="M660.7 401.73C647.12 390.51 639.57 380.22 649.74 367.92C659.9 355.62 679.15 354.74 692.73 365.96C706.31 377.18 709.07 396.25 698.91 408.55C688.74 420.85 674.28 412.95 660.7 401.73Z" />
		<path id="svg_70" class="shp2" d="M631.16 417.07C623.03 417.31 616.26 410.93 616.02 402.79C615.78 394.66 622.16 387.89 630.3 387.65C638.43 387.41 645.2 393.79 645.44 401.93C645.68 410.06 639.3 416.83 631.16 417.07Z" />
		<path id="svg_71" class="shp3" d="M625.56 403.62C622.84 403.62 620.65 401.43 620.65 398.71C620.65 396 622.84 393.81 625.56 393.81C628.27 393.81 630.46 396 630.46 398.71C630.46 401.43 628.27 403.62 625.56 403.62Z" />
		<path id="svg_72" class="shp2" d="M608.48 414.48C605.5 417.46 603.39 427.13 607.59 431.32C611.78 435.51 624.1 431.05 627.08 428.07C630.06 425.09 622.57 424.72 618.38 420.53C614.19 416.33 611.46 411.5 608.48 414.48Z" />
		<path id="svg_73" class="shp8" d="M898.42 486.97L-23.58 486.97C-23.85 486.97 -24.1 486.87 -24.29 486.68C-24.48 486.49 -24.58 486.24 -24.58 485.97C-24.58 485.71 -24.48 485.45 -24.29 485.27C-24.1 485.08 -23.85 484.97 -23.58 484.97L898.42 484.97C898.68 484.97 898.94 485.08 899.13 485.27C899.31 485.45 899.42 485.71 899.42 485.97C899.42 486.24 899.31 486.49 899.13 486.68C898.94 486.87 898.68 486.97 898.42 486.97Z" />
		<path id="svg_4" class="shp1" d="M252.33 458.95L265.42 458.95L265.42 482.39L252.33 482.39L252.33 458.95Z" />
		<path id="svg_5" class="shp1" d="M237.07 486.75C231.04 486.75 226.16 484.92 226.16 482.66C226.16 480.4 231.04 478.57 237.07 478.57C243.1 478.57 247.97 480.4 247.97 482.66C247.97 484.92 243.1 486.75 237.07 486.75Z" />
		<path id="svg_6" class="shp1" d="M263.24 486.2C257.21 486.2 252.33 484.38 252.33 482.12C252.33 479.85 257.21 478.03 263.24 478.03C269.26 478.03 274.14 479.85 274.14 482.12C274.14 484.38 269.26 486.2 263.24 486.2Z" />
		<path id="svg_7" class="shp2" d="M247.31 428.96C239.18 429.2 232.41 422.81 232.17 414.68C231.93 406.54 238.31 399.77 246.45 399.53C254.58 399.29 261.35 405.67 261.59 413.81C261.83 421.95 255.45 428.72 247.31 428.96Z" />
		<path id="svg_8" class="shp3" d="M246.88 419.15C244.17 419.15 241.97 416.96 241.97 414.24C241.97 411.53 244.17 409.34 246.88 409.34C249.59 409.34 251.79 411.53 251.79 414.24C251.79 416.96 249.59 419.15 246.88 419.15Z" />
		<path id="svg_9" class="shp4" d="M204.01 385.1C200.54 369.52 211.65 353.78 228.84 349.95C246.03 346.11 262.79 355.62 266.26 371.2C269.74 386.77 258.35 392.51 241.16 396.35C223.97 400.19 207.49 400.67 204.01 385.1Z" />
		<path id="svg_11" class="shp2" d="M224.64 440.68C224.64 444.9 235.49 453.22 247.53 453.22C259.58 453.22 270.87 441.36 270.87 437.14C270.87 432.92 259.58 437.96 247.53 437.96C235.49 437.96 224.64 436.47 224.64 440.68Z" />
		<path id="svg_12" class="shp5" d="M548.68 308.11L501.9 354.28L396.18 458.6L394.04 460.71L382.12 472.47L357.13 447.78L354.93 445.61L309.24 400.48L309.23 400.48L294.59 386.01L285.94 377.46L260.18 352.02L256.7 348.58L215.64 308.02C213.6 305.98 211.64 303.88 209.76 301.7C207.88 299.52 206.08 297.27 204.36 294.96C202.65 292.65 201.02 290.27 199.47 287.84C197.93 285.41 196.48 282.93 195.12 280.39C194.62 279.48 194.15 278.56 193.69 277.64C183.95 258.23 179.79 236.49 181.65 214.86C183.52 193.22 191.35 172.52 204.27 155.06C217.19 137.6 234.69 124.07 254.84 115.95C274.99 107.84 296.99 105.47 318.4 109.11L318.41 109.11C318.79 109.17 319.16 109.23 319.54 109.31C320.54 109.49 321.54 109.68 322.54 109.88C323.54 110.09 324.54 110.3 325.53 110.53C326.52 110.77 327.51 111.01 328.5 111.27C329.49 111.52 330.47 111.8 331.45 112.08C334.01 112.82 336.54 113.65 339.04 114.56C341.55 115.47 344.02 116.47 346.45 117.55C348.89 118.63 351.28 119.79 353.64 121.04C355.99 122.28 358.3 123.61 360.57 125.01C361.52 125.6 362.46 126.2 363.39 126.81C365.05 127.91 366.68 129.05 368.29 130.23C369.89 131.41 371.46 132.63 373.01 133.89C374.55 135.15 376.06 136.45 377.53 137.78C379.01 139.12 380.45 140.49 381.86 141.9L382.21 141.55L382.56 141.9C383.41 141.05 384.28 140.21 385.16 139.38C386.03 138.56 386.93 137.74 387.83 136.94C388.73 136.15 389.65 135.36 390.57 134.59C391.5 133.82 392.44 133.06 393.39 132.32C394.22 131.67 395.06 131.03 395.9 130.41C402.31 125.68 409.19 121.62 416.43 118.28C423.66 114.94 431.22 112.35 438.98 110.55C446.74 108.74 454.67 107.73 462.63 107.53C470.6 107.33 478.57 107.94 486.41 109.35C487.41 109.53 488.42 109.72 489.42 109.92C490.42 110.13 491.41 110.35 492.41 110.58C493.4 110.81 494.39 111.05 495.38 111.31C496.37 111.57 497.35 111.84 498.33 112.13C499.64 112.5 500.94 112.9 502.23 113.33C503.27 113.67 504.31 114.02 505.34 114.4C507.48 115.17 509.6 115.99 511.69 116.88C513.79 117.77 515.85 118.72 517.89 119.73C519.93 120.75 521.93 121.82 523.91 122.94C525.88 124.07 527.82 125.26 529.73 126.5C531.4 127.59 533.05 128.73 534.67 129.92C548.41 139.91 559.82 152.76 568.12 167.58C576.42 182.4 581.41 198.85 582.74 215.79C584.07 232.72 581.71 249.75 575.83 265.68C569.95 281.62 560.69 296.1 548.68 308.11L548.68 308.11Z" />
		<path id="svg_13" class="shp6" d="M501.9 354.28L396.18 458.6L394.04 460.71L382.12 472.47L357.13 447.78L354.93 445.61L309.24 400.48C316.58 398.77 327.86 401.12 331.99 403.16C341.78 407.99 349.83 415.92 359.77 420.44C361.97 421.43 364.25 422.25 366.58 422.89C368.91 423.53 371.29 423.98 373.69 424.25C376.09 424.51 378.51 424.59 380.92 424.48C383.33 424.36 385.73 424.06 388.1 423.57C405.92 419.83 419.71 406.05 431.87 392.49C444.03 378.92 456.46 364.36 473.55 358.07C482.56 354.75 492.24 354 501.9 354.28Z" />
		<path id="svg_14" fill-rule="evenodd" class="shp3" d="M604.52 182.45C610.49 196.88 613.56 212.35 613.56 227.97C613.56 243.6 610.49 259.07 604.52 273.5C598.55 287.94 589.79 301.06 578.76 312.12L411.18 477.57L394.09 460.7L371.97 438.86L369.8 436.71L285.58 353.58L282.52 350.55L243.6 312.13C240.88 309.42 238.3 306.58 235.86 303.62C233.42 300.66 231.13 297.58 228.99 294.4C226.85 291.22 224.87 287.93 223.05 284.56C221.23 281.18 219.57 277.72 218.09 274.18C217.69 273.25 217.31 272.32 216.96 271.38C212.77 260.66 210.15 249.39 209.19 237.92C208.24 226.45 208.94 214.91 211.3 203.64C213.65 192.37 217.62 181.51 223.09 171.38C228.56 161.26 235.47 151.98 243.6 143.83C245.34 142.09 247.13 140.41 248.95 138.81C253.74 134.57 258.86 130.72 264.27 127.31C269.68 123.9 275.36 120.93 281.25 118.44C287.13 115.94 293.22 113.93 299.43 112.42C305.65 110.9 311.97 109.9 318.35 109.41C318.73 109.37 319.12 109.34 319.51 109.32C323.01 109.08 326.51 108.99 330.02 109.05C333.53 109.12 337.03 109.34 340.52 109.71C344 110.08 347.47 110.61 350.91 111.29C354.35 111.96 357.76 112.79 361.13 113.77C362.13 114.06 363.13 114.37 364.12 114.69C368.48 116.09 372.77 117.73 376.94 119.63C381.11 121.52 385.18 123.65 389.1 126.01C393.03 128.37 396.82 130.96 400.45 133.76C404.08 136.56 407.54 139.57 410.82 142.77L411.18 142.41L411.54 142.77C416.53 137.89 421.95 133.46 427.72 129.54C433.49 125.62 439.6 122.21 445.97 119.36C452.34 116.51 458.96 114.23 465.73 112.55C472.5 110.87 479.41 109.79 486.38 109.32C487.66 109.23 488.95 109.16 490.23 109.11C491.52 109.06 492.81 109.04 494.09 109.03C495.38 109.03 496.67 109.04 497.95 109.08C499.24 109.12 500.53 109.18 501.81 109.26C502.84 109.31 503.86 109.38 504.88 109.48C506.34 109.6 507.8 109.75 509.26 109.93C510.72 110.11 512.18 110.31 513.63 110.55C515.08 110.78 516.52 111.04 517.96 111.33C519.41 111.61 520.84 111.93 522.27 112.27C523.6 112.58 524.91 112.91 526.23 113.28C531.17 114.63 536.02 116.3 540.75 118.28C545.47 120.26 550.06 122.54 554.49 125.12C558.92 127.7 563.18 130.56 567.23 133.69C571.29 136.81 575.14 140.2 578.76 143.83C589.79 154.89 598.55 168.01 604.52 182.45ZM606.43 258.9C611.78 239.58 612.02 219.21 607.15 199.76C602.27 180.32 592.44 162.48 578.61 147.97C564.78 133.46 547.43 122.78 528.24 116.98C526.92 116.57 525.59 116.2 524.25 115.86C522.69 115.45 521.11 115.07 519.53 114.72C517.95 114.38 516.37 114.06 514.77 113.78C513.18 113.5 511.58 113.26 509.98 113.04C508.38 112.83 506.77 112.65 505.16 112.51C504.15 112.41 503.13 112.34 502.11 112.28C500.84 112.19 499.57 112.13 498.3 112.09C490.4 111.83 482.49 112.37 474.7 113.72C466.91 115.07 459.28 117.21 451.93 120.12C444.57 123.02 437.54 126.67 430.93 131.01C424.32 135.35 418.18 140.36 412.59 145.95L411.53 147.01L411.18 146.66L410.83 147.01L409.77 145.95C408.51 144.69 407.22 143.46 405.91 142.26C404.59 141.06 403.25 139.89 401.88 138.75C400.51 137.61 399.11 136.51 397.69 135.43C396.27 134.36 394.83 133.32 393.36 132.31C391.11 130.76 388.8 129.29 386.44 127.91C384.08 126.52 381.67 125.22 379.22 124.01C376.76 122.8 374.27 121.67 371.73 120.64C369.2 119.61 366.63 118.67 364.03 117.82C363.05 117.49 362.06 117.18 361.07 116.89C358.66 116.17 356.24 115.53 353.79 114.97C351.34 114.41 348.88 113.93 346.4 113.53C343.92 113.13 341.43 112.81 338.93 112.57C336.43 112.33 333.93 112.17 331.42 112.09C330.19 112.05 328.97 112.03 327.74 112.03C324.46 112.03 321.19 112.17 317.92 112.45C311.82 112.95 305.77 113.94 299.82 115.41C293.88 116.87 288.06 118.81 282.42 121.2C276.78 123.58 271.34 126.42 266.16 129.67C260.97 132.92 256.05 136.58 251.44 140.61L251.43 140.61C249.48 142.31 247.58 144.09 245.72 145.95C237.78 153.9 231.04 162.97 225.7 172.86C220.37 182.75 216.49 193.36 214.21 204.36C211.92 215.36 211.24 226.64 212.19 237.84C213.15 249.03 215.72 260.03 219.83 270.49C220.18 271.42 220.56 272.35 220.96 273.28C222.41 276.7 224.02 280.05 225.79 283.32C227.55 286.58 229.48 289.76 231.56 292.84C233.63 295.92 235.86 298.9 238.22 301.76C240.59 304.63 243.09 307.38 245.72 310L286.82 350.58L289.83 353.55L372.41 435.08L374.58 437.22L396.23 458.59L411.18 473.35L576.65 309.99C590.83 295.82 601.09 278.22 606.43 258.9Z" />
		<path id="svg_15" class="shp6" d="M344.3 116.62C337.88 121.69 330.99 126.37 326.82 133.3C323.75 138.42 322.42 144.37 321.43 150.25C319.51 161.69 318.69 173.41 314.93 184.38C311.18 195.35 303.86 205.83 293.01 209.92C286.28 212.45 278.86 212.31 271.69 211.82C254 210.62 236.19 207.45 220.27 199.66C211.37 195.3 202.74 189.42 192.85 188.77C192.35 188.74 191.84 188.72 191.34 188.72C190.84 188.72 190.33 188.73 189.83 188.76C189.33 188.78 188.82 188.83 188.32 188.88C187.82 188.94 187.33 189.01 186.83 189.1C191.11 175.74 197.75 163.25 206.43 152.23C215.11 141.21 225.7 131.84 237.68 124.55C249.67 117.26 262.87 112.18 276.65 109.54C290.43 106.91 304.57 106.76 318.4 109.11L318.41 109.11C318.79 109.17 319.16 109.23 319.54 109.31C320.54 109.49 321.54 109.68 322.54 109.88C323.54 110.09 324.54 110.3 325.53 110.53C326.52 110.77 327.51 111.01 328.5 111.27C329.49 111.52 330.47 111.8 331.45 112.08C332.54 112.4 333.63 112.73 334.71 113.07C335.79 113.42 336.87 113.78 337.94 114.16C339.01 114.54 340.08 114.94 341.14 115.35C342.2 115.76 343.25 116.18 344.3 116.62L344.3 116.62Z" />
		<path id="svg_16" class="shp4" d="M62.18 433.68C64.5 434.49 66.92 435.01 69.37 435.21C71.82 435.41 74.28 435.3 76.7 434.87C79.13 434.44 81.48 433.71 83.72 432.68C85.95 431.66 88.04 430.35 89.94 428.79C99.67 420.63 102.72 407.18 105.2 394.73L112.53 357.91L97.17 368.49C86.13 376.09 74.83 383.94 67.18 394.96C59.53 405.98 56.2 421.02 62.34 432.94L62.18 433.68Z" />
		<path id="svg_17" class="shp7" d="M63.5 478.26C61.94 466.94 60.34 455.47 61.43 444.02C62.4 433.86 65.5 423.93 71.82 415.79C72.65 414.71 73.53 413.67 74.46 412.67C75.39 411.68 76.36 410.72 77.37 409.8C78.38 408.89 79.42 408.02 80.51 407.19C81.59 406.37 82.71 405.59 83.87 404.87C85.07 404.11 86.18 406.02 84.98 406.78C83 408.03 81.12 409.44 79.35 410.99C77.59 412.54 75.95 414.22 74.46 416.03C72.96 417.83 71.61 419.76 70.41 421.77C69.22 423.79 68.18 425.9 67.32 428.09C63.47 437.87 62.86 448.53 63.52 458.92C63.92 465.2 64.77 471.44 65.63 477.68C65.66 477.82 65.67 477.96 65.65 478.1C65.63 478.24 65.58 478.38 65.51 478.51C65.44 478.63 65.34 478.74 65.23 478.83C65.12 478.92 64.99 478.99 64.85 479.03C64.71 479.07 64.57 479.08 64.43 479.06C64.28 479.04 64.14 479 64.02 478.93C63.89 478.86 63.78 478.76 63.69 478.65C63.6 478.53 63.54 478.4 63.5 478.26L63.5 478.26Z" />
		<path id="svg_18" class="shp4" d="M78.47 458.22C79.47 459.74 80.65 461.11 82 462.32C83.34 463.53 84.84 464.57 86.44 465.4C88.05 466.23 89.76 466.85 91.53 467.24C93.29 467.64 95.1 467.81 96.91 467.74C106.24 467.3 114.03 460.78 121.03 454.6L141.75 436.3L128.04 435.65C118.18 435.18 108.06 434.74 98.67 437.78C89.27 440.82 80.61 448.14 78.89 457.86L78.47 458.22Z" />
		<path id="svg_19" class="shp7" d="M59.1 484.77C66.59 471.53 75.27 456.82 90.77 452.11C91.85 451.79 92.94 451.51 94.04 451.29C95.14 451.07 96.25 450.9 97.37 450.79C98.49 450.67 99.61 450.61 100.73 450.6C101.85 450.59 102.98 450.64 104.1 450.74C105.51 450.86 105.16 453.04 103.74 452.92C101.88 452.76 100.01 452.77 98.15 452.93C96.28 453.1 94.44 453.42 92.63 453.9C90.82 454.38 89.06 455.01 87.36 455.79C85.66 456.56 84.03 457.49 82.49 458.54C76.49 462.62 71.82 468.29 67.87 474.31C65.45 477.99 63.29 481.84 61.12 485.67C60.43 486.9 58.4 486.01 59.1 484.77L59.1 484.77Z" />
		<path id="svg_20" class="shp1" d="M275.51 147.96C251.69 147.96 232.44 128.71 232.44 104.9C232.44 81.08 251.69 61.83 275.51 61.83C299.33 61.83 318.58 81.08 318.58 104.9C318.58 128.71 299.33 147.96 275.51 147.96Z" />
		<path id="svg_21" class="shp1" d="M255.88 138.7L268.97 138.7L268.97 162.14L255.88 162.14L255.88 138.7Z" />
		<path id="svg_22" class="shp1" d="M282.05 138.7L295.14 138.7L295.14 162.14L282.05 162.14L282.05 138.7Z" />
		<path id="svg_23" class="shp1" d="M266.79 166.5C260.76 166.5 255.88 164.67 255.88 162.41C255.88 160.15 260.76 158.32 266.79 158.32C272.82 158.32 277.69 160.15 277.69 162.41C277.69 164.67 272.82 166.5 266.79 166.5Z" />
		<path id="svg_24" class="shp1" d="M292.95 165.95C286.93 165.95 282.05 164.13 282.05 161.87C282.05 159.6 286.93 157.78 292.95 157.78C298.98 157.78 303.86 159.6 303.86 161.87C303.86 164.13 298.98 165.95 292.95 165.95Z" />
		<path id="svg_25" class="shp2" d="M276.6 108.71C268.46 108.71 261.88 102.13 261.88 93.99C261.88 85.85 268.46 79.27 276.6 79.27C284.74 79.27 291.32 85.85 291.32 93.99C291.32 102.13 284.74 108.71 276.6 108.71Z" />
		<path id="svg_26" class="shp3" d="M285.08 100.47C283.17 102.38 280.07 102.37 278.14 100.45C276.22 98.52 276.21 95.42 278.12 93.51C280.03 91.6 283.13 91.62 285.06 93.54C286.98 95.46 286.99 98.56 285.08 100.47Z" />
		<path id="svg_27" class="shp4" d="M233.73 64.85C230.26 49.27 241.37 33.54 258.56 29.7C275.75 25.86 292.51 35.37 295.98 50.95C299.46 66.52 288.07 72.26 270.88 76.1C253.69 79.94 237.21 80.42 233.73 64.85Z" />
		<path id="svg_29" class="shp1" d="M652.52 467.22C629.01 471.03 606.92 455.11 603.11 431.61C599.29 408.1 615.21 386.01 638.72 382.2C662.23 378.38 684.32 394.3 688.13 417.81C691.95 441.32 676.03 463.4 652.52 467.22Z" />
		<path id="svg_30" class="shp1" d="M652.16 458.51L665.25 458.51L665.25 481.95L652.16 481.95L652.16 458.51Z" />
		<path id="svg_31" class="shp1" d="M625.99 458.51L639.08 458.51L639.08 481.95L625.99 481.95L625.99 458.51Z" />
		<path id="svg_32" class="shp1" d="M654.34 486.31C648.31 486.31 643.44 484.48 643.44 482.22C643.44 479.96 648.31 478.13 654.34 478.13C660.37 478.13 665.25 479.96 665.25 482.22C665.25 484.48 660.37 486.31 654.34 486.31Z" />
		<path id="svg_33" class="shp1" d="M628.18 485.76C622.15 485.76 617.27 483.94 617.27 481.68C617.27 479.42 622.15 477.59 628.18 477.59C634.2 477.59 639.08 479.42 639.08 481.68C639.08 483.94 634.2 485.76 628.18 485.76Z" />
		<path id="svg_34" class="shp5" d="M660.7 401.73C647.12 390.51 639.57 380.22 649.74 367.92C659.9 355.62 679.15 354.74 692.73 365.96C706.31 377.18 709.07 396.25 698.91 408.55C688.74 420.85 674.28 412.95 660.7 401.73Z" />
		<path id="svg_35" class="shp2" d="M631.16 417.07C623.03 417.31 616.26 410.93 616.02 402.79C615.78 394.66 622.16 387.89 630.3 387.65C638.43 387.41 645.2 393.79 645.44 401.93C645.68 410.06 639.3 416.83 631.16 417.07Z" />
		<path id="svg_36" class="shp3" d="M625.56 403.62C622.84 403.62 620.65 401.43 620.65 398.71C620.65 396 622.84 393.81 625.56 393.81C628.27 393.81 630.46 396 630.46 398.71C630.46 401.43 628.27 403.62 625.56 403.62Z" />
		<path id="svg_37" class="shp2" d="M608.48 414.48C605.5 417.46 603.39 427.13 607.59 431.32C611.78 435.51 624.1 431.05 627.08 428.07C630.06 425.09 622.57 424.72 618.38 420.53C614.19 416.33 611.46 411.5 608.48 414.48Z" />
		<path id="svg_39" class="shp8" d="M898.42 486.97L-23.58 486.97C-23.85 486.97 -24.1 486.87 -24.29 486.68C-24.48 486.49 -24.58 486.24 -24.58 485.97C-24.58 485.71 -24.48 485.45 -24.29 485.27C-24.1 485.08 -23.85 484.97 -23.58 484.97L898.42 484.97C898.68 484.97 898.94 485.08 899.13 485.27C899.31 485.45 899.42 485.71 899.42 485.97C899.42 486.24 899.31 486.49 899.13 486.68C898.94 486.87 898.68 486.97 898.42 486.97Z" />
	</g>
</svg>