<svg version="1.2" baseProfile="tiny-ps" xmlns="http://www.w3.org/2000/svg" viewBox="0 0 1274 849" width="1274" height="849">
	<title>buscando-svg</title>
	<style>
		tspan { white-space:pre }
		.shp0 { fill: #e6e6e6 } 
		.shp1 { fill: #3f3d56 } 
		.shp2 { fill: #b3018a } 
		.shp3 { fill: #ffffff } 
		.shp4 { fill: #ffb8b8 } 
		.shp5 { fill: #f2f2f2 } 
		.shp6 { fill: #2f2e41 } 
	</style>
	<path id="Layer" class="shp0" d="M710.43 426.09C688.3 426.09 670.4 408.2 670.4 386.06C670.4 363.92 688.3 346.03 710.43 346.03C732.57 346.03 750.46 363.92 750.46 386.06C750.46 408.2 732.57 426.09 710.43 426.09Z" />
	<path id="Layer" fill-rule="evenodd" class="shp1" d="M808.54 437.5C810.3 439.27 811.29 441.66 811.29 444.15C811.29 446.65 810.3 449.04 808.54 450.81C806.77 452.57 804.38 453.56 801.88 453.56C799.39 453.56 797 452.57 795.23 450.81L753.4 408.98C744.74 414.55 734.4 416.92 724.18 415.7C713.95 414.48 704.47 409.73 697.36 402.27C690.26 394.82 685.97 385.12 685.24 374.85C684.51 364.57 687.39 354.37 693.37 345.98C696.59 341.49 700.62 337.65 705.25 334.64C709.88 331.63 715.03 329.5 720.44 328.38C725.85 327.26 731.42 327.15 736.86 328.07C742.31 328.99 747.54 330.91 752.28 333.74C757.36 336.8 761.78 340.85 765.26 345.64C768.75 350.44 771.24 355.88 772.59 361.66C773.93 367.43 774.11 373.42 773.1 379.26C772.09 385.1 769.91 390.68 766.71 395.67L808.54 437.5ZM751.84 394.11C753.31 392.64 754.63 391.04 755.78 389.31C756.94 387.58 757.92 385.75 758.71 383.83C759.51 381.91 760.11 379.92 760.51 377.89C760.92 375.85 761.12 373.78 761.12 371.7C761.12 356.59 750.44 343.58 735.61 340.63C720.79 337.68 705.95 345.61 700.16 359.58C694.38 373.54 699.26 389.65 711.83 398.05C724.4 406.45 741.15 404.8 751.84 394.11Z" />
	<path id="Layer" class="shp0" d="M1111.77 499.21C1218.75 617.51 908.64 788.01 658.05 788.01C407.47 788.01 234.11 655.91 204.33 499.21C132.14 119.26 819.41 -122.23 658.05 210.4C422.86 695.25 1027.52 406.04 1111.77 499.21Z" />
	<path id="Layer" class="shp1" d="M1063.77 527.21C1170.75 645.51 860.64 816.01 610.05 816.01C359.47 816.01 186.11 683.91 156.33 527.21C84.14 147.26 771.41 -94.23 610.05 238.4C374.86 723.25 979.52 434.04 1063.77 527.21Z" />
	<path id="Layer" class="shp2" d="M300.59 249.83C225.53 246.52 167.32 230.33 168.09 212.96C168.55 202.55 189.79 194.18 226.37 189.99C226.64 189.96 226.9 190.03 227.11 190.2C227.32 190.36 227.46 190.61 227.49 190.87C227.52 191.14 227.44 191.4 227.28 191.61C227.11 191.82 226.87 191.95 226.6 191.98C192.14 195.92 170.48 204 170.09 213.05C169.39 228.75 229.2 244.68 300.68 247.83C372.16 250.97 433.14 240.37 433.83 224.66C434.23 215.57 413.23 205.6 379.03 198.63C378.77 198.58 378.54 198.43 378.4 198.21C378.25 197.98 378.2 197.71 378.25 197.45C378.3 197.19 378.46 196.96 378.68 196.82C378.9 196.67 379.17 196.62 379.43 196.67C415.73 204.06 436.29 214.3 435.83 224.75C435.06 242.12 375.66 253.13 300.59 249.83Z" />
	<path id="Layer" class="shp2" d="M233.92 252.73C240.2 264.66 249.51 274.73 260.9 281.94C272.29 289.15 285.38 293.23 298.85 293.79C312.32 294.35 325.7 291.36 337.65 285.13C349.61 278.89 359.71 269.62 366.96 258.26C355.86 258.41 344.76 258.4 333.66 258.25C322.55 258.09 311.46 257.78 300.36 257.32C289.27 256.86 278.19 256.25 267.11 255.48C256.04 254.72 244.97 253.8 233.92 252.73L233.92 252.73Z" />
	<path id="Layer" class="shp2" d="M375.26 237.22C382.93 214.24 379.32 188.99 365.54 169.06C351.76 149.14 329.4 136.86 305.19 135.93C280.98 134.99 257.74 145.51 242.46 164.31C227.18 183.11 221.65 208.01 227.51 231.51C239.7 233.58 251.94 235.26 264.23 236.53C276.53 237.81 288.85 238.68 301.2 239.16C313.55 239.64 325.91 239.71 338.26 239.39C350.62 239.07 362.96 238.34 375.26 237.22L375.26 237.22Z" />
	<path id="Layer" class="shp3" d="M319.83 185.6C314.86 185.6 310.83 181.58 310.83 176.6C310.83 171.62 314.86 167.6 319.83 167.6C324.81 167.6 328.83 171.62 328.83 176.6C328.83 181.58 324.81 185.6 319.83 185.6Z" />
	<path id="Layer" class="shp3" d="M273.51 220.59C265.22 220.59 258.51 213.89 258.51 205.59C258.51 197.3 265.22 190.59 273.51 190.59C281.81 190.59 288.51 197.3 288.51 205.59C288.51 213.89 281.81 220.59 273.51 220.59Z" />
	<path id="Layer" class="shp2" d="M499.9 205.9C494.37 205.9 489.91 201.43 489.91 195.9C489.91 190.37 494.37 185.9 499.9 185.9C505.43 185.9 509.9 190.37 509.9 195.9C509.9 201.43 505.43 205.9 499.9 205.9Z" />
	<path id="Layer" class="shp0" d="M273.9 511.9C270.59 511.9 267.9 509.22 267.9 505.9C267.9 502.58 270.59 499.9 273.9 499.9C277.22 499.9 279.9 502.58 279.9 505.9C279.9 509.22 277.22 511.9 273.9 511.9Z" />
	<path id="Layer" class="shp0" d="M693.9 717.9C690.59 717.9 687.9 715.22 687.9 711.9C687.9 708.58 690.59 705.9 693.9 705.9C697.22 705.9 699.9 708.58 699.9 711.9C699.9 715.22 697.22 717.9 693.9 717.9Z" />
	<path id="Layer" class="shp0" d="M302.9 395.9C301.25 395.9 299.9 394.56 299.9 392.9C299.9 391.24 301.25 389.9 302.9 389.9C304.56 389.9 305.9 391.24 305.9 392.9C305.9 394.56 304.56 395.9 302.9 395.9Z" />
	<path id="Layer" class="shp0" d="M550.9 619.9C549.25 619.9 547.9 618.56 547.9 616.9C547.9 615.24 549.25 613.9 550.9 613.9C552.56 613.9 553.9 615.24 553.9 616.9C553.9 618.56 552.56 619.9 550.9 619.9Z" />
	<path id="Layer" class="shp0" d="M1001.9 590.9C1000.25 590.9 998.9 589.56 998.9 587.9C998.9 586.24 1000.25 584.9 1001.9 584.9C1003.56 584.9 1004.9 586.24 1004.9 587.9C1004.9 589.56 1003.56 590.9 1001.9 590.9Z" />
	<path id="Layer" class="shp0" d="M860.9 679.9C859.25 679.9 857.9 678.56 857.9 676.9C857.9 675.24 859.25 673.9 860.9 673.9C862.56 673.9 863.9 675.24 863.9 676.9C863.9 678.56 862.56 679.9 860.9 679.9Z" />
	<path id="Layer" class="shp0" d="M713.9 571.9C712.25 571.9 710.9 570.56 710.9 568.9C710.9 567.24 712.25 565.9 713.9 565.9C715.56 565.9 716.9 567.24 716.9 568.9C716.9 570.56 715.56 571.9 713.9 571.9Z" />
	<path id="Layer" class="shp0" d="M523.9 275.9C522.25 275.9 520.9 274.56 520.9 272.9C520.9 271.24 522.25 269.9 523.9 269.9C525.56 269.9 526.9 271.24 526.9 272.9C526.9 274.56 525.56 275.9 523.9 275.9Z" />
	<path id="Layer" class="shp0" d="M547.9 127.9C546.25 127.9 544.9 126.56 544.9 124.9C544.9 123.24 546.25 121.9 547.9 121.9C549.56 121.9 550.9 123.24 550.9 124.9C550.9 126.56 549.56 127.9 547.9 127.9Z" />
	<path id="Layer" class="shp0" d="M533.9 750.9C532.25 750.9 530.9 749.56 530.9 747.9C530.9 746.24 532.25 744.9 533.9 744.9C535.56 744.9 536.9 746.24 536.9 747.9C536.9 749.56 535.56 750.9 533.9 750.9Z" />
	<path id="Layer" class="shp0" d="M385.9 687.9C384.25 687.9 382.9 686.56 382.9 684.9C382.9 683.24 384.25 681.9 385.9 681.9C387.56 681.9 388.9 683.24 388.9 684.9C388.9 686.56 387.56 687.9 385.9 687.9Z" />
	<path id="Layer" class="shp0" d="M854.9 579.9C853.25 579.9 851.9 578.56 851.9 576.9C851.9 575.24 853.25 573.9 854.9 573.9C856.56 573.9 857.9 575.24 857.9 576.9C857.9 578.56 856.56 579.9 854.9 579.9Z" />
	<path id="Layer" class="shp3" d="M299.37 286.8C294.4 286.8 290.37 282.78 290.37 277.8C290.37 272.82 294.4 268.8 299.37 268.8C304.35 268.8 308.37 272.82 308.37 277.8C308.37 282.78 304.35 286.8 299.37 286.8Z" />
	<path id="Layer" class="shp3" d="M502.9 415.9C502.9 442.78 461.35 505.41 449.2 523.14C448.83 523.68 448.34 524.12 447.77 524.42C447.19 524.73 446.55 524.88 445.9 524.88C445.26 524.88 444.62 524.73 444.04 524.42C443.47 524.12 442.98 523.68 442.61 523.14C430.46 505.41 388.9 442.78 388.9 415.9C388.9 400.78 394.91 386.28 405.6 375.59C416.29 364.9 430.79 358.9 445.9 358.9C461.02 358.9 475.52 364.9 486.21 375.59C496.9 386.28 502.9 400.78 502.9 415.9L502.9 415.9Z" />
	<path id="Layer" class="shp2" d="M445.9 440.9C429.87 440.9 416.9 427.94 416.9 411.9C416.9 395.86 429.87 382.9 445.9 382.9C461.94 382.9 474.9 395.86 474.9 411.9C474.9 427.94 461.94 440.9 445.9 440.9Z" />
	<path id="Layer" class="shp3" d="M445.4 555.9C426.88 555.9 411.9 552.99 411.9 549.4C411.9 545.8 426.88 542.9 445.4 542.9C463.93 542.9 478.9 545.8 478.9 549.4C478.9 552.99 463.93 555.9 445.4 555.9Z" />
	<path id="Layer" class="shp4" d="M967.85 370.92C967.79 371.04 967.73 371.17 967.67 371.29C967.61 371.42 967.56 371.54 967.5 371.67C967.45 371.8 967.4 371.93 967.35 372.06C967.3 372.19 967.26 372.32 967.21 372.45L919.43 385.72L910.82 377.3L896.4 388.63L910.2 405.03C910.75 405.69 911.41 406.25 912.14 406.7C912.87 407.15 913.67 407.48 914.51 407.67C915.35 407.87 916.21 407.93 917.07 407.85C917.93 407.76 918.76 407.55 919.55 407.2L971.17 384.41C974.75 386.9 979.5 386.91 983.1 384.44C986.7 381.97 988.39 377.53 987.35 373.29C986.31 369.05 982.75 365.9 978.42 365.37C974.09 364.84 969.88 367.05 967.85 370.92L967.85 370.92Z" />
	<path id="Layer" class="shp2" d="M917.75 386.5L899.81 400.46C899.3 400.86 898.71 401.14 898.08 401.29C897.45 401.44 896.8 401.45 896.16 401.32C895.53 401.2 894.93 400.94 894.41 400.56C893.88 400.18 893.45 399.69 893.13 399.13L881.98 379.4C879.96 376.78 879.07 373.46 879.49 370.18C879.91 366.9 881.62 363.92 884.24 361.89C886.86 359.87 890.17 358.96 893.45 359.38C896.74 359.79 899.72 361.49 901.75 364.1L918.09 379.7C918.56 380.14 918.92 380.69 919.16 381.29C919.4 381.89 919.51 382.53 919.48 383.18C919.44 383.82 919.27 384.46 918.97 385.03C918.67 385.6 918.26 386.11 917.75 386.5L917.75 386.5Z" />
	<path id="Layer" class="shp1" d="M972.44 364.32L990.62 372.5C991 372.67 991.34 372.91 991.62 373.21C991.91 373.51 992.13 373.87 992.28 374.25C992.42 374.64 992.49 375.05 992.48 375.47C992.47 375.88 992.37 376.29 992.2 376.66L990.05 381.45C990.18 381.51 990.29 381.59 990.38 381.69C990.48 381.79 990.55 381.91 990.6 382.04C990.65 382.16 990.67 382.3 990.67 382.44C990.66 382.58 990.63 382.71 990.58 382.84L989.71 384.75C989.66 384.88 989.58 384.99 989.48 385.09C989.38 385.18 989.26 385.25 989.13 385.3C989 385.35 988.86 385.37 988.73 385.37C988.59 385.37 988.45 385.34 988.33 385.28L987.47 387.19C987.59 387.25 987.7 387.33 987.8 387.43C987.89 387.53 987.97 387.65 988.02 387.78C988.06 387.91 988.09 388.04 988.08 388.18C988.08 388.32 988.05 388.46 987.99 388.58L987.13 390.5C987.07 390.62 986.99 390.73 986.89 390.83C986.79 390.92 986.67 391 986.55 391.05C986.42 391.09 986.28 391.12 986.14 391.11C986 391.11 985.87 391.08 985.74 391.02L974.11 416.87C973.94 417.25 973.7 417.59 973.4 417.87C973.1 418.15 972.75 418.37 972.36 418.52C971.97 418.67 971.56 418.74 971.15 418.72C970.73 418.71 970.33 418.62 969.95 418.45L951.76 410.27C951.39 410.1 951.05 409.85 950.76 409.55C950.48 409.25 950.26 408.9 950.11 408.51C949.96 408.12 949.89 407.71 949.91 407.3C949.92 406.89 950.01 406.48 950.18 406.1L968.27 365.9C968.44 365.52 968.68 365.18 968.98 364.9C969.29 364.61 969.64 364.39 970.03 364.24C970.41 364.1 970.82 364.03 971.24 364.04C971.65 364.05 972.06 364.15 972.44 364.32Z" />
	<path id="Layer" class="shp5" d="M955.07 407.72L969.66 414.29C970.02 414.45 970.41 414.54 970.8 414.55C971.2 414.56 971.6 414.5 971.97 414.36C972.34 414.22 972.68 414.01 972.97 413.74C973.26 413.46 973.49 413.14 973.65 412.78L980.39 397.79L982.73 392.59L988.83 379.03C988.99 378.67 989.08 378.28 989.1 377.88C989.11 377.49 989.04 377.09 988.9 376.72C988.76 376.35 988.55 376.02 988.28 375.73C988.01 375.44 987.68 375.21 987.32 375.04L982.73 372.97L972.72 368.47C972.36 368.31 971.97 368.22 971.57 368.21C971.18 368.2 970.78 368.27 970.41 368.41C970.04 368.55 969.7 368.76 969.41 369.03C969.13 369.31 968.89 369.63 968.73 369.99L962.83 383.1L956.11 398.03L953.55 403.73C953.39 404.09 953.3 404.48 953.29 404.88C953.28 405.27 953.35 405.67 953.49 406.04C953.63 406.41 953.84 406.75 954.11 407.03C954.38 407.32 954.7 407.56 955.07 407.72Z" />
	<path id="Layer" class="shp4" d="M924.58 593.44L936.84 593.44L942.67 546.15L924.58 546.15L924.58 593.44L924.58 593.44Z" />
	<path id="Layer" class="shp6" d="M921.45 589.44L945.59 589.44L945.6 589.44C947.62 589.44 949.62 589.84 951.48 590.61C953.35 591.38 955.05 592.52 956.47 593.95C957.9 595.37 959.04 597.07 959.81 598.94C960.58 600.8 960.98 602.8 960.98 604.83L960.98 605.33L921.45 605.33L921.45 589.44Z" />
	<path id="Layer" class="shp4" d="M956.58 590.44L968.84 590.44L974.67 543.15L956.58 543.15L956.58 590.44L956.58 590.44Z" />
	<path id="Layer" class="shp6" d="M953.45 586.44L977.59 586.44L977.6 586.44C979.62 586.44 981.62 586.84 983.48 587.61C985.35 588.38 987.05 589.52 988.47 590.95C989.9 592.37 991.04 594.07 991.81 595.94C992.58 597.8 992.98 599.8 992.98 601.83L992.98 602.33L953.45 602.33L953.45 586.44Z" />
	<path id="Layer" class="shp6" d="M869.59 482.48C870.88 486.33 872.77 489.95 875.17 493.22C877.58 496.5 880.48 499.38 883.76 501.76C887.05 504.15 890.68 506.02 894.54 507.29C898.39 508.57 902.42 509.24 906.48 509.29L907.11 509.3C913.43 509.48 920.86 507.44 928.15 504.51C942.55 498.72 956.38 489.45 960.05 486.9L953.84 546.69L951.32 570.93C951.25 571.56 951.32 572.19 951.52 572.79C951.71 573.39 952.03 573.94 952.45 574.41C952.88 574.87 953.39 575.25 953.97 575.51C954.54 575.76 955.16 575.9 955.8 575.9L971.32 575.9C971.82 575.9 972.31 575.82 972.78 575.66C973.25 575.5 973.69 575.26 974.08 574.96C974.47 574.66 974.81 574.3 975.08 573.88C975.36 573.47 975.56 573.02 975.68 572.54L1001.32 474.89C1002.09 471.97 1002.16 468.9 1001.51 465.95C1000.86 463 999.51 460.24 997.58 457.92C995.66 455.59 993.21 453.75 990.43 452.56C987.65 451.36 984.63 450.85 981.61 451.06L928.36 454.71L932.07 439.83L884.53 436.67L884.4 436.77C883.26 437.6 882.15 438.47 881.09 439.38C880.42 439.94 879.78 440.52 879.16 441.12C878.53 441.72 877.93 442.34 877.34 442.98C876.76 443.62 876.19 444.28 875.65 444.96C875.11 445.63 874.59 446.33 874.09 447.04C872.32 449.58 870.86 452.33 869.75 455.22C868.63 458.11 867.87 461.13 867.48 464.2C867.09 467.28 867.07 470.39 867.42 473.47C867.78 476.55 868.5 479.57 869.59 482.48L869.59 482.48Z" />
	<path id="Layer" class="shp6" d="M869.59 482.48C870.88 486.33 872.77 489.95 875.17 493.22C877.58 496.5 880.48 499.38 883.76 501.76C887.05 504.15 890.68 506.02 894.54 507.29C898.39 508.57 902.42 509.24 906.48 509.29C908.44 508.3 910.37 507.28 912.29 506.23C914.21 505.17 916.11 504.09 917.99 502.97C919.88 501.85 921.74 500.71 923.58 499.53C925.43 498.35 927.25 497.14 929.05 495.9L928.15 504.51L920.32 579.93C920.25 580.56 920.32 581.19 920.52 581.79C920.71 582.39 921.03 582.94 921.45 583.41C921.88 583.87 922.39 584.25 922.97 584.51C923.54 584.76 924.16 584.9 924.8 584.9L940.32 584.9C940.82 584.9 941.31 584.82 941.78 584.66C942.25 584.5 942.69 584.26 943.08 583.96C943.47 583.66 943.81 583.3 944.08 582.88C944.36 582.47 944.56 582.02 944.68 581.54L953.84 546.69L970.32 483.89C971.09 480.97 971.16 477.9 970.51 474.95C969.85 472 968.51 469.24 966.58 466.92C964.66 464.59 962.21 462.75 959.43 461.56C956.65 460.36 953.63 459.85 950.61 460.06L897.36 463.71L901.07 448.83L874.09 447.04C872.32 449.58 870.86 452.33 869.75 455.22C868.63 458.11 867.87 461.13 867.48 464.2C867.09 467.28 867.07 470.39 867.42 473.47C867.78 476.55 868.5 479.57 869.59 482.48Z" />
	<path id="Layer" class="shp2" d="M881.02 442.83L880.66 442.78L872.36 402C872.29 401.65 865.51 366.47 886.3 348.08L886.66 345.56C886.76 344.91 886.99 344.3 887.34 343.75C887.69 343.21 888.16 342.74 888.71 342.39C889.26 342.05 889.88 341.82 890.53 341.74C891.17 341.65 891.83 341.71 892.45 341.9L912.03 347.98C912.58 348.14 913.1 348.42 913.54 348.78C913.99 349.14 914.36 349.59 914.64 350.09C914.92 350.59 915.1 351.14 915.17 351.71C915.24 352.28 915.2 352.86 915.05 353.42L913.15 360.66C915.79 363.76 946.86 401.17 936.04 429.99L931.19 448.95L881.02 442.83Z" />
	<path id="Layer" class="shp4" d="M962.34 411C962.22 411.07 962.1 411.15 961.99 411.22C961.88 411.3 961.76 411.38 961.65 411.47C961.54 411.55 961.43 411.63 961.33 411.72C961.22 411.81 961.11 411.9 961.01 411.99L913.11 399.13L909.98 387.5L891.8 389.93L895.35 411.06C895.49 411.91 895.77 412.73 896.17 413.49C896.57 414.25 897.1 414.94 897.72 415.53C898.34 416.12 899.05 416.61 899.83 416.98C900.61 417.34 901.44 417.58 902.3 417.68L958.33 424.3C960.15 428.27 964.24 430.69 968.59 430.39C972.95 430.09 976.66 427.13 977.92 422.95C979.18 418.77 977.72 414.25 974.26 411.59C970.79 408.93 966.05 408.7 962.34 411L962.34 411Z" />
	<path id="Layer" class="shp2" d="M911.27 398.94L888.72 401.85C888.08 401.93 887.43 401.87 886.81 401.68C886.2 401.49 885.63 401.17 885.15 400.73C884.66 400.3 884.28 399.77 884.02 399.18C883.77 398.59 883.64 397.95 883.65 397.3L884.08 374.64C883.68 371.36 884.59 368.05 886.62 365.44C888.66 362.83 891.64 361.13 894.92 360.72C898.21 360.3 901.52 361.21 904.14 363.24C906.75 365.26 908.46 368.24 908.88 371.52L915.02 393.26C915.2 393.88 915.24 394.53 915.14 395.17C915.04 395.81 914.8 396.42 914.45 396.96C914.09 397.5 913.62 397.96 913.07 398.3C912.52 398.64 911.91 398.86 911.27 398.94L911.27 398.94Z" />
	<path id="Layer" class="shp4" d="M904.92 336.36C891.34 336.36 880.36 325.39 880.36 311.8C880.36 298.22 891.34 287.24 904.92 287.24C918.5 287.24 929.48 298.22 929.48 311.8C929.48 325.39 918.5 336.36 904.92 336.36Z" />
	<path id="Layer" class="shp6" d="M903.63 313.85L900.55 308.26C894.73 331.99 905.02 351.63 905.02 351.63L865.08 333.03L865.47 326.43L861.51 330.91L855.84 327.78L855.09 323.5L850.8 324.56L866.44 296.18C881.63 269.16 903.7 279.48 903.7 279.48C938.81 277.81 934.53 312.45 934.53 312.45L903.63 313.85Z" />
	<path id="Layer" class="shp1" d="M624.04 496.89C618.37 500.52 602.33 485.59 588.15 463.47C573.98 441.36 567.1 420.54 572.77 416.91C578.44 413.27 594.48 428.21 608.66 450.33C622.83 472.44 629.71 493.25 624.04 496.89Z" />
</svg>