<svg version="1.2" baseProfile="tiny-ps" xmlns="http://www.w3.org/2000/svg" viewBox="0 0 1220 814" width="1220" height="814">
	<title>dream-world-svg</title>
	<style>
		tspan { white-space:pre }
		.shp0 { fill: #f2f2f2 } 
		.shp1 { fill: #ff6584 } 
		.shp2 { fill: #3f3d56 } 
		.shp3 { opacity: 0.102;fill: #000000 } 
		.shp4 { fill: #d0cde1 } 
		.shp5 { fill: #b3018a } 
		.shp6 { fill: #2f2e41 } 
		.shp7 { fill: #a0616a } 
	</style>
	<path id="Layer" class="shp0" d="M837.25 647.52L405.55 651.85C290.88 627.64 196.57 541.26 195.26 410.68C195.2 405.75 195.29 400.82 195.5 395.89C195.71 390.96 196.06 386.04 196.55 381.13C197.03 376.22 197.64 371.32 198.39 366.44C199.14 361.57 200.02 356.71 201.04 351.88L548.45 292.31L816.45 246.36C821.3 249.47 826.1 252.66 830.83 255.94C835.57 259.22 840.25 262.58 844.86 266.03C849.48 269.48 854.03 273.01 858.52 276.62C863 280.23 867.43 283.92 871.78 287.69L615.82 388.33L495.07 435.81L630.85 400.6L912.68 327.51C917.02 332.26 921.26 337.1 925.41 342.02C929.55 346.94 933.59 351.95 937.54 357.03C941.48 362.12 945.32 367.28 949.06 372.52C952.79 377.76 956.42 383.07 959.95 388.46L875.15 453.23L971.22 406.55C971.64 407.25 972.05 407.95 972.46 408.65C1034.09 513.79 959.06 646.3 837.25 647.52Z" />
	<path id="Layer" class="shp0" d="M763.95 217.21C698.74 231.37 618.57 249.24 536.14 267.81C416.97 294.67 293.08 322.99 202.88 343.7C204.8 335.86 207.05 328.18 209.63 320.66C227.01 302.29 245.81 285.32 265.87 269.92C285.93 254.52 307.17 240.74 329.4 228.69C351.63 216.65 374.78 206.38 398.63 197.99C422.48 189.6 446.95 183.11 471.83 178.59L471.84 178.59C478.54 177.37 485.28 176.3 492.03 175.37C498.78 174.45 505.55 173.66 512.34 173.02C519.12 172.38 525.92 171.88 532.73 171.52C539.54 171.17 546.35 170.96 553.16 170.89C571.31 170.69 589.45 171.51 607.5 173.37C625.55 175.22 643.48 178.1 661.2 182C678.92 185.89 696.41 190.79 713.58 196.68C730.74 202.56 747.56 209.41 763.95 217.21L763.95 217.21Z" />
	<path id="Layer" class="shp1" d="M309.1 244.71C270.46 245.1 238.91 214.16 238.52 175.5C238.13 136.83 269.06 105.27 307.7 104.88C346.34 104.49 377.89 135.43 378.28 174.1C378.67 212.76 347.74 244.33 309.1 244.71Z" />
	<path id="Layer" class="shp2" d="M836.43 647.53C793.84 689.18 649.77 692.37 419.58 654.48C414.87 653.7 410.19 652.83 405.55 651.85C290.88 627.64 196.57 541.26 195.26 410.68C195.2 405.75 195.29 400.82 195.5 395.89C195.71 390.96 196.06 386.04 196.55 381.13C197.03 376.22 197.64 371.32 198.39 366.44C199.14 361.57 200.02 356.71 201.04 351.88C201.61 349.14 202.22 346.41 202.88 343.7C204.8 335.86 207.05 328.18 209.63 320.66C241.08 228.91 320.72 163.38 414.65 162.44C437.98 162.21 456.44 168.21 471.83 178.59L471.84 178.59C499.88 197.51 517.69 230.98 536.14 267.81C540.18 275.85 544.24 284.06 548.45 292.31C565.81 326.34 585.6 361.08 615.82 388.33C617.02 389.42 618.23 390.49 619.46 391.54C620.68 392.6 621.92 393.64 623.18 394.66C624.43 395.68 625.7 396.69 626.98 397.68C628.26 398.67 629.55 399.64 630.85 400.6C633.49 402.54 636.19 404.42 638.97 406.24C818.92 524.11 879.46 605.44 836.43 647.53Z" />
	<path id="Layer" class="shp3" d="M692.04 621.04C650.86 621.45 617.51 616.16 617.44 609.21C617.37 602.25 650.6 596.3 691.79 595.88C732.97 595.47 766.32 600.76 766.39 607.71C766.46 614.67 733.22 620.63 692.04 621.04Z" />
	<path id="Layer" class="shp3" d="M290.39 485.18C249.21 485.59 215.86 480.31 215.79 473.35C215.73 466.39 248.96 460.44 290.14 460.02C331.33 459.61 364.67 464.9 364.74 471.86C364.81 478.81 331.58 484.77 290.39 485.18Z" />
	<path id="Layer" class="shp4" d="M299.81 434.15C287.67 450.37 289.3 472.1 289.3 472.1C289.3 472.1 310.6 467.55 322.74 451.33C334.88 435.11 333.25 413.37 333.25 413.37C333.25 413.37 311.95 417.93 299.81 434.15Z" />
	<path id="Layer" class="shp5" d="M307.91 437.68C305.72 457.82 289.71 472.61 289.71 472.61C289.71 472.61 277.24 454.73 279.43 434.59C281.61 414.44 297.62 399.66 297.62 399.66C297.62 399.66 310.09 417.54 307.91 437.68Z" />
	<path id="Layer" class="shp3" d="M500.06 563.49C464.84 563.84 436.33 559.32 436.27 553.37C436.21 547.42 464.63 542.33 499.84 541.97C535.06 541.62 563.58 546.14 563.64 552.09C563.7 558.04 535.28 563.13 500.06 563.49Z" />
	<path id="Layer" class="shp4" d="M508.11 519.84C497.73 533.71 499.12 552.3 499.12 552.3C499.12 552.3 517.34 548.4 527.72 534.54C538.1 520.67 536.71 502.08 536.71 502.08C536.71 502.08 518.49 505.97 508.11 519.84Z" />
	<path id="Layer" class="shp5" d="M515.04 522.87C513.17 540.09 499.47 552.73 499.47 552.73C499.47 552.73 488.81 537.45 490.68 520.22C492.55 503 506.24 490.35 506.24 490.35C506.24 490.35 516.9 505.64 515.04 522.87Z" />
	<path id="Layer" class="shp5" d="M787.89 513.27C788.62 583.1 747.38 607.92 696.2 608.46C695.01 608.47 693.83 608.47 692.65 608.46C690.28 608.43 687.93 608.35 685.61 608.21C639.38 605.42 603.21 580.16 602.53 515.21C601.83 448 686.8 362.28 693.17 355.94C693.17 355.94 693.17 355.94 693.18 355.93C693.42 355.69 693.55 355.57 693.55 355.57C693.55 355.57 787.16 443.43 787.89 513.27Z" />
	<path id="Layer" class="shp2" d="M692.72 597.81L726.11 550.07L692.68 603.02L692.65 608.46C690.28 608.43 687.93 608.35 685.61 608.21L688.52 538.3L688.49 537.76L688.55 537.66L688.83 531.05L654.21 478.69L688.88 526.11L688.98 527.51L691.18 474.69L661.45 420.52L691.44 465.41L693.17 355.94L693.18 355.57L693.18 355.93L693.61 442.24L722.28 407.72L693.56 449.68L693.29 496.95L719.93 451.31L693.25 503.9L693.1 530.19L731.79 466.64L693.05 539.36L692.72 597.81Z" />
	<path id="Layer" class="shp3" d="M391.44 399.77C337.69 400.31 294.17 393.4 294.08 384.33C293.99 375.25 337.36 367.47 391.11 366.94C444.86 366.4 488.38 373.3 488.47 382.38C488.56 391.46 445.19 399.23 391.44 399.77Z" />
	<path id="Layer" class="shp5" d="M516.53 259.11C517.49 350.26 463.67 382.65 396.87 383.35C395.32 383.37 393.77 383.37 392.23 383.35C389.14 383.31 386.07 383.2 383.04 383.02C322.71 379.38 275.51 346.42 274.62 261.66C273.7 173.94 384.59 62.06 392.91 53.78C392.92 53.78 392.92 53.78 392.92 53.78C393.24 53.46 393.4 53.3 393.4 53.3C393.4 53.3 515.57 167.98 516.53 259.11Z" />
	<path id="Layer" class="shp2" d="M392.32 369.45L435.91 307.15L392.28 376.24L392.23 383.35C389.14 383.31 386.07 383.2 383.04 383.02L386.85 291.79L386.8 291.08L386.88 290.95L387.25 282.33L342.06 213.99L387.31 275.87L387.44 277.7L390.32 208.77L351.51 138.07L390.66 196.66L392.91 53.78L392.92 53.31L392.92 53.78L393.48 166.42L430.9 121.37L393.42 176.13L393.07 237.82L427.83 178.25L393.02 246.89L392.83 281.2L443.32 198.26L392.75 293.17L392.32 369.45Z" />
	<path id="Layer" class="shp6" d="M905.68 329.62C868.67 329.99 838.45 300.35 838.08 263.32C837.71 226.29 867.33 196.05 904.34 195.68C941.36 195.31 971.58 224.94 971.95 261.98C972.32 299.01 942.7 329.25 905.68 329.62Z" />
	<path id="Layer" class="shp6" d="M1032.35 644.18C1012.85 700.74 975.53 749.76 975.53 749.76L882.93 750.69L895.09 725.06L901.18 712.24L909.99 693.69L914.32 684.57L926.01 659.92L908.42 683.89L900.82 694.23L886.42 713.86L874.41 730.23C864.66 732.46 854.88 734.5 845.06 736.37C835.24 738.25 825.39 739.94 815.52 741.46C805.64 742.98 795.73 744.32 785.81 745.48C775.88 746.65 765.93 747.63 755.97 748.44C755.78 743.74 756.43 734.49 762.27 721.57C763.05 719.89 763.87 718.22 764.72 716.57C765.58 714.92 766.47 713.29 767.4 711.69C768.34 710.08 769.31 708.5 770.32 706.94C771.32 705.38 772.37 703.84 773.45 702.33C774.46 700.91 775.5 699.5 776.55 698.11C777.6 696.72 778.68 695.34 779.77 693.98C780.87 692.62 781.98 691.28 783.12 689.95C784.26 688.62 785.41 687.31 786.59 686.02C789.2 683.13 791.95 680.19 794.79 677.21C831.76 638.41 885.22 593.93 885.22 593.93L869.18 533.09L980.04 513.11C981.41 512.86 982.82 512.9 984.17 513.23C985.53 513.56 986.8 514.17 987.91 515.02C989.02 515.87 989.93 516.94 990.6 518.16C991.27 519.39 991.68 520.74 991.8 522.13C992.48 530.17 994.7 540.51 1001.27 545.66C1012.93 554.81 1051.85 587.63 1032.35 644.18Z" />
	<path id="Layer" class="shp2" d="M959.55 697.08C959.55 697.13 959.55 697.19 959.54 697.24C959.54 697.29 959.54 697.34 959.53 697.39C959.52 697.44 959.51 697.49 959.5 697.54C959.49 697.59 959.48 697.64 959.47 697.69C957.97 703.65 933.99 714.59 895.09 725.06C888.6 726.8 881.69 728.53 874.41 730.23C864.66 732.46 854.88 734.5 845.06 736.37C835.24 738.25 825.39 739.94 815.52 741.46C805.64 742.98 795.73 744.32 785.81 745.48C775.88 746.65 765.93 747.63 755.97 748.44C735.77 750.11 714.67 751.16 692.96 751.38C547.67 752.84 429.1 716.44 425.43 703.04C425.42 702.99 425.41 702.94 425.39 702.89C425.38 702.84 425.37 702.79 425.36 702.74C425.36 702.69 425.35 702.64 425.35 702.59C425.34 702.54 425.34 702.49 425.34 702.44C425.34 702.41 425.34 702.37 425.34 702.34C425.34 702.31 425.34 702.28 425.34 702.25C425.35 702.22 425.35 702.18 425.36 702.15C425.36 702.12 425.37 702.09 425.37 702.06C425.38 702.04 425.38 702.02 425.38 702C425.39 701.98 425.39 701.96 425.39 701.94C425.4 701.92 425.41 701.9 425.41 701.88C425.42 701.86 425.42 701.85 425.43 701.83C429.18 690.11 547.41 706.22 692.49 704.76C720.71 704.48 747.92 703.56 773.45 702.33C824.15 699.89 868.29 696.29 900.82 694.23C903.99 694.04 907.05 693.85 909.99 693.69C939.84 691.98 957.93 692.04 959.44 696.47C959.45 696.49 959.46 696.51 959.46 696.53C959.47 696.55 959.48 696.57 959.48 696.59C959.49 696.61 959.49 696.63 959.5 696.65C959.5 696.67 959.5 696.68 959.51 696.7C959.51 696.74 959.52 696.77 959.52 696.8C959.53 696.83 959.53 696.86 959.54 696.89C959.54 696.92 959.54 696.96 959.55 696.99C959.55 697.02 959.55 697.05 959.55 697.08Z" />
	<path id="Layer" class="shp3" d="M959.55 697.08C959.55 697.13 959.55 697.19 959.54 697.24C959.54 697.29 959.54 697.34 959.53 697.39C959.52 697.44 959.51 697.49 959.5 697.54C959.49 697.59 959.48 697.64 959.47 697.69C957.97 703.65 933.99 714.59 895.09 725.06C888.6 726.8 881.69 728.53 874.41 730.23C864.66 732.46 854.88 734.5 845.06 736.37C835.24 738.25 825.39 739.94 815.52 741.46C805.64 742.98 795.73 744.32 785.81 745.48C775.88 746.65 765.93 747.63 755.97 748.44C735.77 750.11 714.67 751.16 692.96 751.38C547.67 752.84 429.1 716.44 425.43 703.04C425.42 702.99 425.41 702.94 425.39 702.89C425.38 702.84 425.37 702.79 425.36 702.74C425.36 702.69 425.35 702.64 425.35 702.59C425.34 702.54 425.34 702.49 425.34 702.44C425.34 702.41 425.34 702.37 425.34 702.34C425.34 702.31 425.34 702.28 425.34 702.25C425.35 702.22 425.35 702.18 425.36 702.15C425.36 702.12 425.37 702.09 425.37 702.06C425.38 702.04 425.38 702.02 425.38 702C425.39 701.98 425.39 701.96 425.39 701.94C425.4 701.92 425.41 701.9 425.41 701.88C425.42 701.86 425.42 701.85 425.43 701.83C429.18 690.11 547.41 706.22 692.49 704.76C720.71 704.48 747.92 703.56 773.45 702.33C824.15 699.89 868.29 696.29 900.82 694.23C903.99 694.04 907.05 693.85 909.99 693.69C939.84 691.98 957.93 692.04 959.44 696.47C959.45 696.49 959.46 696.51 959.46 696.53C959.47 696.55 959.48 696.57 959.48 696.59C959.49 696.61 959.49 696.63 959.5 696.65C959.5 696.67 959.5 696.68 959.51 696.7C959.51 696.74 959.52 696.77 959.52 696.8C959.53 696.83 959.53 696.86 959.54 696.89C959.54 696.92 959.54 696.96 959.55 696.99C959.55 697.02 959.55 697.05 959.55 697.08Z" />
	<path id="Layer" class="shp2" d="M692.68 723.07C544.97 724.56 425.46 715.33 425.34 702.44C425.21 689.55 544.5 677.93 692.21 676.45C839.92 674.97 959.42 684.19 959.55 697.09C959.68 709.98 840.39 721.59 692.68 723.07Z" />
	<path id="Layer" class="shp3" d="M850.72 711.41C825.84 711.66 805.68 707.39 805.62 701.86C805.57 696.33 825.64 691.65 850.52 691.4C875.4 691.15 895.56 695.42 895.61 700.96C895.67 706.49 875.6 711.16 850.72 711.41Z" />
	<path id="Layer" class="shp5" d="M850.62 701.41C837.35 701.54 826.6 699.86 826.58 697.65C826.56 695.43 837.27 693.54 850.54 693.4C863.81 693.27 874.55 694.95 874.57 697.17C874.6 699.38 863.89 701.27 850.62 701.41Z" />
	<path id="Layer" class="shp7" d="M870.8 652.89C870.8 652.89 821.76 691.85 839.55 695.53C857.33 699.21 885.46 656.46 885.46 656.46L870.8 652.89Z" />
	<path id="Layer" class="shp7" d="M893.78 331.31C869.46 331.56 849.6 312.08 849.36 287.75C849.11 263.41 868.58 243.54 892.9 243.3C917.22 243.06 937.08 262.53 937.32 286.87C937.57 311.2 918.1 331.07 893.78 331.31Z" />
	<path id="Layer" class="shp7" d="M893.73 326.68C893.73 326.68 909.56 365.9 897.28 372.97C885.01 380.05 878.84 380.88 878.84 380.88L865.95 403.4L858.46 426.64L920.22 428.34L962.74 359.19C962.74 359.19 941.8 348.59 930.53 302.38L893.73 326.68Z" />
	<path id="Layer" class="shp4" d="M974.71 360.23C974.71 360.23 966.81 355.15 959.57 357.03C958.68 357.23 957.8 357.46 956.93 357.71C956.05 357.95 955.19 358.22 954.33 358.51C953.46 358.8 952.61 359.11 951.76 359.44C950.92 359.77 950.08 360.12 949.25 360.49C948.42 360.86 909.67 415.7 888.08 417.46C888.08 417.46 859.61 425.47 866.44 413.82C873.27 402.17 888.24 377.64 888.24 377.64C888.24 377.64 860.74 384.54 860.84 393.8C860.93 403.07 855.7 420.11 855.7 420.11C855.7 420.11 829.72 446.62 856.27 477.24C882.81 507.86 873.06 535.75 873.06 535.75L988.6 513.75L974.71 360.23Z" />
	<path id="Layer" class="shp4" d="M853.77 458.73L847.89 565.34L855.83 664.1C855.83 664.1 884.44 669.99 891.32 663.74C898.2 657.5 875 497.9 875 497.9L853.77 458.73Z" />
	<path id="Layer" class="shp6" d="M932.41 229.18C917.1 229.34 904.59 217.07 904.44 201.75C904.29 186.43 916.54 173.91 931.86 173.76C947.18 173.61 959.68 185.87 959.83 201.19C959.99 216.52 947.73 229.03 932.41 229.18Z" />
	<path id="Layer" class="shp6" d="M895.06 186.83C895.02 183.44 895.61 180.06 896.8 176.88C897.98 173.7 899.74 170.76 901.99 168.21C904.24 165.67 906.93 163.56 909.94 161.99C912.95 160.41 916.22 159.41 919.59 159.02C919.35 159 919.11 158.98 918.87 158.96C918.63 158.95 918.39 158.93 918.15 158.92C917.91 158.91 917.67 158.91 917.43 158.9C917.19 158.9 916.95 158.9 916.71 158.9C909.36 158.97 902.35 161.96 897.2 167.21C892.06 172.46 889.21 179.54 889.29 186.89C889.36 194.24 892.35 201.26 897.6 206.4C902.84 211.55 909.92 214.4 917.26 214.32C917.5 214.32 917.74 214.32 917.98 214.31C918.22 214.3 918.47 214.29 918.71 214.27C918.95 214.26 919.19 214.24 919.43 214.22C919.67 214.2 919.91 214.17 920.15 214.15C916.77 213.82 913.47 212.89 910.43 211.38C907.39 209.86 904.66 207.81 902.36 205.31C900.06 202.81 898.25 199.9 897 196.75C895.75 193.59 895.09 190.23 895.06 186.83Z" />
	<path id="Layer" class="shp6" d="M942.41 273.91C938.62 288.76 915.57 295.66 890.83 289.35C866.09 283.04 849.16 265.93 852.94 251.08C856.73 236.23 879.78 229.33 904.52 235.64C929.26 241.95 946.19 259.06 942.41 273.91Z" />
	<path id="Layer" class="shp7" d="M892.47 658.85C892.47 658.85 843.43 697.81 861.22 701.49C879 705.17 907.13 662.42 907.13 662.42L892.47 658.85Z" />
	<path id="Layer" class="shp4" d="M955.47 365.06C955.47 365.06 976.89 346.31 987.18 371.69C997.46 397.06 983.29 523.06 983.29 523.06L910.71 673.58C910.71 673.58 875.23 675.48 882.69 649.93C890.16 624.37 941.04 503.8 944.09 500.68C947.15 497.56 955.47 365.06 955.47 365.06Z" />
	<path id="Layer" class="shp3" d="M858.62 480.06C858.62 480.06 876.01 516.01 874.73 525.69C873.44 535.36 858.62 480.06 858.62 480.06Z" />
	<path id="Layer" class="shp7" d="M940.46 292.24C938.33 292.26 936.57 288.83 936.53 284.56C936.49 280.29 938.18 276.82 940.31 276.8C942.44 276.78 944.2 280.21 944.25 284.48C944.29 288.75 942.6 292.22 940.46 292.24Z" />
	<path id="Layer" class="shp3" d="M573.76 714.19C548.88 714.44 528.72 710.17 528.67 704.63C528.61 699.1 548.68 694.43 573.56 694.18C598.44 693.93 618.6 698.2 618.65 703.73C618.71 709.26 598.64 713.94 573.76 714.19Z" />
	<path id="Layer" class="shp5" d="M573.66 704.18C560.39 704.32 549.55 693.69 549.42 680.41C549.29 667.14 559.91 656.3 573.18 656.17C586.45 656.03 597.28 666.66 597.41 679.93C597.55 693.21 586.93 704.05 573.66 704.18Z" />
	<path id="Layer" class="shp3" d="M701.74 712.9C676.86 713.15 656.7 708.88 656.65 703.35C656.59 697.82 676.66 693.15 701.54 692.9C726.42 692.65 746.58 696.92 746.63 702.45C746.69 707.98 726.62 712.66 701.74 712.9Z" />
	<path id="Layer" class="shp5" d="M701.64 702.9C688.37 703.03 677.54 692.41 677.4 679.13C677.27 665.86 687.89 655.02 701.16 654.88C714.43 654.75 725.26 665.37 725.4 678.65C725.53 691.93 714.91 702.77 701.64 702.9Z" />
	<path id="Layer" class="shp4" d="M570.02 664.81L576.02 664.75L576.32 694.76L570.32 694.82L570.02 664.81Z" />
	<path id="Layer" class="shp4" d="M693.01 663.57L699 663.51L699.31 693.52L693.31 693.58L693.01 663.57Z" />
	<path id="Layer" class="shp4" d="M702 663.48L708 663.42L708.3 693.43L702.3 693.49L702 663.48Z" />
</svg>