<svg version="1.2" baseProfile="tiny-ps" xmlns="http://www.w3.org/2000/svg" viewBox="0 0 1248 832" width="1248" height="832">
	<title>friends-svg</title>
	<style>
		tspan { white-space:pre }
		.shp0 { fill: #3f3d56 } 
		.shp1 { fill: #ffb8b8 } 
		.shp2 { fill: #b3018a } 
		.shp3 { fill: #e6e6e6 } 
		.shp4 { fill: #2f2e41 } 
		.shp5 { opacity: 0.102;fill: #000000 } 
		.shp6 { fill: #ff6584 } 
		.shp7 { opacity: 0.2;fill: #000000 } 
	</style>
	<path id="Layer" class="shp0" d="M659.29 751.89C461.32 751.89 301.29 734.01 301.29 711.89C301.29 689.77 461.32 671.89 659.29 671.89C857.27 671.89 1017.29 689.77 1017.29 711.89C1017.29 734.01 857.27 751.89 659.29 751.89Z" />
	<path id="Layer" class="shp1" d="M836.84 667.63L843.02 686.65C843.02 686.65 872.75 717.37 862 725.7C851.24 734.03 827.11 690.13 827.11 690.13L822.67 668.66L836.84 667.63Z" />
	<path id="Layer" class="shp2" d="M779.79 520.39L788.79 517.39C788.79 517.39 802.79 521.39 804.79 535.39C806.79 549.39 821.79 620.39 821.79 620.39C821.79 620.39 827.79 623.39 823.79 628.39C819.79 633.39 843.79 678.39 843.79 678.39L824.79 687.39C824.79 687.39 786.79 647.39 786.79 643.39C786.79 639.39 787.79 635.39 787.79 631.39C787.79 627.39 786.79 627.39 787.79 624.39C787.96 623.74 788.11 623.08 788.23 622.42C788.36 621.76 788.46 621.09 788.55 620.42C788.63 619.75 788.69 619.08 788.73 618.41C788.78 617.74 788.8 617.06 788.79 616.39L781.79 600.39L779.79 520.39Z" />
	<path id="Layer" class="shp2" d="M321.42 588.99C271.42 588.99 231 506.52 231 404.5C231 302.48 271.42 220.01 321.42 220.01C371.42 220.01 411.84 302.48 411.84 404.5C411.84 506.52 371.42 588.99 321.42 588.99Z" />
	<path id="Layer" class="shp0" d="M320.59 406.41C325.1 326.1 334.19 271.86 334.28 271.32L332.3 270.99C332.21 271.53 323.11 325.86 318.59 406.27C314.42 480.48 313.42 592.73 332.3 706.05L334.28 705.73C315.42 592.6 316.43 480.52 320.59 406.41Z" />
	<path id="Layer" class="shp0" d="M320.48 410.84L402.23 367.08L403.17 368.85L321.42 412.6L320.48 410.84Z" />
	<path id="Layer" class="shp0" d="M234.18 390.78L235.12 389.01L316.88 432.75L315.94 434.51L234.18 390.78Z" />
	<path id="Layer" class="shp3" d="M535.57 545.92C467.14 545.92 411.84 433.07 411.84 293.46C411.84 153.85 467.14 41 535.57 41C603.99 41 659.29 153.85 659.29 293.46C659.29 433.07 603.99 545.92 535.57 545.92Z" />
	<path id="Layer" class="shp0" d="M534.06 296.04C540.24 186.13 552.67 111.89 552.8 111.16L550.83 110.82C550.7 111.56 538.25 185.89 532.07 295.9C526.36 397.44 524.99 551.02 550.83 706.05L552.8 705.73C526.99 550.88 528.37 397.47 534.06 296.04Z" />
	<path id="Layer" class="shp0" d="M534.45 302.46L646.32 242.58L647.27 244.35L535.4 304.23L534.45 302.46Z" />
	<path id="Layer" class="shp0" d="M416.35 274.36L417.3 272.59L529.19 332.44L528.24 334.21L416.35 274.36Z" />
	<path id="Layer" class="shp3" d="M432.49 644.29C406.93 644.29 386.26 602.13 386.26 549.97C386.26 497.81 406.93 455.64 432.49 455.64C458.06 455.64 478.72 497.81 478.72 549.97C478.72 602.13 458.06 644.29 432.49 644.29Z" />
	<path id="Layer" class="shp0" d="M432.45 554.03L432.72 554.54L474.52 532.17L473.58 530.41L432.54 552.37C434.81 510.57 439.45 482.51 439.55 481.96L437.58 481.63C437.47 482.23 431.95 515.55 430 563.77L388.6 541.61L387.66 543.38L429.46 565.75L429.96 564.82C428.39 604.62 429.27 654.38 437.58 704.23L439.55 703.9C430.49 649.55 430.29 595.3 432.45 554.03Z" />
	<path id="Layer" class="shp4" d="M792.03 425.46C775.96 398.07 744.16 396.79 744.16 396.79C744.16 396.79 713.17 392.79 693.29 434.52C674.76 473.41 649.19 510.96 689.17 520.06L696.39 497.39L700.87 521.75C702.29 521.85 703.71 521.94 705.14 522C706.56 522.06 707.99 522.11 709.42 522.13C710.84 522.16 712.27 522.16 713.7 522.15C715.12 522.13 716.55 522.1 717.97 522.04C760.79 520.65 801.57 522.45 800.26 506.95C798.51 486.35 807.5 451.82 792.03 425.46Z" />
	<path id="Layer" class="shp4" d="M679.99 644.9C679.88 645.61 679.75 646.33 679.62 647.04C679.48 647.75 679.33 648.46 679.17 649.17C679 649.87 678.83 650.57 678.64 651.27C678.45 651.97 678.25 652.67 678.04 653.36C677.08 656.07 675.61 658.58 674.73 661.32C671.95 670.06 675.81 679.79 681.98 686.54C683.31 687.98 684.73 689.33 686.25 690.56C687.77 691.8 689.38 692.93 691.06 693.94C692.74 694.94 694.49 695.83 696.3 696.58C698.11 697.34 699.97 697.96 701.87 698.45C707.43 699.86 713.22 700.06 718.96 700.26C734.84 700.8 751.14 701.29 766.19 696.14C767.38 695.72 768.56 695.28 769.72 694.81C770.89 694.34 772.05 693.84 773.19 693.31C774.34 692.79 775.47 692.24 776.59 691.66C777.71 691.08 778.82 690.48 779.91 689.85C780.25 689.69 780.59 689.5 780.91 689.3C781.24 689.1 781.55 688.87 781.85 688.64C782.15 688.4 782.43 688.14 782.7 687.88C782.97 687.61 783.23 687.32 783.47 687.02C784.62 685.38 784.76 683.24 784.75 681.22C784.72 674.43 783.36 667.67 783.68 660.89C783.86 657.13 784.56 653.38 784.21 649.63C783.98 647.52 783.43 645.46 782.58 643.52C781.72 641.58 780.58 639.79 779.18 638.19C777.78 636.6 776.14 635.23 774.32 634.14C772.51 633.04 770.54 632.23 768.48 631.74C764.21 630.81 759.78 631.32 755.43 631.74C752.61 632.01 749.79 632.25 746.96 632.45C744.13 632.65 741.3 632.81 738.47 632.94C735.64 633.07 732.81 633.16 729.98 633.22C727.15 633.27 724.31 633.29 721.48 633.27C709.9 633.19 698.39 631.41 686.86 631.23C683.45 631.17 683.52 632.23 682.44 635.56C682.19 636.32 681.95 637.09 681.72 637.86C681.49 638.64 681.28 639.41 681.08 640.19C680.87 640.97 680.68 641.75 680.5 642.54C680.32 643.32 680.15 644.11 679.99 644.9L679.99 644.9Z" />
	<path id="Layer" class="shp4" d="M634.7 639.38C633.92 639.18 633.14 639.01 632.35 638.87C631.56 638.73 630.77 638.62 629.97 638.53C629.17 638.44 628.37 638.39 627.57 638.36C626.77 638.33 625.97 638.33 625.17 638.36C623.48 638.46 621.82 638.75 620.19 639.2C618.57 639.65 617 640.28 615.51 641.06C614.01 641.84 612.61 642.78 611.31 643.86C610.01 644.94 608.83 646.15 607.79 647.47C606.75 648.81 605.86 650.26 605.13 651.79C604.39 653.32 603.82 654.92 603.41 656.56C603.01 658.21 602.78 659.89 602.72 661.59C602.66 663.28 602.78 664.98 603.08 666.65C603.27 667.55 603.5 668.45 603.75 669.34C604.01 670.23 604.29 671.11 604.61 671.98C604.92 672.85 605.27 673.71 605.64 674.56C606.02 675.41 606.42 676.24 606.85 677.06C609.38 682.23 612.41 687.4 617.09 690.71C617.8 691.17 618.52 691.6 619.25 692.01C619.98 692.42 620.72 692.81 621.48 693.17C622.23 693.53 623 693.87 623.77 694.19C624.55 694.5 625.34 694.79 626.13 695.05L650.78 704.42C654.41 705.8 658.04 707.18 661.7 708.45C666.29 710.05 670.93 711.5 675.62 712.78C680.31 714.06 685.04 715.18 689.81 716.13C694.58 717.09 699.38 717.88 704.2 718.51C709.02 719.13 713.86 719.59 718.71 719.89C724.63 720.24 730.64 720.34 736.41 718.98C736.76 718.93 737.11 718.86 737.44 718.75C737.78 718.64 738.1 718.5 738.41 718.33C738.72 718.16 739.01 717.96 739.28 717.74C739.56 717.52 739.81 717.27 740.04 717.01C740.16 716.8 740.26 716.59 740.35 716.37C740.45 716.15 740.53 715.93 740.6 715.7C740.66 715.48 740.72 715.24 740.76 715.01C740.8 714.78 740.83 714.54 740.85 714.31L742.37 703.6C742.45 703.22 742.51 702.85 742.55 702.47C742.58 702.09 742.6 701.71 742.59 701.33C742.58 700.95 742.54 700.57 742.48 700.19C742.42 699.82 742.34 699.45 742.24 699.08C741.54 697.28 739.8 696.15 738.14 695.19C721.93 685.8 703.01 680.62 689.37 667.73C686.16 664.7 683.47 659.89 679.57 657.83C675.15 655.49 669.93 654.16 665.36 652.01C655.36 647.3 645.53 641.89 634.7 639.38Z" />
	<path id="Layer" class="shp5" d="M659.31 653.82C668.02 656.57 704.81 675.65 711.11 682.31C710.27 682.62 681.59 666.41 680.73 666.15C672.91 663.78 665.05 661.4 657.62 657.93C656.12 657.24 647.91 653.96 648.28 652.06C648.7 649.91 657.76 653.33 659.31 653.82Z" />
	<path id="Layer" class="shp1" d="M768.01 725.44C768.13 725.45 768.25 725.45 768.37 725.43C768.5 725.42 768.62 725.4 768.74 725.36C768.85 725.33 768.97 725.28 769.08 725.23C769.19 725.17 769.29 725.11 769.39 725.03C769.48 724.92 769.55 724.8 769.61 724.67C769.68 724.54 769.73 724.41 769.76 724.27C769.8 724.13 769.82 723.99 769.83 723.85C769.84 723.71 769.84 723.57 769.82 723.43L769.78 708.84C765.62 706.84 760.97 706.2 756.4 705.58L735.09 702.71C735.58 702.77 731.76 711.96 732.34 713.19C733.37 715.36 741.27 717.27 743.49 718.29C751.24 721.84 759.29 725.75 768.01 725.44Z" />
	<path id="Layer" class="shp1" d="M701.14 708.79C697.12 709.43 692.63 710 690.02 713.16C686.72 717.17 688.13 723.14 689.7 728.1C689.76 728.35 689.83 728.6 689.92 728.84C690.01 729.08 690.11 729.32 690.22 729.55C690.34 729.77 690.47 730 690.61 730.21C690.75 730.42 690.91 730.63 691.07 730.82C692.15 731.89 693.8 732.05 695.3 732.15C698.97 732.38 702.88 732.57 706.09 730.75C706.45 730.51 706.81 730.26 707.16 730.01C707.52 729.76 707.87 729.5 708.22 729.24C708.57 728.98 708.92 728.71 709.26 728.44C709.6 728.17 709.94 727.89 710.27 727.61C710.86 727.21 711.47 726.84 712.09 726.49C712.71 726.15 713.34 725.82 713.98 725.53C714.63 725.23 715.28 724.96 715.95 724.71C716.61 724.47 717.29 724.25 717.97 724.06C719.23 723.66 720.5 723.29 721.77 722.96C723.05 722.63 724.33 722.33 725.62 722.06C726.91 721.79 728.21 721.55 729.51 721.35C730.81 721.15 732.12 720.98 733.43 720.85C733.95 720.82 734.46 720.78 734.98 720.72C735.49 720.67 736 720.59 736.51 720.5C737.02 720.41 737.52 720.31 738.03 720.18C738.53 720.06 739.03 719.92 739.52 719.76C740.01 719.6 740.49 719.38 740.93 719.12C741.37 718.85 741.78 718.53 742.15 718.16C742.52 717.8 742.85 717.4 743.13 716.96C743.41 716.52 743.64 716.05 743.81 715.56C744.55 712.91 743.02 710.21 741.56 707.88C739.73 704.99 737.8 701.94 735.08 699.8C731.1 696.69 729.14 699.08 725.14 701.07C723.25 702.01 721.33 702.88 719.38 703.67C717.42 704.47 715.44 705.19 713.43 705.84C711.43 706.48 709.39 707.05 707.34 707.54C705.29 708.03 703.23 708.45 701.14 708.79L701.14 708.79Z" />
	<path id="Layer" class="shp4" d="M690.63 712.44L665.08 704.82C664.31 704.56 663.54 704.31 662.76 704.1C661.98 703.89 661.19 703.71 660.39 703.55C659.6 703.39 658.8 703.27 657.99 703.17C657.19 703.07 656.38 703 655.57 702.97C652.33 702.97 648.94 704.04 646.84 706.53C644.86 708.87 644.29 712.08 643.8 715.12L642.74 721.62C642.56 722.44 642.42 723.27 642.31 724.1C642.19 724.93 642.11 725.76 642.06 726.59C642.01 727.43 642 728.27 642.01 729.1C642.03 729.94 642.07 730.78 642.15 731.61C642.63 734.93 644.31 738.24 647.22 739.84C650.76 741.79 655.09 740.84 659.04 740.02C661.03 739.61 663.03 739.25 665.04 738.93C667.05 738.62 669.06 738.35 671.08 738.13C673.1 737.92 675.13 737.74 677.16 737.62C679.19 737.5 681.22 737.43 683.25 737.4C686.31 737.37 689.52 737.41 692.22 735.96C695.43 734.24 697.35 730.61 697.68 726.96C698.19 721.4 696.35 714.15 690.63 712.44Z" />
	<path id="Layer" class="shp4" d="M778.05 705.8C781.36 705.22 784.29 703.32 787.46 702.2C791.93 700.62 796.77 700.62 801.5 700.64C803.24 700.64 805.09 700.68 806.53 701.66C808.62 703.06 809.15 705.86 809.51 708.36L811.65 723.45C812.05 726.28 812.45 729.2 811.82 731.99C811.19 734.79 809.3 737.49 806.55 738.21C803.21 739.08 799.94 736.93 796.78 735.52C788.9 731.98 779.73 732.89 771.51 730.24C769.99 729.75 768.35 729 767.73 727.52C767.66 727.31 767.6 727.09 767.55 726.88C767.51 726.66 767.47 726.45 767.45 726.23C767.42 726.01 767.41 725.79 767.41 725.57C767.4 725.35 767.41 725.13 767.44 724.91C767.58 720.06 766.56 713.44 768.01 708.8C769.31 704.63 774.35 705.8 778.05 705.8Z" />
	<path id="Layer" class="shp4" d="M832.12 633.31C833.39 632.98 834.68 632.72 835.97 632.51C837.27 632.31 838.57 632.16 839.88 632.07C841.19 631.98 842.51 631.94 843.82 631.97C845.13 632 846.44 632.08 847.75 632.23C851.93 632.69 856.23 633.87 859.28 636.78C862.99 640.33 864.19 645.82 864.29 650.98C864.33 653.53 864.15 656.07 863.76 658.58C863.37 661.09 862.76 663.57 861.95 665.98C861.14 668.39 860.12 670.72 858.91 672.96C857.7 675.19 856.3 677.32 854.73 679.32C854.34 679.83 853.94 680.32 853.51 680.79C853.09 681.27 852.65 681.73 852.19 682.18C851.73 682.62 851.26 683.05 850.77 683.46C850.28 683.86 849.78 684.25 849.26 684.63C848.7 684.98 848.13 685.31 847.56 685.64C846.98 685.96 846.39 686.26 845.8 686.55C845.21 686.84 844.6 687.11 844 687.37C843.39 687.62 842.77 687.86 842.15 688.08L786.95 710.04C772.42 715.82 757.85 721.62 742.7 725.43C742.29 725.63 741.83 725.74 741.37 725.77C740.91 725.79 740.45 725.72 740.02 725.56C739.59 725.4 739.19 725.16 738.85 724.84C738.52 724.53 738.25 724.15 738.06 723.73C736.85 721.99 735.69 720.21 734.58 718.41C733.47 716.6 732.41 714.76 731.4 712.9C730.39 711.04 729.43 709.14 728.52 707.23C727.61 705.31 726.76 703.37 725.96 701.41C725.89 701.28 725.83 701.15 725.79 701.01C725.74 700.87 725.71 700.73 725.7 700.59C725.69 700.44 725.69 700.3 725.71 700.15C725.73 700.01 725.76 699.87 725.81 699.73C725.86 699.66 725.91 699.59 725.97 699.52C726.03 699.45 726.1 699.39 726.16 699.33C726.23 699.27 726.31 699.21 726.38 699.16C726.46 699.12 726.54 699.07 726.62 699.03L765.67 676.4C766.38 676.03 767.09 675.63 767.78 675.21C768.47 674.79 769.15 674.35 769.81 673.89C770.47 673.43 771.12 672.94 771.76 672.44C772.39 671.94 773.01 671.42 773.61 670.88C774.04 670.47 774.44 670.04 774.82 669.59C775.2 669.14 775.57 668.68 775.91 668.2C776.25 667.72 776.57 667.22 776.87 666.72C777.17 666.21 777.44 665.69 777.69 665.15C778.5 663.45 778.58 659.42 779.61 658.16C780.62 656.93 784.09 656.83 785.69 656.34C786.25 656.17 786.81 655.99 787.37 655.8C787.93 655.6 788.48 655.4 789.03 655.19C789.58 654.98 790.13 654.76 790.68 654.53C791.22 654.31 791.76 654.07 792.3 653.82C801.03 649.88 808.81 644.16 817.18 639.54C818.36 638.87 819.55 638.23 820.76 637.63C821.97 637.03 823.2 636.47 824.45 635.95C825.7 635.43 826.96 634.94 828.24 634.5C829.52 634.06 830.81 633.66 832.12 633.31L832.12 633.31Z" />
	<path id="Layer" class="shp5" d="M809.98 650.2C803.27 655.29 794.59 659.96 787.94 665.17C785.67 666.95 747.84 688.4 747.31 691.25C753.51 692.31 793.02 664.43 798.68 661.64C804.33 658.86 809.34 654.94 814.31 651.04C815.57 650.05 820.94 647.07 817.3 645.96C815.26 645.34 811.49 649.19 809.98 650.2Z" />
	<path id="Layer" class="shp1" d="M742.79 494.39C721.78 494.39 704.79 477.4 704.79 456.39C704.79 435.38 721.78 418.39 742.79 418.39C763.81 418.39 780.79 435.38 780.79 456.39C780.79 477.4 763.81 494.39 742.79 494.39Z" />
	<path id="Layer" class="shp1" d="M758.79 488.39C758.79 488.39 752.79 503.39 763.79 509.39C774.79 515.39 729.79 563.39 729.79 563.39L709.79 505.39C709.79 505.39 726.79 499.39 723.79 483.39L758.79 488.39Z" />
	<path id="Layer" class="shp2" d="M733.79 529.39L758.01 502.65L790.79 519.39L785.79 637.39L777.79 646.39C777.79 646.39 743.79 676.39 691.79 651.39C691.79 651.39 673.79 636.39 674.79 613.39C675.79 590.39 672.79 587.39 672.79 587.39L671.79 506.39L721.17 496.7L733.79 529.39Z" />
	<path id="Layer" class="shp1" d="M622.75 656.63L616.57 675.65C616.57 675.65 586.84 706.37 597.59 714.7C608.35 723.03 632.48 679.13 632.48 679.13L636.92 657.66L622.75 656.63Z" />
	<path id="Layer" class="shp2" d="M679.79 509.39L670.79 506.39C670.79 506.39 656.79 510.39 654.79 524.39C652.79 538.39 637.79 609.39 637.79 609.39C637.79 609.39 631.79 612.39 635.79 617.39C639.79 622.39 615.79 667.39 615.79 667.39L634.79 676.39C634.79 676.39 672.79 636.39 672.79 632.39C672.79 628.39 671.79 624.39 671.79 620.39C671.79 616.39 672.79 616.39 671.79 613.39C671.63 612.74 671.48 612.08 671.36 611.42C671.23 610.76 671.13 610.09 671.04 609.42C670.96 608.75 670.9 608.08 670.86 607.41C670.81 606.74 670.79 606.06 670.79 605.39L677.79 589.39L679.79 509.39Z" />
	<path id="Layer" class="shp4" d="M784.92 422.82L753.51 406.22L710.12 413.01L701.14 453L723.49 452.14L729.73 437.45L729.73 451.89L740.04 451.5L746.03 428.11L749.77 453L786.42 452.25L784.92 422.82L784.92 422.82Z" />
	<path id="Layer" class="shp6" d="M562.2 680.08L562.2 737.76L386.02 737.76C386.03 730.19 387.52 722.69 390.42 715.69C393.31 708.69 397.56 702.33 402.92 696.98C408.28 691.62 414.63 687.37 421.63 684.47C428.63 681.57 436.13 680.08 443.7 680.08C460.22 674.93 479.32 673.29 500.04 673.83C519.59 674.33 540.58 676.78 562.2 680.08Z" />
	<path id="Layer" class="shp0" d="M537.04 725.18L619.88 725.18C620.57 725.18 621.25 725.31 621.89 725.58C622.53 725.84 623.11 726.23 623.59 726.71C624.08 727.2 624.47 727.78 624.73 728.41C624.99 729.05 625.13 729.73 625.13 730.42L625.13 730.42C625.13 731.11 624.99 731.79 624.73 732.43C624.47 733.06 624.08 733.64 623.59 734.13C623.11 734.62 622.53 735 621.89 735.27C621.25 735.53 620.57 735.66 619.88 735.66L537.04 735.66L537.04 725.18C231 41 231 41 231 41L231 41L231 41L231 41L537.04 725.18Z" />
	<path id="Layer" class="shp0" d="M551.39 630.72L573.59 603.8C574.1 602.73 574.93 601.85 575.96 601.26C576.98 600.67 578.17 600.41 579.35 600.51C580.53 600.61 581.65 601.07 582.56 601.82C583.47 602.58 584.13 603.59 584.46 604.73L593.21 635.65L551.39 630.72Z" />
	<path id="Layer" class="shp6" d="M524.45 644.43L532.84 610.56C532.84 609.37 533.2 608.22 533.88 607.24C534.55 606.27 535.5 605.52 536.61 605.1C537.72 604.68 538.93 604.61 540.07 604.9C541.22 605.18 542.26 605.81 543.04 606.7L564.3 630.79L524.45 644.43Z" />
	<path id="Layer" class="shp6" d="M386.02 737.76L402.8 737.76L402.8 773.42C402.8 775.62 402.37 777.8 401.53 779.84C400.68 781.87 399.45 783.72 397.89 785.28C396.33 786.84 394.48 788.08 392.45 788.92C390.41 789.76 388.23 790.2 386.02 790.2L386.02 790.2L386.02 737.76C231 41 231 41 231 41L231 41L231 41L231 41L386.02 737.76Z" />
	<path id="Layer" class="shp6" d="M533.89 727.27L616.74 727.27C617.43 727.27 618.11 727.41 618.74 727.67C619.38 727.94 619.96 728.32 620.45 728.81C620.93 729.3 621.32 729.88 621.58 730.51C621.85 731.15 621.98 731.83 621.98 732.52L621.98 732.52C621.98 733.21 621.85 733.89 621.58 734.53C621.32 735.16 620.93 735.74 620.45 736.23C619.96 736.71 619.38 737.1 618.74 737.36C618.11 737.63 617.43 737.76 616.74 737.76L533.89 737.76L533.89 727.27Z" />
	<path id="Layer" class="shp7" d="M562.2 680.08L562.2 737.44C553.69 738.34 545.09 737.31 537.03 734.41C528.98 731.51 521.69 726.82 515.71 720.7C509.72 714.58 505.21 707.18 502.49 699.06C499.78 690.95 498.94 682.32 500.04 673.83C519.59 674.33 540.58 676.78 562.2 680.08Z" />
	<path id="Layer" class="shp6" d="M562.21 737.76C530.89 737.76 505.58 712.45 505.58 681.13C505.58 649.82 530.89 624.5 562.21 624.5C593.52 624.5 618.84 649.82 618.84 681.13C618.84 712.45 593.52 737.76 562.21 737.76Z" />
	<path id="Layer" class="shp0" d="M616.74 700.01C613.26 700.01 610.45 693.45 610.45 685.33C610.45 677.21 613.26 670.65 616.74 670.65C620.22 670.65 623.03 677.21 623.03 685.33C623.03 693.45 620.22 700.01 616.74 700.01Z" />
	<path id="Layer" class="shp0" d="M601.53 673.79C600.66 673.79 599.96 672.15 599.96 670.12C599.96 668.09 600.66 666.45 601.53 666.45C602.4 666.45 603.11 668.09 603.11 670.12C603.11 672.15 602.4 673.79 601.53 673.79Z" />
	<path id="Layer" class="shp0" d="M613.07 666.45C612.2 666.45 611.49 664.81 611.49 662.78C611.49 660.75 612.2 659.11 613.07 659.11C613.94 659.11 614.64 660.75 614.64 662.78C614.64 664.81 613.94 666.45 613.07 666.45Z" />
	<path id="Layer" class="shp0" d="M557.45 623.87C557.45 623.87 554.31 618.4 554.31 615.06" />
	<path id="Layer" class="shp0" d="M558.84 620.33C558.84 620.33 560.55 614.25 562.94 611.92" />
</svg>