<svg version="1.2" baseProfile="tiny-ps" xmlns="http://www.w3.org/2000/svg" viewBox="0 0 1222 815" width="1222" height="815">
	<title>medianoche-svg</title>
	<defs>
		<linearGradient id="grd1" gradientUnits="userSpaceOnUse"  x1="610.89" y1="651.37" x2="610.89" y2="33">
			<stop offset="0.2" stop-color="#808080" stop-opacity="0.4" />
			<stop offset="0.46" stop-color="#808080" stop-opacity="0.5" />
			<stop offset="1" stop-color="#000000" stop-opacity="0.6" />
		</linearGradient>
		<linearGradient id="grd2" gradientUnits="userSpaceOnUse"  x1="608.24" y1="740.8" x2="608.24" y2="180.37">
			<stop offset="0" stop-color="#808080" stop-opacity="0.25" />
			<stop offset="0.54" stop-color="#808080" stop-opacity="0.12" />
			<stop offset="1" stop-color="#808080" stop-opacity="0.1" />
		</linearGradient>
	</defs>
	<style>
		tspan { white-space:pre }
		.shp0 { fill: #3f3d56 } 
		.shp1 { fill: #b3018a } 
		.shp2 { fill: url(#grd1) } 
		.shp3 { fill: #e7effd } 
		.shp4 { opacity: 0.302;fill: #000000 } 
		.shp5 { opacity: 0.4;fill: #000000 } 
		.shp6 { fill: url(#grd2) } 
		.shp7 { fill: #65617d } 
		.shp8 { opacity: 0.102;fill: #000000 } 
		.shp9 { fill: #fbbebe } 
		.shp10 { fill: #000000 } 
		.shp11 { fill: #d4dfec } 
	</style>
	<path id="Layer" class="shp0" d="M1162.75 573.58C1162.75 617.95 918.51 781.34 613.48 781.34C308.45 781.34 68.34 607.22 68.34 562.85C68.34 518.48 308.45 620.64 613.48 620.64C918.51 620.64 1162.75 529.17 1162.75 573.58Z" />
	<path id="Layer" class="shp1" d="M1165.78 555.87C1165.78 556.46 1165.78 557.05 1165.78 557.65C1165.11 576.09 1154.84 594.43 1136.1 607.38C1116.22 621.1 1089.56 628.32 1062.19 632.93C1057.91 633.65 1053.61 634.3 1049.32 634.93C1047.13 635.23 1044.95 635.53 1042.78 635.81C981.85 643.81 919.64 645.34 857.72 646.81C792.95 648.41 728.12 649.99 663.28 650.81L650.42 650.96C552.04 652.02 453.7 651.13 355.68 645.55C325.26 643.83 294.54 641.55 264.38 637.71C260.08 637.18 255.79 636.61 251.52 635.98C211.52 630.25 172.71 621.46 137.35 607.19C135.26 606.36 133.19 605.5 131.12 604.61C129.06 603.72 127.01 602.81 124.97 601.86C122.93 600.92 120.9 599.95 118.89 598.96C116.88 597.96 114.88 596.94 112.89 595.89C90.68 584.1 71.95 569.19 62.68 550.89C61.34 548.22 60.19 545.47 59.24 542.64C58.29 539.81 57.54 536.92 57 533.99C56.46 531.05 56.13 528.08 56.01 525.1C55.89 522.12 55.98 519.14 56.28 516.17C56.38 515.08 56.5 514 56.64 512.92C56.79 511.84 56.95 510.76 57.14 509.69C57.32 508.62 57.53 507.55 57.76 506.48C57.99 505.42 58.24 504.36 58.51 503.3C59.21 500.69 59.99 498.11 60.87 495.56C61.75 493 62.72 490.48 63.77 488C64.83 485.51 65.97 483.07 67.2 480.66C68.43 478.26 69.74 475.9 71.14 473.59C85.58 449.17 107.27 427.28 125.97 404.35C165.89 355.48 191.89 293.73 155.05 243.64C144.48 229.25 129.2 216.64 120.59 201.59C119.44 199.56 118.4 197.48 117.47 195.35C116.53 193.21 115.71 191.03 115 188.82C114.29 186.6 113.7 184.35 113.22 182.07C112.75 179.79 112.39 177.49 112.15 175.17C112.03 174.1 111.93 173.03 111.85 171.96C111.77 170.89 111.71 169.82 111.67 168.74C111.62 167.67 111.6 166.6 111.59 165.52C111.58 164.45 111.59 163.37 111.62 162.3C111.72 159.79 111.88 157.29 112.08 154.79C112.29 152.29 112.55 149.79 112.87 147.3C113.18 144.81 113.54 142.33 113.96 139.85C114.38 137.38 114.85 134.91 115.37 132.46C121.37 101.74 132.58 68.62 167.2 49.46C190.83 36.38 220.95 32.32 251.49 33.09C255.78 33.19 260.06 33.39 264.35 33.69C276.06 34.46 287.7 35.88 298.94 37.69C368.38 48.78 432.47 71.95 497.17 92.87C546.43 108.79 597.45 123.68 650.39 130.78C654.67 131.35 658.95 131.88 663.25 132.34C675.66 133.7 688.18 134.6 700.8 134.97C763.61 136.77 836.89 123.17 878.6 87.85C918.89 53.71 994.45 50.96 1049.29 71.35L1050.11 71.66C1054.24 73.23 1058.24 74.93 1062.11 76.74C1102.52 95.74 1129.59 128.28 1133.41 162.33C1133.53 163.39 1133.63 164.45 1133.7 165.51C1133.77 166.57 1133.83 167.63 1133.85 168.69C1133.88 169.76 1133.89 170.82 1133.87 171.88C1133.85 172.95 1133.81 174.01 1133.75 175.07C1133.75 175.08 1133.75 175.09 1133.75 175.1C1133.75 175.11 1133.75 175.12 1133.75 175.14C1133.75 175.15 1133.75 175.16 1133.75 175.17C1133.75 175.18 1133.75 175.19 1133.75 175.2C1131.13 217.09 1096.89 252.27 1062.12 287.51C1057.82 291.86 1053.51 296.21 1049.25 300.59C1037.97 312.17 1027.04 323.84 1017.56 335.85C1016.48 337.21 1015.42 338.59 1014.38 339.98C1013.34 341.38 1012.32 342.79 1011.33 344.21C1010.34 345.64 1009.36 347.08 1008.42 348.54C1007.47 349.99 1006.54 351.46 1005.64 352.95C1004.81 354.32 1004.01 355.71 1003.24 357.11C1002.47 358.52 1001.74 359.94 1001.03 361.38C1000.32 362.81 999.65 364.26 999 365.73C998.36 367.2 997.75 368.68 997.17 370.17C996.56 371.71 996 373.28 995.5 374.86C995 376.44 994.55 378.04 994.16 379.66C993.77 381.27 993.44 382.9 993.16 384.53C992.88 386.17 992.66 387.82 992.5 389.47C992.26 391.83 992.18 394.2 992.27 396.57C992.36 398.93 992.62 401.29 993.04 403.62C993.47 405.96 994.05 408.25 994.8 410.5C995.54 412.75 996.45 414.95 997.5 417.07L997.59 417.27C1006.87 435.67 1026.51 448.71 1049.25 460.27C1053.44 462.41 1057.75 464.49 1062.12 466.55C1086.78 478.19 1113.35 489 1133.55 503.37C1134.91 504.32 1136.25 505.29 1137.56 506.3C1138.88 507.31 1140.17 508.35 1141.44 509.42C1142.7 510.49 1143.95 511.58 1145.16 512.71C1146.38 513.83 1147.57 514.99 1148.73 516.17C1149.2 516.66 1149.67 517.16 1150.13 517.66C1150.59 518.16 1151.04 518.67 1151.49 519.18C1151.94 519.7 1152.38 520.22 1152.81 520.74C1153.24 521.27 1153.67 521.8 1154.09 522.34C1155.92 524.65 1157.56 527.11 1158.98 529.68C1160.41 532.26 1161.63 534.95 1162.62 537.72C1163.61 540.5 1164.38 543.35 1164.9 546.25C1165.43 549.15 1165.72 552.08 1165.77 555.03C1165.78 555.33 1165.78 555.6 1165.78 555.87Z" />
	<path id="Layer" class="shp2" d="M1165.78 555.87C1165.78 556.46 1165.78 557.05 1165.78 557.65C1165.11 576.09 1154.84 594.43 1136.1 607.38C1116.22 621.1 1089.56 628.32 1062.19 632.93C1057.91 633.65 1053.61 634.3 1049.32 634.93C1047.13 635.23 1044.95 635.53 1042.78 635.81C981.85 643.81 919.64 645.34 857.72 646.81C792.95 648.41 728.12 649.99 663.28 650.81L650.42 650.96C552.04 652.02 453.7 651.13 355.68 645.55C325.26 643.83 294.54 641.55 264.38 637.71C260.08 637.18 255.79 636.61 251.52 635.98C211.52 630.25 172.71 621.46 137.35 607.19C135.26 606.36 133.19 605.5 131.12 604.61C129.06 603.72 127.01 602.81 124.97 601.86C122.93 600.92 120.9 599.95 118.89 598.96C116.88 597.96 114.88 596.94 112.89 595.89C90.68 584.1 71.95 569.19 62.68 550.89C61.34 548.22 60.19 545.47 59.24 542.64C58.29 539.81 57.54 536.92 57 533.99C56.46 531.05 56.13 528.08 56.01 525.1C55.89 522.12 55.98 519.14 56.28 516.17C56.38 515.08 56.5 514 56.64 512.92C56.79 511.84 56.95 510.76 57.14 509.69C57.32 508.62 57.53 507.55 57.76 506.48C57.99 505.42 58.24 504.36 58.51 503.3C59.21 500.69 59.99 498.11 60.87 495.56C61.75 493 62.72 490.48 63.77 488C64.83 485.51 65.97 483.07 67.2 480.66C68.43 478.26 69.74 475.9 71.14 473.59C85.58 449.17 107.27 427.28 125.97 404.35C165.89 355.48 191.89 293.73 155.05 243.64C144.48 229.25 129.2 216.64 120.59 201.59C119.44 199.56 118.4 197.48 117.47 195.35C116.53 193.21 115.71 191.03 115 188.82C114.29 186.6 113.7 184.35 113.22 182.07C112.75 179.79 112.39 177.49 112.15 175.17C112.03 174.1 111.93 173.03 111.85 171.96C111.77 170.89 111.71 169.82 111.67 168.74C111.62 167.67 111.6 166.6 111.59 165.52C111.58 164.45 111.59 163.37 111.62 162.3C111.72 159.79 111.88 157.29 112.08 154.79C112.29 152.29 112.55 149.79 112.87 147.3C113.18 144.81 113.54 142.33 113.96 139.85C114.38 137.38 114.85 134.91 115.37 132.46C121.37 101.74 132.58 68.62 167.2 49.46C190.83 36.38 220.95 32.32 251.49 33.09C255.78 33.19 260.06 33.39 264.35 33.69C276.06 34.46 287.7 35.88 298.94 37.69C368.38 48.78 432.47 71.95 497.17 92.87C546.43 108.79 597.45 123.68 650.39 130.78C654.67 131.35 658.95 131.88 663.25 132.34C675.66 133.7 688.18 134.6 700.8 134.97C763.61 136.77 836.89 123.17 878.6 87.85C918.89 53.71 994.45 50.96 1049.29 71.35L1050.11 71.66C1054.24 73.23 1058.24 74.93 1062.11 76.74C1102.52 95.74 1129.59 128.28 1133.41 162.33C1133.53 163.39 1133.63 164.45 1133.7 165.51C1133.77 166.57 1133.83 167.63 1133.85 168.69C1133.88 169.76 1133.89 170.82 1133.87 171.88C1133.85 172.95 1133.81 174.01 1133.75 175.07C1133.75 175.08 1133.75 175.09 1133.75 175.1C1133.75 175.11 1133.75 175.12 1133.75 175.14C1133.75 175.15 1133.75 175.16 1133.75 175.17C1133.75 175.18 1133.75 175.19 1133.75 175.2C1131.13 217.09 1096.89 252.27 1062.12 287.51C1057.82 291.86 1053.51 296.21 1049.25 300.59C1037.97 312.17 1027.04 323.84 1017.56 335.85C1016.48 337.21 1015.42 338.59 1014.38 339.98C1013.34 341.38 1012.32 342.79 1011.33 344.21C1010.34 345.64 1009.36 347.08 1008.42 348.54C1007.47 349.99 1006.54 351.46 1005.64 352.95C1004.81 354.32 1004.01 355.71 1003.24 357.11C1002.47 358.52 1001.74 359.94 1001.03 361.38C1000.32 362.81 999.65 364.26 999 365.73C998.36 367.2 997.75 368.68 997.17 370.17C996.56 371.71 996 373.28 995.5 374.86C995 376.44 994.55 378.04 994.16 379.66C993.77 381.27 993.44 382.9 993.16 384.53C992.88 386.17 992.66 387.82 992.5 389.47C992.26 391.83 992.18 394.2 992.27 396.57C992.36 398.93 992.62 401.29 993.04 403.62C993.47 405.96 994.05 408.25 994.8 410.5C995.54 412.75 996.45 414.95 997.5 417.07L997.59 417.27C1006.87 435.67 1026.51 448.71 1049.25 460.27C1053.44 462.41 1057.75 464.49 1062.12 466.55C1086.78 478.19 1113.35 489 1133.55 503.37C1134.91 504.32 1136.25 505.29 1137.56 506.3C1138.88 507.31 1140.17 508.35 1141.44 509.42C1142.7 510.49 1143.95 511.58 1145.16 512.71C1146.38 513.83 1147.57 514.99 1148.73 516.17C1149.2 516.66 1149.67 517.16 1150.13 517.66C1150.59 518.16 1151.04 518.67 1151.49 519.18C1151.94 519.7 1152.38 520.22 1152.81 520.74C1153.24 521.27 1153.67 521.8 1154.09 522.34C1155.92 524.65 1157.56 527.11 1158.98 529.68C1160.41 532.26 1161.63 534.95 1162.62 537.72C1163.61 540.5 1164.38 543.35 1164.9 546.25C1165.43 549.15 1165.72 552.08 1165.77 555.03C1165.78 555.33 1165.78 555.6 1165.78 555.87Z" />
	<path id="Layer" class="shp0" d="M1062.16 76.74L1062.16 287.5C1057.86 291.86 1053.55 296.21 1049.29 300.59L1049.29 71.35L1062.16 76.74Z" />
	<path id="Layer" class="shp0" d="M1133.8 175.07C1133.8 175.08 1133.8 175.09 1133.8 175.1C1133.8 175.11 1133.8 175.12 1133.8 175.13C1133.8 175.15 1133.8 175.16 1133.8 175.17C1133.8 175.18 1133.8 175.19 1133.8 175.2L112.15 175.2C112.03 174.13 111.93 173.06 111.85 171.99C111.77 170.92 111.71 169.85 111.67 168.77C111.62 167.7 111.6 166.63 111.59 165.55C111.58 164.48 111.59 163.4 111.62 162.33L1133.46 162.33C1133.58 163.39 1133.68 164.45 1133.75 165.51C1133.82 166.57 1133.88 167.63 1133.9 168.69C1133.93 169.76 1133.94 170.82 1133.92 171.88C1133.9 172.95 1133.86 174.01 1133.8 175.07Z" />
	<path id="Layer" class="shp3" d="M297.32 108.56C295.25 108.56 293.57 106.88 293.57 104.81C293.57 102.74 295.25 101.06 297.32 101.06C299.39 101.06 301.07 102.74 301.07 104.81C301.07 106.88 299.39 108.56 297.32 108.56Z" />
	<path id="Layer" class="shp3" d="M177.22 101.05C175.15 101.05 173.47 99.37 173.47 97.3C173.47 95.23 175.15 93.55 177.22 93.55C179.29 93.55 180.97 95.23 180.97 97.3C180.97 99.37 179.29 101.05 177.22 101.05Z" />
	<path id="Layer" class="shp3" d="M339.68 106.42C338.79 106.42 338.07 105.7 338.07 104.81C338.07 103.92 338.79 103.2 339.68 103.2C340.57 103.2 341.29 103.92 341.29 104.81C341.29 105.7 340.57 106.42 339.68 106.42Z" />
	<path id="Layer" class="shp3" d="M219.04 102.67C218.15 102.67 217.43 101.95 217.43 101.06C217.43 100.17 218.15 99.45 219.04 99.45C219.93 99.45 220.65 100.17 220.65 101.06C220.65 101.95 219.93 102.67 219.04 102.67Z" />
	<path id="Layer" class="shp3" d="M217.44 215.12C216.55 215.12 215.83 214.4 215.83 213.51C215.83 212.62 216.55 211.9 217.44 211.9C218.33 211.9 219.05 212.62 219.05 213.51C219.05 214.4 218.33 215.12 217.44 215.12Z" />
	<path id="Layer" class="shp3" d="M960.01 130.14C959.12 130.14 958.4 129.42 958.4 128.53C958.4 127.64 959.12 126.92 960.01 126.92C960.9 126.92 961.62 127.64 961.62 128.53C961.62 129.42 960.9 130.14 960.01 130.14Z" />
	<path id="Layer" class="shp3" d="M414.74 131.62C413.85 131.62 413.13 130.9 413.13 130.01C413.13 129.12 413.85 128.4 414.74 128.4C415.63 128.4 416.35 129.12 416.35 130.01C416.35 130.9 415.63 131.62 414.74 131.62Z" />
	<path id="Layer" class="shp3" d="M880.66 128.4C879.77 128.4 879.05 127.68 879.05 126.79C879.05 125.9 879.77 125.18 880.66 125.18C881.55 125.18 882.27 125.9 882.27 126.79C882.27 127.68 881.55 128.4 880.66 128.4Z" />
	<path id="Layer" class="shp3" d="M1083.33 133.23C1082.44 133.23 1081.72 132.51 1081.72 131.62C1081.72 130.73 1082.44 130.01 1083.33 130.01C1084.22 130.01 1084.94 130.73 1084.94 131.62C1084.94 132.51 1084.22 133.23 1083.33 133.23Z" />
	<path id="Layer" class="shp1" d="M1165.78 555.87C1165.78 556.46 1165.78 557.05 1165.78 557.65C1165.27 576.23 1154.98 594.76 1136.1 607.8C1116.22 621.52 1089.56 628.74 1062.19 633.35C1057.91 634.07 1053.61 634.72 1049.32 635.35C1047.13 635.65 1044.95 635.95 1042.78 636.23C1027.78 638.23 1012.7 639.76 997.57 641.04C977.27 642.76 956.87 643.95 936.45 644.83C910.23 645.98 883.96 646.63 857.72 647.28C806.43 648.54 755.1 649.8 703.72 650.67L685.49 650.97L663.25 651.27L650.39 651.42C569.39 652.28 488.51 651.84 407.77 648.54C402.4 648.33 397.03 648.09 391.68 647.84C379.68 647.31 367.68 646.7 355.68 646.01C331.63 644.65 307.39 642.93 283.41 640.38C277.05 639.71 270.72 638.98 264.41 638.17C260.11 637.64 255.82 637.07 251.55 636.44C246.79 635.77 242.05 635.05 237.33 634.26C202.33 628.54 168.54 620.26 137.38 607.64C135.29 606.8 133.21 605.94 131.15 605.05C129.08 604.16 127.03 603.24 124.99 602.29C122.95 601.35 120.92 600.38 118.9 599.38C116.88 598.38 114.88 597.36 112.89 596.31L112.89 420.31C117.33 415.16 121.74 410.01 125.98 404.8C131.08 398.54 135.98 392.09 140.48 385.47L237.28 385.47L237.28 325.82L407.78 325.82L407.78 456.96L685.49 456.96L685.49 352.96L1005.89 352.96C1005.08 354.29 1004.29 355.63 1003.53 356.99C1002.78 358.35 1002.05 359.72 1001.35 361.11C1000.65 362.5 999.98 363.9 999.34 365.32C998.69 366.74 998.08 368.17 997.5 369.61L997.5 370.17L997.13 370.17C996.52 371.71 995.96 373.28 995.46 374.86C994.96 376.44 994.51 378.04 994.12 379.66C993.73 381.27 993.4 382.9 993.12 384.53C992.84 386.17 992.62 387.82 992.46 389.47C992.22 391.83 992.14 394.2 992.23 396.57C992.32 398.93 992.58 401.29 993 403.62C993.43 405.96 994.01 408.25 994.76 410.5C995.5 412.75 996.41 414.95 997.46 417.07L997.46 417.49L997.55 417.69C1006.83 436.09 1026.47 449.13 1049.21 460.69C1053.4 462.83 1057.71 464.91 1062.08 466.97C1086.49 478.49 1112.79 489.21 1132.91 503.37L1133.51 503.79C1134.83 504.71 1136.14 505.66 1137.42 506.63C1138.7 507.61 1139.96 508.61 1141.19 509.65C1142.43 510.68 1143.64 511.74 1144.83 512.83C1146.02 513.92 1147.18 515.03 1148.32 516.17C1148.47 516.31 1148.6 516.45 1148.73 516.59C1149.2 517.08 1149.67 517.58 1150.13 518.08C1150.59 518.58 1151.04 519.09 1151.49 519.6C1151.94 520.12 1152.38 520.64 1152.81 521.16C1153.24 521.69 1153.67 522.22 1154.09 522.76C1155.9 525.04 1157.52 527.47 1158.93 530.01C1160.35 532.56 1161.56 535.21 1162.55 537.95C1163.54 540.68 1164.31 543.5 1164.85 546.36C1165.39 549.22 1165.7 552.12 1165.77 555.03C1165.78 555.33 1165.78 555.6 1165.78 555.87Z" />
	<path id="Layer" class="shp4" d="M1165.78 555.87C1165.78 556.46 1165.78 557.05 1165.78 557.65C1165.27 576.23 1154.98 594.76 1136.1 607.8C1116.22 621.52 1089.56 628.74 1062.19 633.35C1057.91 634.07 1053.61 634.72 1049.32 635.35C1047.13 635.65 1044.95 635.95 1042.78 636.23C1027.78 638.23 1012.7 639.76 997.57 641.04C977.27 642.76 956.87 643.95 936.45 644.83C910.23 645.98 883.96 646.63 857.72 647.28C806.43 648.54 755.1 649.8 703.72 650.67L685.49 650.97L663.25 651.27L650.39 651.42C569.39 652.28 488.51 651.84 407.77 648.54C402.4 648.33 397.03 648.09 391.68 647.84C379.68 647.31 367.68 646.7 355.68 646.01C331.63 644.65 307.39 642.93 283.41 640.38C277.05 639.71 270.72 638.98 264.41 638.17C260.11 637.64 255.82 637.07 251.55 636.44C246.79 635.77 242.05 635.05 237.33 634.26C202.33 628.54 168.54 620.26 137.38 607.64C135.29 606.8 133.21 605.94 131.15 605.05C129.08 604.16 127.03 603.24 124.99 602.29C122.95 601.35 120.92 600.38 118.9 599.38C116.88 598.38 114.88 597.36 112.89 596.31L112.89 420.31C117.33 415.16 121.74 410.01 125.98 404.8C131.08 398.54 135.98 392.09 140.48 385.47L237.28 385.47L237.28 325.82L407.78 325.82L407.78 456.96L685.49 456.96L685.49 352.96L1005.89 352.96C1005.08 354.29 1004.29 355.63 1003.53 356.99C1002.78 358.35 1002.05 359.72 1001.35 361.11C1000.65 362.5 999.98 363.9 999.34 365.32C998.69 366.74 998.08 368.17 997.5 369.61L997.5 370.17L997.13 370.17C996.52 371.71 995.96 373.28 995.46 374.86C994.96 376.44 994.51 378.04 994.12 379.66C993.73 381.27 993.4 382.9 993.12 384.53C992.84 386.17 992.62 387.82 992.46 389.47C992.22 391.83 992.14 394.2 992.23 396.57C992.32 398.93 992.58 401.29 993 403.62C993.43 405.96 994.01 408.25 994.76 410.5C995.5 412.75 996.41 414.95 997.46 417.07L997.46 417.49L997.55 417.69C1006.83 436.09 1026.47 449.13 1049.21 460.69C1053.4 462.83 1057.71 464.91 1062.08 466.97C1086.49 478.49 1112.79 489.21 1132.91 503.37L1133.51 503.79C1134.83 504.71 1136.14 505.66 1137.42 506.63C1138.7 507.61 1139.96 508.61 1141.19 509.65C1142.43 510.68 1143.64 511.74 1144.83 512.83C1146.02 513.92 1147.18 515.03 1148.32 516.17C1148.47 516.31 1148.6 516.45 1148.73 516.59C1149.2 517.08 1149.67 517.58 1150.13 518.08C1150.59 518.58 1151.04 519.09 1151.49 519.6C1151.94 520.12 1152.38 520.64 1152.81 521.16C1153.24 521.69 1153.67 522.22 1154.09 522.76C1155.9 525.04 1157.52 527.47 1158.93 530.01C1160.35 532.56 1161.56 535.21 1162.55 537.95C1163.54 540.68 1164.31 543.5 1164.85 546.36C1165.39 549.22 1165.7 552.12 1165.77 555.03C1165.78 555.33 1165.78 555.6 1165.78 555.87Z" />
	<path id="Layer" class="shp5" d="M144.69 409.79L173.29 409.79L173.29 429.09L144.69 429.09L144.69 409.79Z" />
	<path id="Layer" class="shp5" d="M190.45 409.79L219.05 409.79L219.05 429.09L190.45 429.09L190.45 409.79Z" />
	<path id="Layer" class="shp5" d="M715.88 370.12L744.48 370.12L744.48 389.42L715.88 389.42L715.88 370.12Z" />
	<path id="Layer" class="shp5" d="M793.09 370.12L821.69 370.12L821.69 389.42L793.09 389.42L793.09 370.12Z" />
	<path id="Layer" class="shp5" d="M876.01 370.12L904.61 370.12L904.61 389.42L876.01 389.42L876.01 370.12Z" />
	<path id="Layer" class="shp5" d="M715.88 429.1L744.48 429.1L744.48 448.4L715.88 448.4L715.88 429.1Z" />
	<path id="Layer" class="shp5" d="M793.09 429.1L821.69 429.1L821.69 448.4L793.09 448.4L793.09 429.1Z" />
	<path id="Layer" class="shp1" d="M876.01 429.1L904.61 429.1L904.61 448.4L876.01 448.4L876.01 429.1Z" />
	<path id="Layer" class="shp5" d="M715.88 488.07L744.48 488.07L744.48 507.37L715.88 507.37L715.88 488.07Z" />
	<path id="Layer" class="shp5" d="M793.09 488.07L821.69 488.07L821.69 507.37L793.09 507.37L793.09 488.07Z" />
	<path id="Layer" class="shp5" d="M876.01 488.07L904.61 488.07L904.61 507.37L876.01 507.37L876.01 488.07Z" />
	<path id="Layer" class="shp5" d="M715.88 547.05L744.48 547.05L744.48 566.35L715.88 566.35L715.88 547.05Z" />
	<path id="Layer" class="shp5" d="M793.09 547.05L821.69 547.05L821.69 566.35L793.09 566.35L793.09 547.05Z" />
	<path id="Layer" class="shp5" d="M876.01 547.05L904.61 547.05L904.61 566.35L876.01 566.35L876.01 547.05Z" />
	<path id="Layer" class="shp5" d="M715.88 606.03L744.48 606.03L744.48 625.33L715.88 625.33L715.88 606.03Z" />
	<path id="Layer" class="shp5" d="M793.09 606.03L821.69 606.03L821.69 625.33L793.09 625.33L793.09 606.03Z" />
	<path id="Layer" class="shp5" d="M876.01 606.03L904.61 606.03L904.61 625.33L876.01 625.33L876.01 606.03Z" />
	<path id="Layer" class="shp5" d="M997.17 370.17C996.56 371.71 996 373.28 995.5 374.86C995 376.44 994.55 378.04 994.16 379.66C993.77 381.27 993.44 382.9 993.16 384.53C992.88 386.17 992.66 387.82 992.5 389.47L976.81 389.47L976.81 370.17L997.17 370.17Z" />
	<path id="Layer" class="shp1" d="M976.81 429.1L1005.41 429.1L1005.41 448.4L976.81 448.4L976.81 429.1Z" />
	<path id="Layer" class="shp5" d="M976.81 488.07L1005.41 488.07L1005.41 507.37L976.81 507.37L976.81 488.07Z" />
	<path id="Layer" class="shp5" d="M976.81 547.05L1005.41 547.05L1005.41 566.35L976.81 566.35L976.81 547.05Z" />
	<path id="Layer" class="shp5" d="M976.81 606.03L1005.41 606.03L1005.41 625.33L976.81 625.33L976.81 606.03Z" />
	<path id="Layer" class="shp5" d="M303.4 347.6L332 347.6L332 366.9L303.4 366.9L303.4 347.6Z" />
	<path id="Layer" class="shp1" d="M303.4 390.87L332 390.87L332 410.17L303.4 410.17L303.4 390.87Z" />
	<path id="Layer" class="shp5" d="M303.4 434.13L332 434.13L332 453.43L303.4 453.43L303.4 434.13Z" />
	<path id="Layer" class="shp5" d="M303.4 477.4L332 477.4L332 496.7L303.4 496.7L303.4 477.4Z" />
	<path id="Layer" class="shp5" d="M303.4 520.66L332 520.66L332 539.96L303.4 539.96L303.4 520.66Z" />
	<path id="Layer" class="shp5" d="M303.4 563.93L332 563.93L332 583.23L303.4 583.23L303.4 563.93Z" />
	<path id="Layer" class="shp5" d="M303.4 607.19L332 607.19L332 626.49L303.4 626.49L303.4 607.19Z" />
	<path id="Layer" class="shp5" d="M144.69 460.23L173.29 460.23L173.29 479.53L144.69 479.53L144.69 460.23Z" />
	<path id="Layer" class="shp5" d="M190.45 460.23L219.05 460.23L219.05 479.53L190.45 479.53L190.45 460.23Z" />
	<path id="Layer" class="shp5" d="M144.69 510.67L173.29 510.67L173.29 529.97L144.69 529.97L144.69 510.67Z" />
	<path id="Layer" class="shp5" d="M190.45 510.67L219.05 510.67L219.05 529.97L190.45 529.97L190.45 510.67Z" />
	<path id="Layer" class="shp5" d="M144.69 561.11L173.29 561.11L173.29 580.41L144.69 580.41L144.69 561.11Z" />
	<path id="Layer" class="shp5" d="M190.45 561.11L219.05 561.11L219.05 580.41L190.45 580.41L190.45 561.11Z" />
	<path id="Layer" class="shp5" d="M464.96 479.45L607.94 479.45L607.94 496.7L464.96 496.7L464.96 479.45Z" />
	<path id="Layer" class="shp5" d="M464.96 534.49L607.94 534.49L607.94 551.74L464.96 551.74L464.96 534.49Z" />
	<path id="Layer" class="shp5" d="M464.96 589.54L607.94 589.54L607.94 606.79L464.96 606.79L464.96 589.54Z" />
	<path id="Layer" class="shp0" d="M264.35 33.69L264.35 637.69C260.05 637.16 255.76 636.59 251.49 635.96L251.49 33.09C255.78 33.17 260.06 33.39 264.35 33.69Z" />
	<path id="Layer" class="shp0" d="M663.25 132.32L663.25 650.83L650.39 650.98L650.39 130.75C654.67 131.33 658.96 131.85 663.25 132.32Z" />
	<path id="Layer" class="shp0" d="M1148.73 516.17L56.28 516.17C56.38 515.08 56.5 514 56.64 512.92C56.79 511.84 56.95 510.76 57.14 509.69C57.32 508.62 57.53 507.55 57.76 506.48C57.99 505.42 58.24 504.36 58.51 503.3L1133.59 503.3C1134.95 504.25 1136.29 505.23 1137.6 506.25C1138.91 507.26 1140.2 508.3 1141.46 509.38C1142.73 510.45 1143.96 511.56 1145.18 512.69C1146.39 513.82 1147.57 514.98 1148.73 516.17Z" />
	<path id="Layer" class="shp0" d="M1049.29 460.23C1053.48 462.37 1057.79 464.45 1062.16 466.51L1062.16 632.93C1057.88 633.65 1053.58 634.3 1049.29 634.93L1049.29 460.23Z" />
	<path id="Layer" class="shp3" d="M393.33 262.81L390.87 262.81L390.87 260.35L390.43 260.35L390.43 262.81L387.97 262.81L387.97 263.25L390.43 263.25L390.43 265.71L390.87 265.71L390.87 263.25L393.33 263.25L393.33 262.81L393.33 262.81Z" />
	<path id="Layer" class="shp3" d="M904.61 211.68L902.15 211.68L902.15 209.22L901.7 209.22L901.7 211.68L899.25 211.68L899.25 212.12L901.7 212.12L901.7 214.58L902.15 214.58L902.15 212.12L904.61 212.12L904.61 211.68L904.61 211.68Z" />
	<path id="Layer" class="shp3" d="M451.6 201.73L449.14 201.73L449.14 199.27L448.69 199.27L448.69 201.73L446.24 201.73L446.24 202.18L448.69 202.18L448.69 204.63L449.14 204.63L449.14 202.18L451.6 202.18L451.6 201.73L451.6 201.73Z" />
	<path id="Layer" class="shp3" d="M447.85 360.57C446.96 360.57 446.24 359.85 446.24 358.96C446.24 358.07 446.96 357.35 447.85 357.35C448.74 357.35 449.46 358.07 449.46 358.96C449.46 359.85 448.74 360.57 447.85 360.57Z" />
	<path id="Layer" class="shp3" d="M815.02 216.73C814.13 216.73 813.41 216.01 813.41 215.12C813.41 214.23 814.13 213.51 815.02 213.51C815.91 213.51 816.63 214.23 816.63 215.12C816.63 216.01 815.91 216.73 815.02 216.73Z" />
	<path id="Layer" class="shp3" d="M976.81 292.98C975.92 292.98 975.2 292.26 975.2 291.37C975.2 290.48 975.92 289.76 976.81 289.76C977.7 289.76 978.42 290.48 978.42 291.37C978.42 292.26 977.7 292.98 976.81 292.98Z" />
	<path id="Layer" class="shp3" d="M723.43 306.79C722.54 306.79 721.82 306.07 721.82 305.18C721.82 304.29 722.54 303.57 723.43 303.57C724.32 303.57 725.04 304.29 725.04 305.18C725.04 306.07 724.32 306.79 723.43 306.79Z" />
	<path id="Layer" fill-rule="evenodd" class="shp6" d="M821.38 640.06C821.38 640.06 819.24 648.39 814.95 650.89C810.66 653.39 801.72 658.29 800.3 659.89C798.88 661.49 797.39 663.02 795.83 664.49C794.28 665.96 792.66 667.37 790.99 668.7C789.31 670.03 787.58 671.28 785.8 672.46C784.01 673.65 782.18 674.75 780.3 675.77C768.5 681.91 747.77 692.02 747.77 692.02C747.77 692.02 742.59 692.46 734.77 693.17C734.46 693.61 734.15 694.05 733.82 694.48C733.49 694.91 733.16 695.34 732.82 695.75C732.47 696.17 732.12 696.58 731.76 696.98C731.4 697.39 731.04 697.78 730.66 698.17C732.14 698.17 733.61 698.2 735.09 698.28C736.56 698.35 738.04 698.46 739.51 698.6C740.98 698.75 742.44 698.93 743.91 699.15C745.37 699.37 746.82 699.62 748.27 699.91C769.99 704.4 774.17 744.31 762.4 740.75C750.63 737.19 709.55 736.38 709.55 736.38C709.55 736.38 645.96 741.13 637.07 737.7C632.51 735.92 620.24 734.36 609.51 733.26C607.67 735.69 605.9 737.3 604.34 737.69L604.14 737.69C604 737.8 603.85 737.91 603.7 738.01C603.54 738.11 603.38 738.2 603.22 738.29C603.06 738.37 602.89 738.45 602.72 738.51C602.55 738.58 602.38 738.64 602.2 738.69C593.62 740.86 579.1 732.39 577.53 732.2C575.96 732.01 574.38 731.79 572.82 731.52C571.26 731.26 569.7 730.96 568.15 730.63C566.6 730.3 565.05 729.93 563.52 729.52C561.99 729.12 560.46 728.68 558.95 728.2C558.29 728 557.63 727.82 556.97 727.64C556.31 727.47 555.64 727.3 554.98 727.14C554.31 726.98 553.64 726.84 552.97 726.7C552.3 726.56 551.62 726.43 550.95 726.31C540.2 727.27 529.52 728.08 523.77 728.08C509.38 728.08 499.44 738.13 479.03 740.5C458.62 742.87 471.13 714.07 471.13 714.07C455.64 710.82 442.57 706.67 440.99 705.07C438.85 702.94 430.27 698.94 430.27 698.94C430.27 698.94 422.05 698.22 420.62 695.69C419.19 693.16 412.75 688.11 412.75 688.11C405.96 684.5 378.79 651.29 390.23 626.38C401.67 601.47 453.86 609.77 463.15 614.1C467.73 616.24 474.91 618.46 481.02 620.17L481.02 577.03C476.47 573.89 465.56 566.05 465.92 563.2C467.01 554.24 451.92 555.98 451.92 555.98C451.92 555.98 455.51 541.89 451.18 540.81C446.85 539.73 449.54 533.23 451.18 529.62C452.82 526.01 453.91 520.6 451.52 517.71C449.13 514.82 459.89 510.13 459.89 510.13C459.89 510.13 462.27 503.27 460.28 499.3C458.29 495.33 464.66 489.19 464.66 489.19L476.66 406.19C476.87 405.5 484.5 382.78 483.43 379.5C482.36 376.22 497.03 363.22 502.03 362.5C502.74 362.33 503.44 362.16 504.14 361.97C504.85 361.78 505.54 361.58 506.24 361.36C506.93 361.15 507.62 360.92 508.31 360.69C509 360.45 509.68 360.2 510.36 359.94C510.36 358.59 510.36 357.26 510.36 355.94C510.33 354.96 510.28 354.01 510.22 353.01C510.22 353.01 510.22 353 510.22 353C510.22 352.99 510.22 352.99 510.22 352.98C510.22 352.97 510.22 352.97 510.22 352.96C510.22 352.96 510.22 352.95 510.22 352.95C510.17 352.18 510.1 351.42 510.02 350.65C509.94 349.89 509.85 349.12 509.74 348.36C509.63 347.6 509.51 346.84 509.38 346.08C509.25 345.33 509.1 344.57 508.94 343.82C507.23 335.66 504.01 327.74 502.59 319.66L502.53 319.32C502.44 318.78 502.36 318.25 502.29 317.72C502.26 317.49 502.2 317.26 502.2 317.03C502.15 316.63 502.1 316.17 502.07 315.82C502.04 315.47 501.98 315 501.98 314.77C501.98 314.54 501.98 314.31 501.98 314.08C501.95 313.59 501.93 313.1 501.93 312.62C501.92 312.13 501.92 311.64 501.94 311.15C501.95 310.66 501.97 310.18 502.01 309.69C502.04 309.2 502.09 308.72 502.14 308.23C503.54 296.38 511.58 286.6 516.99 275.99C518.49 273.03 519.79 269.97 520.89 266.84C522 263.71 522.9 260.52 523.59 257.27C524.28 254.03 524.76 250.74 525.03 247.43C525.29 244.13 525.35 240.8 525.19 237.49C525.12 237.11 525.15 236.79 525.12 236.37C525.09 235.95 525.06 235.33 525.02 234.95C524.98 234.57 524.92 234.19 524.92 233.81L524.74 232.24C524.71 231.98 524.65 231.73 524.65 231.47C524.43 229.79 524.18 228.05 523.98 226.3C523.91 226.11 523.91 225.9 523.91 225.73C523.91 225.56 523.91 225.38 523.91 225.2C523.87 224.82 523.8 224.44 523.8 224.07C523.8 224.01 523.8 223.95 523.8 223.89C523.42 219.01 523.78 214.23 526.93 210.72C532.67 204.34 543.78 206.74 550.33 201.2C553.53 198.5 555.08 194.36 557.45 190.9C558.91 188.84 560.68 187.02 562.68 185.49C564.69 183.97 566.92 182.75 569.3 181.9C571.67 181.04 574.16 180.55 576.68 180.45C579.2 180.34 581.72 180.62 584.16 181.27C588.66 182.57 592.7 185.16 597.16 186.62C603.44 188.68 610.19 188.42 616.76 189.21C623.33 190 630.27 192.23 634.05 197.71C636.06 200.61 636.96 204.17 638.8 207.17C642.75 213.64 650.28 216.75 655.98 221.7C657.69 223.24 659.24 224.95 660.6 226.81C661.96 228.66 663.12 230.65 664.08 232.75C665.04 234.84 665.78 237.02 666.29 239.27C666.8 241.51 667.08 243.8 667.13 246.1C667.13 246.66 667.13 247.14 667.13 247.66C667.13 247.84 667.13 248.03 667.13 248.21C667.11 248.96 667.06 249.71 666.98 250.45L666.98 250.52C666.92 251.14 666.84 251.75 666.74 252.36C666.65 252.97 666.53 253.58 666.4 254.18C666.26 254.78 666.11 255.38 665.94 255.98C665.77 256.57 665.58 257.16 665.37 257.74C662.29 266.41 655.56 274.18 654.82 283.11L654.82 283.05C654.8 283.28 654.79 283.51 654.78 283.75C654.77 283.98 654.77 284.21 654.77 284.44C654.77 284.68 654.77 284.91 654.78 285.14C654.79 285.38 654.8 285.61 654.82 285.84C655.03 289.08 656.13 292.28 656.34 295.49C656.34 295.88 656.34 296.34 656.34 296.72C656.34 296.85 656.34 296.98 656.33 297.12C656.33 297.25 656.32 297.38 656.31 297.51C656.3 297.64 656.29 297.78 656.28 297.91C656.26 298.04 656.25 298.17 656.23 298.3C654.66 309.8 638.12 312.1 632.42 322.17C632.42 321.28 632.42 320.3 632.42 319.41C632.42 319.26 632.42 319.1 632.42 318.95C632.42 318.58 632.42 318.27 632.42 317.9C632.01 318.57 631.57 319.24 631.13 319.89C630.68 320.55 630.22 321.19 629.74 321.82C629.27 322.46 628.78 323.08 628.27 323.69C627.76 324.3 627.24 324.89 626.71 325.48C626.91 325.96 627.11 326.46 627.33 326.96C628.41 329.42 629.69 331.79 631.18 334.03C632.66 336.28 634.33 338.39 636.18 340.35C638.02 342.3 640.03 344.1 642.18 345.71C644.34 347.32 646.62 348.74 649.02 349.96L650.31 350.6C650.31 350.6 654.39 350.77 662.26 353.19C670.13 355.61 678.62 355.28 679.78 355.61C680.94 355.94 682.1 356.29 683.25 356.66C684.4 357.04 685.54 357.43 686.67 357.86C687.81 358.28 688.93 358.72 690.05 359.19C691.16 359.66 692.27 360.15 693.36 360.66C694.4 361.16 695.45 361.64 696.51 362.1C697.56 362.56 698.63 363 699.7 363.43C700.78 363.85 701.86 364.25 702.94 364.63C704.03 365.02 705.13 365.38 706.23 365.72C706.23 365.72 714.46 367.88 716.6 388.82C718.74 409.76 720.89 421.67 720.89 421.67L720.89 458.17C720.89 458.17 728.42 457.45 726.64 461.42C724.86 465.39 721.28 467.55 724.5 471.16C727.72 474.77 727 481.62 724.14 482.35C721.28 483.08 716.27 485.97 720.92 487.77C725.57 489.57 728.43 492.83 728.43 494.99C728.43 497.15 728.79 500.4 727 502.93C725.21 505.46 723.42 511.23 725.57 513.4C727.72 515.57 723.78 526.76 723.78 526.76C723.78 526.76 730.58 544.44 724.14 549.5C724.14 549.5 721.28 559.61 720.92 560.33C720.92 560.33 713.01 574.99 705.16 588.17L705.16 611.6C712.13 608.93 718.88 605.19 723.43 600C737.01 584.47 771.32 576.17 771.32 576.17C771.32 576.17 853.89 566.41 821.38 640.06ZM678.24 483.78C679.23 482.26 679.4 480.97 678.24 480.15C678.24 481.36 678.24 482.57 678.24 483.78ZM678.58 509.32C678.58 509.32 678.58 509.32 678.58 509.32C678.58 509.32 678.58 509.31 678.58 509.31L678.58 509.32ZM678.58 509.32C678.74 512.2 679 516.42 679.31 521.53C679.11 516.69 683.18 515.29 680.89 512.32C680.29 511.5 679.45 510.46 678.58 509.32ZM679.32 521.69C679.33 521.92 679.35 522.18 679.37 522.45C679.35 522.14 679.33 521.83 679.31 521.53C679.31 521.58 679.32 521.64 679.32 521.69ZM679.37 522.45C679.44 523.61 679.51 524.82 679.59 526.07C679.51 524.71 679.43 523.46 679.37 522.45Z" />
	<path id="Layer" class="shp7" d="M492.52 623.24C492.52 623.24 472.52 618.59 463.21 614.3C453.9 610.01 401.73 601.79 390.29 626.46C378.85 651.13 406.02 684 412.81 687.58C419.6 691.16 485.73 642.17 485.73 642.17L537.89 664.17L547.89 630.03L492.52 623.24Z" />
	<path id="Layer" class="shp7" d="M514.59 666.86C514.59 646.52 531.08 630.03 551.42 630.03L704.83 630.03C725.17 630.03 741.66 646.52 741.66 666.86L741.66 672.19C741.66 692.53 725.17 709.02 704.83 709.02L551.42 709.02C531.08 709.02 514.59 692.53 514.59 672.19L514.59 666.86Z" />
	<path id="Layer" class="shp8" d="M741.66 669.52C741.66 671.45 741.52 673.38 741.24 675.28C740.96 677.19 740.54 679.08 739.98 680.93C739.43 682.77 738.74 684.58 737.92 686.32C737.1 688.07 736.15 689.75 735.08 691.36C734.71 691.91 734.34 692.45 733.94 692.98C733.55 693.5 733.15 694.02 732.73 694.53C732.31 695.04 731.88 695.54 731.44 696.03C731 696.52 730.55 696.99 730.08 697.46C728.25 699.29 726.25 700.94 724.1 702.38C721.95 703.82 719.66 705.04 717.27 706.03C714.88 707.02 712.4 707.78 709.86 708.28C707.32 708.78 704.74 709.03 702.15 709.03L554.09 709.03C543.61 709.03 533.57 704.87 526.16 697.46C518.75 690.05 514.59 680.01 514.59 669.53C514.59 659.05 518.75 649.01 526.16 641.6C533.57 634.19 543.61 630.03 554.09 630.03L702.16 630.03C707.35 630.03 712.48 631.05 717.27 633.04C722.07 635.02 726.42 637.93 730.09 641.6C733.75 645.26 736.66 649.62 738.65 654.41C740.64 659.2 741.66 664.33 741.66 669.52L741.66 669.52Z" />
	<path id="Layer" class="shp9" d="M618.03 671.83C618.03 671.83 595.26 677.68 576.68 677.42C558.1 677.16 471.19 713.27 471.19 713.27C471.19 713.27 458.68 741.79 479.09 739.43C499.5 737.07 509.44 727.17 523.83 727.17C538.22 727.17 583.49 722.17 583.49 722.17L627.05 689.99L618.03 671.83Z" />
	<path id="Layer" class="shp9" d="M632.28 402.7L591.44 410.75L588.79 411.28C588.79 411.28 556.5 402.7 555.43 401.98C554.36 401.26 525.05 361.77 525.05 361.77C525.05 361.77 539.87 361.93 551.51 355.22C551.93 354.98 552.34 354.72 552.75 354.47C554.02 353.71 555.22 352.83 556.34 351.86C557.45 350.89 558.49 349.83 559.42 348.68C560.36 347.53 561.19 346.31 561.92 345.02C562.64 343.73 563.26 342.38 563.75 340.98C563.96 340.39 564.14 339.78 564.31 339.14C565.55 334.36 565.63 328.57 563.97 321.56C559.97 304.89 569.17 300.3 581.36 300.7C598.97 301.28 622.94 312.27 622.94 312.27C623.02 313.67 623.15 315.06 623.35 316.45C623.55 317.84 623.81 319.22 624.12 320.58C624.44 321.95 624.81 323.3 625.24 324.63C625.68 325.97 626.17 327.28 626.71 328.57C626.9 329.05 627.11 329.57 627.33 330.03C628.41 332.47 629.7 334.82 631.19 337.04C632.68 339.27 634.35 341.36 636.2 343.29C638.04 345.23 640.05 347 642.2 348.59C644.35 350.18 646.63 351.58 649.02 352.78L650.31 353.42C651.61 354.04 652.98 354.63 654.4 355.16C685.54 366.96 632.28 402.7 632.28 402.7Z" />
	<path id="Layer" class="shp8" d="M627.37 330.03C623.51 334.39 618.95 338.07 613.86 340.91C608.78 343.75 603.25 345.7 597.51 346.69C591.77 347.68 585.9 347.69 580.16 346.72C574.42 345.74 568.88 343.8 563.79 340.98C565.55 335.86 565.88 329.49 564.01 321.56C554.36 280.81 623.01 312.27 623.01 312.27C623.09 313.8 623.25 315.33 623.48 316.84C623.7 318.36 624 319.86 624.36 321.35C624.73 322.84 625.16 324.31 625.67 325.76C626.17 327.21 626.74 328.63 627.37 330.03L627.37 330.03Z" />
	<path id="Layer" class="shp9" d="M640.26 293.83C640.26 296.22 640.1 298.61 639.77 300.98C639.44 303.35 638.94 305.7 638.28 308C637.62 310.3 636.81 312.55 635.83 314.73C634.86 316.92 633.73 319.03 632.46 321.06C632.04 321.73 631.61 322.39 631.17 323.04C630.72 323.68 630.26 324.32 629.78 324.95C629.3 325.58 628.81 326.19 628.31 326.79C627.8 327.4 627.28 327.99 626.75 328.57C624.52 331.01 622.07 333.23 619.42 335.19C616.76 337.16 613.93 338.86 610.95 340.28C607.96 341.7 604.85 342.83 601.65 343.65C598.46 344.47 595.19 344.98 591.89 345.17C590.89 345.24 589.82 345.27 588.78 345.27C567.96 345.27 549.19 332.73 541.23 313.5C533.26 294.26 537.66 272.13 552.39 257.41C567.11 242.68 589.24 238.28 608.48 246.25C627.71 254.21 640.25 272.98 640.25 293.8L640.26 293.83Z" />
	<path id="Layer" class="shp8" d="M632.28 402.7L591.44 410.75L588.79 411.28C588.79 411.28 556.5 402.7 555.43 401.98C554.36 401.26 525.05 361.77 525.05 361.77C525.05 361.77 539.87 361.93 551.51 355.22C551.93 354.98 552.34 354.72 552.75 354.47C556.45 358.47 568.56 369.78 587.59 369.7C588.2 369.7 588.81 369.69 589.42 369.67C590.03 369.65 590.64 369.61 591.25 369.57C591.86 369.52 592.47 369.47 593.07 369.4C593.68 369.34 594.29 369.26 594.89 369.17C600.63 368.29 606.42 367.72 612.2 367.17C623.27 366.01 640.2 362.65 649.09 352.87L650.38 353.51C651.68 354.13 653.05 354.72 654.47 355.25C685.54 366.96 632.28 402.7 632.28 402.7Z" />
	<path id="Layer" class="shp1" d="M678.39 507.07C678.74 514.94 684.47 603.58 684.47 603.58L506.1 603.58L507.31 547.77L508.31 503.13L508.63 488.48L510.06 437.73L504.89 433.17L476.79 408.41L476.79 408.41C477 407.75 484.62 385.16 483.56 381.98C482.5 378.8 497.15 365.9 502.16 365.18C502.87 365.01 503.58 364.84 504.29 364.65C504.99 364.46 505.69 364.26 506.39 364.05C507.09 363.83 507.79 363.61 508.48 363.37C509.17 363.14 509.86 362.89 510.54 362.63C518.97 359.63 530.22 355.31 531.46 355.99C533.21 356.93 550.75 355.3 551.46 355.23L551.46 355.23C551.46 355.23 564.4 371.96 587.52 371.86C588.13 371.86 588.74 371.84 589.34 371.82C589.95 371.79 590.56 371.75 591.17 371.71C591.77 371.66 592.38 371.6 592.98 371.53C593.59 371.46 594.19 371.37 594.79 371.28C600.53 370.4 606.32 369.83 612.1 369.23C623.73 368.02 641.81 364.37 650.28 353.43C650.28 353.43 654.37 353.6 662.23 355.99C670.09 358.38 679.75 358.39 679.75 358.39C680.91 358.71 682.07 359.06 683.22 359.43C684.37 359.8 685.51 360.2 686.64 360.61C687.77 361.03 688.9 361.47 690.01 361.93C691.13 362.4 692.23 362.88 693.33 363.39C694.37 363.88 695.42 364.36 696.48 364.81C697.53 365.27 698.6 365.71 699.67 366.12C700.75 366.54 701.83 366.94 702.92 367.32C704 367.69 705.1 368.05 706.2 368.39C707.3 368.73 714.42 370.53 716.57 391.26C718.72 411.99 720.89 423.79 720.89 423.79L678.39 460.6C678.39 460.6 678.04 499.17 678.39 507.07Z" />
	<path id="Layer" class="shp9" d="M476.8 568.91L483.05 578.92L506.46 587.17L522.55 557.83L507.72 547.82L483.95 538.53L470.37 546.39L476.8 568.91L476.8 568.91Z" />
	<path id="Layer" class="shp7" d="M676.6 618.23C676.6 618.23 709.84 615.73 723.43 600.36C737.02 584.99 771.32 576.77 771.32 576.77C771.32 576.77 853.89 567.12 821.32 640.04C821.32 640.04 819.18 648.26 814.89 650.76C810.6 653.26 800.24 659.7 800.24 659.7L673.41 648.62L676.6 618.23Z" />
	<path id="Layer" class="shp8" d="M741.66 669.52C741.66 671.45 741.52 673.38 741.24 675.28C740.96 677.19 740.54 679.08 739.98 680.93C739.43 682.77 738.74 684.58 737.92 686.32C737.1 688.07 736.15 689.75 735.08 691.36C713.74 693.25 666.48 697.69 656.59 700.45C644.44 703.82 619.85 697.95 617.16 697.29L616.91 697.23C616.91 697.23 612.17 682.85 609.91 673.65C608.91 669.47 608.38 666.36 609.04 666.13C611.19 665.42 630.85 660.05 630.49 663.13C630.13 666.21 689.49 640.07 689.49 640.07L691.31 662.95C697.34 669.85 741.66 659.59 741.66 669.52Z" />
	<path id="Layer" class="shp7" d="M802.78 650.4L800.28 659.7C798.86 661.28 797.36 662.81 795.81 664.26C794.25 665.72 792.63 667.11 790.96 668.42C789.28 669.74 787.55 670.99 785.77 672.15C783.99 673.32 782.16 674.41 780.28 675.42C768.48 681.5 747.75 691.51 747.75 691.51C747.75 691.51 671.62 697.94 658.75 701.51C645.88 705.08 619.07 698.29 619.07 698.29C619.07 698.29 609.07 667.91 611.21 667.19C613.35 666.47 633.01 661.12 632.66 664.19C632.31 667.26 691.66 641.13 691.66 641.13L802.78 650.4Z" />
	<path id="Layer" class="shp9" d="M590.81 730.54C590.81 730.54 628.23 733.15 637.13 736.54C646.03 739.93 709.61 735.24 709.61 735.24C709.61 735.24 750.69 736.04 762.46 739.56C774.23 743.08 770.05 703.56 748.33 699.13C726.61 694.7 696 701.22 696 701.22C696 701.22 661.46 696.77 657.27 696.22C653.08 695.67 625.49 696.47 625.49 696.47L590.81 730.54Z" />
	<path id="Layer" class="shp8" d="M443.76 631.89C443.76 631.89 493.22 636.34 506.82 644.45L443.76 631.89Z" />
	<path id="Layer" class="shp8" d="M752.26 599.45C752.26 599.45 713.53 608.87 698.35 622.73L752.26 599.45Z" />
	<path id="Layer" class="shp8" d="M446.64 620.64C447.43 620.9 469.41 623.78 468.88 625.87C468.35 627.96 446.64 620.64 446.64 620.64Z" />
	<path id="Layer" class="shp8" d="M412.1 675.78L414.96 686.51C414.96 686.51 421.39 691.51 422.82 694.01C424.25 696.51 432.47 697.23 432.47 697.23C432.47 697.23 441.05 701.16 443.2 703.3C445.35 705.44 468.57 712.24 490.38 715.1C512.19 717.96 552.57 723.32 561.15 726.18C562.66 726.65 564.19 727.08 565.72 727.48C567.26 727.88 568.8 728.25 570.35 728.57C571.91 728.9 573.46 729.19 575.03 729.45C576.59 729.71 578.16 729.93 579.74 730.11C581.32 730.29 595.82 738.69 604.4 736.55C612.98 734.41 627.63 695.44 627.63 695.44C627.63 695.44 571.16 682.22 569.37 677.93C567.58 673.64 513.25 653.63 513.25 653.63L481.08 654.39L412.1 675.78Z" />
	<path id="Layer" class="shp7" d="M409.95 676.85L412.81 687.58C412.81 687.58 419.25 692.58 420.68 695.08C422.11 697.58 430.33 698.3 430.33 698.3C430.33 698.3 438.91 702.23 441.05 704.38C443.19 706.53 466.43 713.31 488.23 716.17C510.03 719.03 550.43 724.39 559.01 727.25C560.52 727.72 562.05 728.15 563.58 728.55C565.12 728.95 566.66 729.31 568.21 729.64C569.76 729.96 571.32 730.26 572.88 730.51C574.45 730.77 576.02 730.99 577.59 731.17C579.16 731.35 593.68 739.74 602.26 737.6C610.84 735.46 625.49 696.49 625.49 696.49C625.49 696.49 569.01 683.27 567.23 678.98C565.45 674.69 485.73 642.17 485.73 642.17L460.73 636.45L409.95 676.85Z" />
	<path id="Layer" class="shp1" d="M483.04 404.84L476.79 408.42L464.79 490.63C464.79 490.63 458.42 496.71 460.41 500.63C462.4 504.55 460.02 511.35 460.02 511.35C460.02 511.35 449.26 516 451.65 518.86C454.04 521.72 452.95 527.08 451.31 530.65C449.67 534.22 446.98 540.65 451.31 541.73C455.64 542.81 452.05 556.73 452.05 556.73C452.05 556.73 467.14 555.01 466.05 563.87C465.6 567.45 483.11 578.87 483.11 578.87C483.11 578.87 463.21 542.77 507.79 547.77L511.62 527.42C511.62 527.42 515.45 515.96 511.62 512.42C507.79 508.88 512.48 491.87 512.48 491.87L513.32 418.06L483.04 404.84Z" />
	<path id="Layer" class="shp8" d="M473.33 511.01C474.12 512.32 498.19 515.01 499.76 519.28C501.33 523.55 473.33 511.01 473.33 511.01Z" />
	<path id="Layer" class="shp8" d="M465.74 531.42C465.74 531.42 469.01 521.21 476.74 523.04C484.47 524.87 465.74 531.42 465.74 531.42Z" />
	<path id="Layer" class="shp8" d="M461.56 546.33C461.56 546.33 467.31 532.72 475.16 533.77C483.01 534.82 461.56 546.33 461.56 546.33Z" />
	<path id="Layer" class="shp9" d="M723.43 546.03L720.92 561.03C720.92 561.03 695.19 608.22 690.54 608.93C685.89 609.64 660.54 577.48 660.54 577.48L653.75 546.02L680.48 540.95L692.35 529.22C692.35 529.22 722.35 532.09 723.43 546.03Z" />
	<path id="Layer" class="shp1" d="M711.27 417L720.92 423.79L720.92 459.89C720.92 459.89 728.43 459.17 726.64 463.11C724.85 467.05 721.28 469.18 724.5 472.76C727.72 476.34 727 483.12 724.14 483.84C721.28 484.56 716.28 487.41 720.92 489.2C725.56 490.99 728.43 494.2 728.43 496.35C728.43 498.5 728.79 501.71 727 504.21C725.21 506.71 723.43 512.43 725.57 514.58C727.71 516.73 723.78 527.8 723.78 527.8C723.78 527.8 730.58 545.32 724.14 550.32C724.14 550.32 721.28 560.32 720.92 561.04C720.92 561.04 725.43 526.25 680.46 540.96C680.46 540.96 679.63 527.7 679.32 522.79C679.01 517.88 683.2 516.44 680.89 513.51C678.58 510.58 672.8 503.85 675.53 502.07C678.26 500.29 677.32 497.07 676.24 494.56C675.16 492.05 671.39 492.06 674.81 489.02C678.23 485.98 680.26 483.13 678.25 481.7C676.24 480.27 672.75 475.61 675.53 473.47C678.31 471.33 678.39 440.23 678.39 440.23C678.39 440.23 689.83 394.48 711.27 417Z" />
	<path id="Layer" class="shp8" d="M706.73 478.5C706.73 478.5 720.47 474.77 720.92 478.5C721.37 482.23 706.73 478.5 706.73 478.5Z" />
	<path id="Layer" class="shp8" d="M691.29 488.77C691.29 488.77 710.13 484.06 712.48 487.72C714.83 491.38 691.29 488.77 691.29 488.77Z" />
	<path id="Layer" class="shp8" d="M687.1 498.71C687.1 498.71 715.36 494.78 717.19 500.54C719.02 506.3 687.1 498.71 687.1 498.71Z" />
	<path id="Layer" class="shp8" d="M691.29 511.01C692.34 511.27 718.5 513.1 719.02 518.07C719.54 523.04 691.29 511.01 691.29 511.01Z" />
	<path id="Layer" class="shp0" d="M481.09 537.59C481.09 531.81 485.78 527.12 491.56 527.12L694.7 527.12C700.48 527.12 705.17 531.81 705.17 537.59L705.17 643.92C705.17 649.7 700.48 654.39 694.7 654.39L491.56 654.39C485.78 654.39 481.09 649.7 481.09 643.92L481.09 537.59Z" />
	<path id="Layer" class="shp3" d="M593.13 599.02C588.56 599.02 584.87 595.33 584.87 590.76C584.87 586.19 588.56 582.5 593.13 582.5C597.7 582.5 601.39 586.19 601.39 590.76C601.39 595.33 597.7 599.02 593.13 599.02Z" />
	<path id="Layer" class="shp8" d="M518.61 449.11C518.61 449.11 540.09 465.53 556.7 453.02C556.7 453.02 528.62 455.57 518.61 449.11Z" />
	<path id="Layer" class="shp8" d="M627.37 453.53C627.37 453.53 648.84 469.94 665.45 457.43C665.45 457.43 637.38 459.99 627.37 453.53Z" />
	<path id="Layer" class="shp8" d="M640.26 293.83C640.26 296.22 640.1 298.61 639.77 300.98C639.44 303.35 638.94 305.7 638.28 308C637.62 310.3 636.81 312.55 635.83 314.73C634.86 316.92 633.73 319.03 632.46 321.06C632.03 306.73 628.66 292.39 620.86 280.42C613.72 269.42 592.01 250.23 577.09 255.58C576.31 255.87 575.57 256.24 574.88 256.7C574.19 257.16 573.56 257.69 572.99 258.3C572.43 258.91 571.94 259.58 571.53 260.3C571.12 261.02 570.8 261.78 570.57 262.58C569.09 268.2 573.42 270.58 576.2 275.01C577.37 276.91 578.37 278.91 579.18 280.99C580 283.06 580.63 285.2 581.08 287.39C581.52 289.58 581.77 291.8 581.82 294.03C581.88 296.25 581.74 298.49 581.4 300.69C581.35 300.99 581.3 301.29 581.25 301.59C581.19 301.89 581.13 302.18 581.07 302.48C581.01 302.78 580.94 303.07 580.87 303.37C580.8 303.66 580.73 303.96 580.65 304.25C578.3 313.07 572.92 323.16 578.47 330.39C582.34 335.39 590.66 337.17 591.79 343.39C591.82 343.54 591.84 343.68 591.85 343.83C591.87 343.98 591.88 344.13 591.89 344.28C591.9 344.43 591.9 344.57 591.9 344.72C591.9 344.87 591.9 345.02 591.89 345.17C591.63 349.38 588.04 353.09 586.47 357.22C584.63 362.09 585.67 366.93 587.58 371.82C590.06 378.2 594.02 384.65 594.98 391.39C595.94 398.13 593.87 404.39 591.43 410.72C589.12 416.72 586.43 422.67 585.53 428.92C583.8 440.8 588.16 454.54 580.68 463.92C580.49 464.2 580.28 464.46 580.04 464.7C579.8 464.94 579.54 465.16 579.26 465.34C578.98 465.53 578.68 465.7 578.37 465.83C578.06 465.96 577.74 466.06 577.41 466.13C572.62 466.63 573.41 458.02 569.58 455.13C569.99 460.13 570.38 465.35 568.58 470.03C566.78 474.71 562.04 478.69 557.08 477.9L555.37 466.67C554.53 467.5 553.64 468.28 552.72 469.01C551.79 469.74 550.83 470.42 549.83 471.05C548.83 471.67 547.79 472.24 546.73 472.76C545.67 473.27 544.58 473.73 543.47 474.12C543.91 471.14 544.5 468.19 545.24 465.28C545.99 462.37 546.88 459.49 547.93 456.67C548.97 453.85 550.16 451.09 551.49 448.39C552.82 445.69 554.29 443.06 555.89 440.52C543.3 446.58 535.96 459.7 529.41 472.04C525.33 479.75 521.1 488.17 522.53 496.78C523.11 500.29 524.62 503.63 524.95 507.16C525.28 510.69 524 514.82 520.71 516.16C517.84 517.33 514.49 515.93 512.42 513.59L512.06 513.16C511.86 512.9 511.67 512.63 511.49 512.36C511.4 512.22 511.31 512.09 511.23 511.95C511.15 511.81 511.06 511.67 510.98 511.53C510.9 511.39 510.83 511.24 510.75 511.1C510.68 510.95 510.61 510.81 510.54 510.66C510.32 510.13 510.11 509.6 509.91 509.06C509.72 508.52 509.54 507.98 509.37 507.43C509.2 506.88 509.05 506.33 508.91 505.77C508.77 505.21 508.65 504.65 508.54 504.09L508.32 503.09C504.99 488.48 501.99 473.41 504.43 458.63C505.33 453.19 506.97 447.79 506.77 442.27C506.73 441.49 506.66 440.72 506.57 439.95C506.47 439.18 506.34 438.41 506.18 437.65C506.03 436.89 505.84 436.13 505.62 435.38C505.41 434.64 505.16 433.9 504.89 433.17C501.97 424.99 496.35 417.48 493.15 409.24C493.14 409.23 493.13 409.21 493.13 409.2C493.12 409.18 493.11 409.17 493.1 409.15C493.1 409.14 493.09 409.12 493.09 409.11C493.08 409.09 493.07 409.08 493.07 409.06C491.39 404.7 490.56 399.25 493.67 395.75C495.27 393.94 497.67 393.03 499.67 391.75C505.89 387.7 508.67 380.01 509.82 372.67C509.95 371.84 510.06 371.01 510.16 370.18C510.26 369.35 510.34 368.52 510.4 367.69C510.47 366.85 510.52 366.02 510.55 365.18C510.58 364.34 510.6 363.51 510.6 362.67C519.03 359.67 530.28 355.35 531.52 356.03C533.27 356.97 550.81 355.34 551.52 355.27C556.86 352.19 561.52 347.66 563.8 341.03C564.01 340.44 564.19 339.83 564.36 339.19C548.06 330.4 537.74 313.52 537.34 295.01C536.94 276.49 546.52 259.19 562.42 249.7C578.32 240.21 598.1 239.99 614.2 249.13C630.31 258.27 640.27 275.36 640.27 293.88L640.26 293.83Z" />
	<path id="Layer" class="shp0" d="M580.65 302.11C578.29 310.93 572.92 321.02 578.48 328.26C582.35 333.26 590.67 335.03 591.78 341.26C592.67 346.26 588.26 350.38 586.48 355.08C582.24 366.31 593.3 377.35 594.98 389.24C596.81 402.14 587.41 413.89 585.54 426.78C583.81 438.66 588.17 452.39 580.69 461.78C580.5 462.06 580.29 462.32 580.05 462.56C579.81 462.8 579.55 463.02 579.27 463.21C578.99 463.4 578.7 463.56 578.39 463.69C578.07 463.82 577.75 463.92 577.42 463.99C572.63 464.5 573.42 455.89 569.59 452.99C570 457.99 570.39 463.21 568.59 467.89C566.79 472.57 562.05 476.54 557.09 475.76L555.38 464.52C554.54 465.35 553.65 466.13 552.73 466.86C551.8 467.59 550.84 468.27 549.84 468.9C548.84 469.52 547.81 470.09 546.74 470.61C545.68 471.12 544.59 471.58 543.48 471.97C543.92 469 544.51 466.05 545.25 463.13C546 460.22 546.89 457.35 547.93 454.53C548.98 451.71 550.16 448.94 551.49 446.25C552.82 443.55 554.29 440.92 555.89 438.38C543.3 444.44 535.97 457.56 529.42 469.89C525.33 477.6 521.11 486.03 522.53 494.64C523.11 498.15 524.62 501.48 524.95 505.02C525.28 508.56 524 512.67 520.71 514.02C517.71 515.27 514.08 513.61 512.06 511.02C510.04 508.43 509.26 505.13 508.53 501.94C505.11 487.02 501.92 471.62 504.41 456.52C505.31 451.07 506.95 445.67 506.75 440.16C506.32 428.09 497.41 418.16 493.07 406.93C491.38 402.56 490.56 397.12 493.67 393.62C495.27 391.81 497.67 390.9 499.67 389.62C505.88 385.56 508.67 377.88 509.81 370.54C510.12 368.56 510.33 366.57 510.46 364.57C510.58 362.57 510.62 360.57 510.56 358.57C510.51 356.57 510.36 354.57 510.12 352.58C509.88 350.59 509.56 348.62 509.14 346.66C506.63 334.91 500.87 323.43 502.3 311.5C503.7 299.76 511.74 290.08 517.15 279.57C518.88 276.19 520.35 272.69 521.55 269.09C522.75 265.5 523.68 261.81 524.33 258.08C524.98 254.34 525.34 250.56 525.42 246.77C525.5 242.97 525.3 239.18 524.81 235.42C523.88 228.37 522.25 220.21 527.03 214.94C532.77 208.62 543.88 211 550.43 205.52C553.63 202.85 555.18 198.74 557.55 195.32C559.02 193.28 560.79 191.47 562.81 189.96C564.82 188.44 567.05 187.24 569.42 186.4C571.79 185.55 574.28 185.06 576.79 184.96C579.31 184.86 581.83 185.13 584.26 185.78C588.76 187.07 592.8 189.63 597.26 191.08C603.54 193.08 610.26 192.86 616.86 193.65C623.46 194.44 630.37 196.65 634.15 202.06C636.15 204.94 637.06 208.45 638.9 211.43C642.85 217.83 650.38 220.91 656.08 225.82C658.51 227.99 660.61 230.5 662.31 233.28C664.02 236.05 665.3 239.06 666.13 242.21C666.96 245.36 667.33 248.62 667.21 251.87C667.1 255.13 666.51 258.35 665.46 261.43C662.06 270.9 654.19 279.28 654.86 289.32C655.13 293.45 656.86 297.5 656.32 301.59C654.74 312.98 638.21 315.25 632.5 325.23C632.96 308.87 629.82 292.02 620.89 278.31C613.75 267.31 592.04 248.11 577.12 253.46C576.34 253.75 575.6 254.12 574.91 254.58C574.22 255.04 573.59 255.58 573.03 256.18C572.46 256.79 571.97 257.46 571.56 258.18C571.15 258.9 570.83 259.66 570.6 260.46C569.12 266.07 573.45 268.46 576.23 272.89C577.56 275.05 578.66 277.33 579.54 279.71C580.41 282.09 581.04 284.55 581.41 287.05C581.79 289.55 581.92 292.09 581.79 294.62C581.66 297.15 581.28 299.66 580.65 302.11L580.65 302.11Z" />
	<g id="Layer" style="opacity: 0.2">
		<path id="Layer" class="shp10" d="M510.54 358.79C510.57 357.51 510.56 356.22 510.52 354.94C510.48 353.66 510.39 352.38 510.27 351.1C510.16 349.82 510 348.55 509.8 347.28C509.61 346.01 509.38 344.75 509.11 343.49C506.98 333.49 502.52 323.7 502.11 313.66C501.53 324.84 506.76 335.66 509.11 346.66C509.32 347.66 509.51 348.66 509.68 349.66C509.85 350.67 509.99 351.68 510.11 352.69C510.23 353.7 510.32 354.72 510.39 355.74C510.47 356.75 510.52 357.77 510.54 358.79Z" />
		<path id="Layer" class="shp10" d="M553.14 439.94C554.01 438.35 554.91 436.77 555.88 435.23C543.3 441.29 535.96 454.41 529.41 466.75C525.62 473.88 521.73 481.64 522.31 489.58C522.79 482.77 526.14 476.13 529.41 469.96C535.47 458.55 542.21 446.49 553.14 439.94Z" />
		<path id="Layer" class="shp10" d="M524.89 504.61C524.51 507.31 523.17 509.87 520.71 510.88C517.71 512.12 514.08 510.47 512.07 507.88C510.06 505.29 509.26 502 508.53 498.8C506.09 488.14 503.77 477.22 503.53 466.35C503.29 478.28 505.83 490.3 508.53 502.02C509.26 505.21 510.05 508.52 512.07 511.1C514.09 513.68 517.68 515.34 520.71 514.1C524 512.75 525.29 508.64 524.96 505.1C524.89 504.93 524.89 504.77 524.89 504.61Z" />
		<path id="Layer" class="shp10" d="M581.81 291.37C581.78 292.01 581.73 292.65 581.67 293.29C581.61 293.93 581.53 294.57 581.43 295.2C581.33 295.84 581.22 296.47 581.09 297.1C580.96 297.72 580.81 298.35 580.65 298.97C578.91 305.5 575.51 312.74 576.12 318.97C576.6 313.53 579.2 307.61 580.65 302.16C580.88 301.28 581.08 300.4 581.24 299.5C581.41 298.61 581.54 297.71 581.64 296.81C581.73 295.91 581.8 295 581.83 294.09C581.85 293.19 581.85 292.28 581.81 291.37L581.81 291.37Z" />
		<path id="Layer" class="shp10" d="M525.4 243.65C525.42 242.7 525.42 241.74 525.41 240.79C525.39 239.84 525.36 238.88 525.31 237.93C525.26 236.98 525.19 236.03 525.1 235.08C525.01 234.13 524.9 233.19 524.78 232.24C524.41 229.46 523.94 226.5 523.78 223.61C523.55 227.46 524.25 231.61 524.78 235.46C524.87 236.14 524.95 236.82 525.02 237.5C525.09 238.18 525.15 238.86 525.2 239.55C525.25 240.23 525.3 240.91 525.33 241.6C525.36 242.28 525.39 242.97 525.4 243.65L525.4 243.65Z" />
		<path id="Layer" class="shp10" d="M591.79 341.36C591.79 341.27 591.79 341.2 591.72 341.11C590.96 344.83 587.9 348.23 586.49 351.97C586.28 352.53 586.11 353.09 585.96 353.67C585.82 354.25 585.71 354.83 585.64 355.42C585.57 356.01 585.53 356.6 585.52 357.19C585.52 357.79 585.55 358.38 585.61 358.97C585.64 358.65 585.68 358.33 585.73 358C585.79 357.68 585.85 357.37 585.92 357.05C586 356.73 586.08 356.42 586.17 356.11C586.27 355.8 586.37 355.49 586.49 355.19C588.26 350.48 592.67 346.32 591.79 341.36Z" />
		<path id="Layer" class="shp10" d="M506.75 437.02C506.31 424.95 497.41 415.02 493.06 403.79C492.89 403.35 492.73 402.9 492.58 402.45C492.44 402 492.31 401.54 492.19 401.08C492.07 400.62 491.97 400.16 491.88 399.7C491.79 399.23 491.72 398.76 491.66 398.29C491.6 399.03 491.58 399.77 491.61 400.52C491.64 401.26 491.72 402 491.83 402.73C491.95 403.47 492.11 404.19 492.32 404.91C492.52 405.62 492.77 406.33 493.06 407.01C497.34 418.09 506 427.84 506.7 439.64C506.75 438.77 506.78 437.89 506.75 437.02Z" />
		<path id="Layer" class="shp10" d="M620.89 275.17C613.74 264.17 592.04 244.97 577.12 250.32C576.34 250.61 575.6 250.98 574.91 251.44C574.22 251.9 573.59 252.44 573.02 253.04C572.46 253.65 571.96 254.32 571.55 255.04C571.15 255.76 570.82 256.52 570.59 257.32C570.5 257.62 570.43 257.93 570.39 258.25C570.34 258.56 570.31 258.88 570.3 259.19C570.29 259.51 570.3 259.83 570.33 260.14C570.36 260.46 570.41 260.77 570.48 261.08C570.48 260.9 570.54 260.72 570.59 260.54C570.82 259.74 571.14 258.98 571.55 258.26C571.96 257.54 572.45 256.87 573.02 256.26C573.59 255.65 574.22 255.12 574.91 254.66C575.6 254.2 576.34 253.83 577.12 253.54C592.04 248.19 613.74 267.42 620.89 278.39C628.97 290.81 632.3 305.8 632.52 320.67C632.73 304.72 629.54 288.45 620.89 275.17Z" />
		<path id="Layer" class="shp10" d="M656.29 298.42C654.72 309.78 638.29 312.07 632.52 321.99C632.52 323.08 632.52 324.18 632.52 325.27C638.22 315.27 654.76 313.02 656.33 301.63C656.36 301.35 656.39 301.07 656.41 300.79C656.43 300.51 656.44 300.23 656.44 299.94C656.44 299.66 656.43 299.38 656.41 299.1C656.39 298.82 656.36 298.54 656.33 298.26C656.33 298.27 656.33 298.29 656.32 298.3C656.32 298.31 656.32 298.33 656.31 298.34C656.31 298.35 656.31 298.37 656.3 298.38C656.3 298.39 656.29 298.41 656.29 298.42L656.29 298.42Z" />
		<path id="Layer" class="shp10" d="M665.43 258.25C662.03 267.73 654.16 276.1 654.83 286.15C654.83 286.29 654.83 286.44 654.83 286.59C655.57 277.74 662.3 270.06 665.38 261.47C665.73 260.49 666.02 259.5 666.27 258.49C666.52 257.48 666.72 256.46 666.86 255.44C667.01 254.41 667.1 253.38 667.15 252.34C667.19 251.3 667.19 250.27 667.13 249.23C667.1 250 667.05 250.76 666.96 251.53C666.88 252.29 666.76 253.05 666.62 253.8C666.48 254.56 666.31 255.31 666.11 256.05C665.91 256.79 665.68 257.53 665.43 258.25L665.43 258.25Z" />
		<path id="Layer" class="shp10" d="M580.69 458.66C580.5 458.94 580.29 459.21 580.05 459.45C579.81 459.69 579.55 459.9 579.27 460.09C578.99 460.28 578.7 460.44 578.39 460.58C578.07 460.71 577.75 460.81 577.42 460.88C572.63 461.39 573.42 452.78 569.59 449.88C569.69 451.02 569.78 452.17 569.84 453.32C573.4 456.4 572.74 464.59 577.42 464.09C577.75 464.02 578.07 463.92 578.39 463.79C578.7 463.66 579 463.5 579.28 463.31C579.55 463.12 579.82 462.91 580.05 462.67C580.29 462.42 580.5 462.16 580.69 461.88C584.96 456.52 585.37 449.75 585.26 442.72C585.15 448.58 584.3 454.17 580.69 458.66Z" />
		<path id="Layer" class="shp10" d="M568.58 464.78C566.76 469.47 562.04 473.44 557.07 472.65C556.5 468.91 555.94 465.16 555.37 461.41C554.57 462.2 553.72 462.95 552.84 463.65C551.96 464.35 551.04 465.01 550.09 465.61C549.14 466.22 548.16 466.78 547.15 467.28C546.15 467.79 545.11 468.24 544.06 468.64C543.84 469.78 543.63 470.93 543.46 472.08C544.57 471.69 545.66 471.23 546.73 470.72C547.79 470.2 548.82 469.63 549.82 469.01C550.82 468.38 551.79 467.7 552.72 466.97C553.64 466.24 554.53 465.46 555.37 464.63C555.94 468.38 556.5 472.13 557.07 475.87C562.07 476.65 566.76 472.69 568.58 468C568.86 467.19 569.1 466.36 569.29 465.52C569.49 464.68 569.64 463.83 569.75 462.98C569.86 462.13 569.93 461.27 569.95 460.41C569.97 459.55 569.95 458.69 569.89 457.83C569.88 458.42 569.84 459.01 569.78 459.6C569.72 460.19 569.63 460.78 569.52 461.36C569.41 461.94 569.28 462.52 569.12 463.09C568.96 463.66 568.78 464.22 568.58 464.78L568.58 464.78Z" />
		<path id="Layer" class="shp10" d="M585.54 423.66C585.44 424.41 585.36 425.17 585.3 425.93C585.23 426.69 585.18 427.45 585.14 428.21C585.11 428.97 585.09 429.73 585.08 430.49C585.08 431.25 585.09 432.01 585.11 432.77C585.11 432.28 585.13 431.79 585.15 431.29C585.17 430.8 585.19 430.31 585.23 429.82C585.27 429.33 585.31 428.84 585.36 428.35C585.41 427.86 585.47 427.37 585.54 426.88C587.33 414.59 595.94 403.34 595.16 391.15C594.47 402.17 587.17 412.46 585.54 423.66Z" />
	</g>
	<path id="Layer" class="shp1" d="M882.89 594.17C882.89 594.17 876.1 625.8 906.32 629.55L908.19 626.04C908.19 626.04 884.79 604.04 882.89 594.17Z" />
	<path id="Layer" class="shp1" d="M917.83 625.83L910.83 627.32L910.13 627.47C910.13 627.47 891.38 612.25 891.62 578.27C892.25 579.52 892.9 580.76 893.59 581.97C894.28 583.19 895 584.39 895.74 585.58C896.49 586.76 897.27 587.92 898.07 589.07C898.88 590.21 899.71 591.34 900.57 592.44C907.98 602.27 916.43 615.4 917.83 625.83Z" />
	<path id="Layer" class="shp1" d="M920.21 629.09C919.93 629.27 919.64 629.42 919.33 629.53C919.02 629.64 918.7 629.72 918.38 629.76C918.05 629.8 917.72 629.81 917.39 629.78C917.07 629.75 916.74 629.68 916.43 629.58C898.43 625.36 904.48 566.58 904.48 566.58C905.48 567.05 906.57 574.58 910.72 584.18C918 601.17 926 624.83 920.21 629.09Z" />
	<path id="Layer" class="shp1" d="M960.23 594.17C960.23 594.17 961.4 625.8 931.18 629.55L929.31 626.04C929.31 626.04 958.36 604.04 960.23 594.17Z" />
	<path id="Layer" class="shp1" d="M951.57 578.27C951.79 612.27 927.43 627.47 927.43 627.47L926.73 627.32L919.73 625.83C921.12 615.4 929.59 602.27 937.01 592.44C938.06 591.1 939.15 589.8 940.29 588.54C941.42 587.28 942.6 586.05 943.81 584.87C945.03 583.68 946.29 582.54 947.58 581.44C948.88 580.34 950.21 579.28 951.57 578.27L951.57 578.27Z" />
	<path id="Layer" class="shp1" d="M926.62 626.01C926.35 626.34 926.06 626.65 925.76 626.95C925.45 627.24 925.13 627.52 924.8 627.78C924.46 628.04 924.11 628.28 923.75 628.5C923.38 628.72 923.01 628.91 922.62 629.09L922.62 629.09C922.5 629.14 922.38 629.19 922.26 629.24C922.14 629.29 922.02 629.33 921.9 629.37C921.77 629.41 921.65 629.45 921.53 629.49C921.4 629.52 921.28 629.55 921.15 629.58C916.71 630.58 915.15 627.42 915.41 621.98C915.83 612.29 921.92 595.49 927.41 582.98C931.35 573.92 937.78 567.06 938.74 566.61C938.68 566.56 938.41 612.35 926.62 626.01Z" />
	<path id="Layer" class="shp1" d="M921.58 545.94C921.58 545.94 901.43 617.4 918.77 628.18C936.11 638.96 926.03 552.27 921.58 545.94Z" />
	<path id="Layer" class="shp8" d="M882.89 594.17C882.89 594.17 876.1 625.8 906.32 629.55L908.19 626.04C908.19 626.04 884.79 604.04 882.89 594.17Z" />
	<path id="Layer" class="shp8" d="M917.83 625.83L910.83 627.32L910.13 627.47C910.13 627.47 891.38 612.25 891.62 578.27C892.25 579.52 892.9 580.76 893.59 581.97C894.28 583.19 895 584.39 895.74 585.58C896.49 586.76 897.27 587.92 898.07 589.07C898.88 590.21 899.71 591.34 900.57 592.44C907.98 602.27 916.43 615.4 917.83 625.83Z" />
	<path id="Layer" class="shp8" d="M920.21 629.09C919.93 629.27 919.64 629.42 919.33 629.53C919.02 629.64 918.7 629.72 918.38 629.76C918.05 629.8 917.72 629.81 917.39 629.78C917.07 629.75 916.74 629.68 916.43 629.58C898.43 625.36 904.48 566.58 904.48 566.58C905.48 567.05 906.57 574.58 910.72 584.18C918 601.17 926 624.83 920.21 629.09Z" />
	<path id="Layer" class="shp8" d="M960.23 594.17C960.23 594.17 961.4 625.8 931.18 629.55L929.31 626.04C929.31 626.04 958.36 604.04 960.23 594.17Z" />
	<path id="Layer" class="shp8" d="M951.57 578.27C951.79 612.27 927.43 627.47 927.43 627.47L926.73 627.32L919.73 625.83C921.12 615.4 929.59 602.27 937.01 592.44C938.06 591.1 939.15 589.8 940.29 588.54C941.42 587.28 942.6 586.05 943.81 584.87C945.03 583.68 946.29 582.54 947.58 581.44C948.88 580.34 950.21 579.28 951.57 578.27L951.57 578.27Z" />
	<path id="Layer" class="shp8" d="M926.62 626.01C926.35 626.34 926.06 626.65 925.76 626.95C925.45 627.24 925.13 627.52 924.8 627.78C924.46 628.04 924.11 628.28 923.75 628.5C923.38 628.72 923.01 628.91 922.62 629.09L922.62 629.09C922.5 629.14 922.38 629.19 922.26 629.24C922.14 629.29 922.02 629.33 921.9 629.37C921.77 629.41 921.65 629.45 921.53 629.49C921.4 629.52 921.28 629.55 921.15 629.58C916.71 630.58 915.15 627.42 915.41 621.98C915.83 612.29 921.92 595.49 927.41 582.98C931.35 573.92 937.78 567.06 938.74 566.61C938.68 566.56 938.41 612.35 926.62 626.01Z" />
	<path id="Layer" class="shp8" d="M921.58 545.94C921.58 545.94 901.43 617.4 918.77 628.18C936.11 638.96 926.03 552.27 921.58 545.94Z" />
	<path id="Layer" class="shp1" d="M882.89 594.17C882.89 594.17 878.89 625.8 909.13 629.55L911 626.04C911 626.04 884.79 604.04 882.89 594.17Z" />
	<path id="Layer" class="shp1" d="M920.64 625.83L913.64 627.32L912.93 627.47C912.93 627.47 891.37 612.25 891.61 578.27C891.61 578.27 897.13 584.19 903.37 592.44C910.79 602.27 919.24 615.4 920.64 625.83Z" />
	<path id="Layer" class="shp8" d="M920.64 625.83L913.64 627.32C906.97 621.47 904.33 606.2 903.37 592.44C910.79 602.27 919.24 615.4 920.64 625.83Z" />
	<path id="Layer" class="shp1" d="M923.02 629.09C922.74 629.27 922.45 629.42 922.14 629.53C921.83 629.64 921.51 629.72 921.19 629.76C920.86 629.8 920.53 629.81 920.2 629.78C919.88 629.75 919.55 629.68 919.24 629.58C901.19 625.36 904.48 566.58 904.48 566.58C905.48 567.05 909.38 574.58 913.48 584.18C920.81 601.17 928.81 624.83 923.02 629.09Z" />
	<path id="Layer" class="shp1" d="M960.23 594.17C960.23 594.17 964.23 625.8 933.99 629.55L932.12 626.04C932.12 626.04 958.36 604.04 960.23 594.17Z" />
	<path id="Layer" class="shp1" d="M951.57 578.27C951.79 612.27 930.24 627.47 930.24 627.47L929.54 627.32L922.54 625.83C923.94 615.4 932.4 602.27 939.82 592.44C946.04 584.17 951.57 578.27 951.57 578.27Z" />
	<path id="Layer" class="shp8" d="M939.79 592.44C938.89 605.28 936.54 619.44 930.84 626.01C930.74 626.13 930.64 626.24 930.54 626.36C930.43 626.47 930.32 626.58 930.22 626.69C930.11 626.8 930 626.91 929.88 627.01C929.77 627.12 929.66 627.22 929.54 627.32L922.54 625.83C923.89 615.4 932.37 602.27 939.79 592.44Z" />
	<path id="Layer" class="shp1" d="M929.43 626.01C929.16 626.34 928.87 626.65 928.57 626.95C928.26 627.24 927.94 627.52 927.61 627.78C927.27 628.04 926.92 628.28 926.56 628.5C926.19 628.72 925.82 628.91 925.43 629.09L925.43 629.09C925.31 629.14 925.19 629.19 925.07 629.24C924.95 629.29 924.83 629.33 924.7 629.37C924.58 629.41 924.45 629.45 924.33 629.49C924.2 629.52 924.08 629.55 923.95 629.58C919.51 630.58 917.95 627.42 918.21 621.98C918.64 612.29 924.72 595.49 930.21 582.98C934.15 573.92 937.77 567.06 938.73 566.61C938.68 566.56 941.22 612.35 929.43 626.01Z" />
	<path id="Layer" class="shp8" d="M923.02 629.09C922.77 629.09 922.51 629.07 922.26 629.03C922.01 628.99 921.77 628.93 921.53 628.85C921.28 628.78 921.05 628.68 920.82 628.57C920.6 628.46 920.38 628.33 920.17 628.18C911.68 622.89 911.51 603.04 913.53 584.18C920.81 601.17 928.81 624.83 923.02 629.09Z" />
	<path id="Layer" class="shp8" d="M929.43 626.01C928.43 628.12 927.14 629.24 925.43 629.09L925.43 629.09C925.21 629.06 925 629.02 924.79 628.97C924.58 628.91 924.37 628.85 924.17 628.77C923.96 628.7 923.77 628.61 923.57 628.51C923.38 628.41 923.19 628.3 923.01 628.18C922.46 627.8 921.95 627.39 921.46 626.93C920.98 626.47 920.53 625.98 920.13 625.45C919.72 624.93 919.35 624.37 919.03 623.79C918.71 623.21 918.44 622.6 918.21 621.98C918.64 612.29 924.72 595.49 930.21 582.98C932.11 600.37 932.76 618.86 929.43 626.01Z" />
	<path id="Layer" class="shp1" d="M921.58 545.94C921.58 545.94 904.24 617.4 921.58 628.18C938.92 638.96 926.03 552.27 921.58 545.94Z" />
	<path id="Layer" class="shp11" d="M954.85 624.66L882.69 624.66L882.69 636.61L893.7 636.61L893.97 638.02L898.38 661.21L940.33 661.21L944.74 638.02L945.01 636.61L954.85 636.61L954.85 624.66L954.85 624.66Z" />
	<path id="Layer" class="shp8" d="M954.82 624.66L882.66 624.66L882.66 636.61L893.67 636.61L893.94 638.02L898.35 661.21L940.3 661.21L944.71 638.02L944.98 636.61L954.82 636.61L954.82 624.66L954.82 624.66Z" />
	<path id="Layer" class="shp11" d="M948.76 631.69L947.55 638.02L943.14 661.21L901.19 661.21L896.78 638.02L895.57 631.69L948.76 631.69L948.76 631.69Z" />
	<path id="Layer" class="shp8" d="M948.76 631.69L947.55 638.02L896.78 638.02L895.57 631.69L948.76 631.69L948.76 631.69Z" />
	<path id="Layer" class="shp11" d="M885.5 624.66L957.66 624.66L957.66 636.61L885.5 636.61L885.5 624.66Z" />
	<path id="Layer" class="shp1" d="M341.62 548.17C341.36 548.52 341.12 548.88 340.89 549.25C340.66 549.62 340.44 550 340.24 550.38C340.03 550.77 339.84 551.16 339.67 551.56C339.49 551.96 339.33 552.36 339.18 552.77C339.03 553.17 338.88 553.63 338.73 554.07C338.66 554.04 338.59 554.01 338.52 553.98C338.46 553.95 338.39 553.92 338.31 553.9C338.24 553.87 338.17 553.85 338.1 553.83C338.03 553.81 337.95 553.8 337.88 553.78C337.57 553.7 337.25 553.63 336.94 553.58C336.62 553.53 336.3 553.49 335.98 553.46C335.66 553.43 335.34 553.42 335.02 553.42C334.7 553.41 334.38 553.43 334.06 553.45C334.06 552.95 334.11 552.45 334.13 551.88C334.29 546.22 333.62 538.35 328.23 541.68C323.06 544.9 326.75 550.24 330.09 553.68C330.38 553.98 330.66 554.25 330.94 554.52C327.94 556.71 327.32 561.74 326.81 567.01C326.3 572.28 321.81 578.01 318.87 581.31C318.58 581.64 318.3 581.94 318.03 582.22C317.43 581.74 316.79 581.33 316.1 580.98C315.42 580.64 314.7 580.37 313.96 580.18C313.22 579.99 312.46 579.88 311.69 579.85C310.93 579.82 310.16 579.87 309.41 580L309.01 578.54C306.61 569.87 301.62 554.85 295.26 551.54L296.1 550.48C298.8 546.94 301.84 541.69 297.35 540.35C292.86 539.01 292.45 544.9 292.7 549.35C292.7 549.9 292.78 550.43 292.83 550.92C292.38 550.94 291.94 551.01 291.5 551.12C291.07 551.23 290.64 551.38 290.24 551.58C289.84 551.78 289.45 552.01 289.1 552.29C288.74 552.56 288.41 552.87 288.12 553.21C287.91 552.95 287.68 552.68 287.43 552.39C283.79 548.08 277.1 541.27 275.08 546.39C273.2 551.19 279.08 557.39 283.22 561.05L283.48 561.27C280.7 572.55 292.82 581.73 299.36 585.75C299.65 585.94 299.93 586.11 300.2 586.27C291.2 596.88 285.63 616.78 285.63 616.78L310.89 621.37C310.89 621.37 327.62 606.94 325.48 593.37L325.65 593.37C342.36 590.02 346.16 572.2 343.56 561.62L343.85 561.5C344.61 561.19 345.34 560.83 346.05 560.43C346.76 560.02 347.45 559.57 348.1 559.08C348.75 558.58 349.37 558.05 349.96 557.48C350.54 556.9 351.09 556.29 351.59 555.65C356.23 549.17 346.42 541.82 341.62 548.17Z" />
	<path id="Layer" class="shp8" d="M341.62 548.17C341.36 548.52 341.12 548.88 340.89 549.25C340.66 549.62 340.44 550 340.24 550.38C340.03 550.77 339.84 551.16 339.67 551.56C339.49 551.96 339.33 552.36 339.18 552.77C339.03 553.17 338.88 553.63 338.73 554.07C338.66 554.04 338.59 554.01 338.52 553.98C338.46 553.95 338.39 553.92 338.31 553.9C338.24 553.87 338.17 553.85 338.1 553.83C338.03 553.81 337.95 553.8 337.88 553.78C337.57 553.7 337.25 553.63 336.94 553.58C336.62 553.53 336.3 553.49 335.98 553.46C335.66 553.43 335.34 553.42 335.02 553.42C334.7 553.41 334.38 553.43 334.06 553.45C334.06 552.95 334.11 552.45 334.13 551.88C334.29 546.22 333.62 538.35 328.23 541.68C323.06 544.9 326.75 550.24 330.09 553.68C330.38 553.98 330.66 554.25 330.94 554.52C327.94 556.71 327.32 561.74 326.81 567.01C326.3 572.28 321.81 578.01 318.87 581.31C318.58 581.64 318.3 581.94 318.03 582.22C317.43 581.74 316.79 581.33 316.1 580.98C315.42 580.64 314.7 580.37 313.96 580.18C313.22 579.99 312.46 579.88 311.69 579.85C310.93 579.82 310.16 579.87 309.41 580L309.01 578.54C306.61 569.87 301.62 554.85 295.26 551.54L296.1 550.48C298.8 546.94 301.84 541.69 297.35 540.35C292.86 539.01 292.45 544.9 292.7 549.35C292.7 549.9 292.78 550.43 292.83 550.92C292.38 550.94 291.94 551.01 291.5 551.12C291.07 551.23 290.64 551.38 290.24 551.58C289.84 551.78 289.45 552.01 289.1 552.29C288.74 552.56 288.41 552.87 288.12 553.21C287.91 552.95 287.68 552.68 287.43 552.39C283.79 548.08 277.1 541.27 275.08 546.39C273.2 551.19 279.08 557.39 283.22 561.05L283.48 561.27C280.7 572.55 292.82 581.73 299.36 585.75C299.65 585.94 299.93 586.11 300.2 586.27C291.2 596.88 285.63 616.78 285.63 616.78L310.89 621.37C310.89 621.37 327.62 606.94 325.48 593.37L325.65 593.37C342.36 590.02 346.16 572.2 343.56 561.62L343.85 561.5C344.61 561.19 345.34 560.83 346.05 560.43C346.76 560.02 347.45 559.57 348.1 559.08C348.75 558.58 349.37 558.05 349.96 557.48C350.54 556.9 351.09 556.29 351.59 555.65C356.23 549.17 346.42 541.82 341.62 548.17Z" />
	<path id="Layer" class="shp1" d="M291.42 555.47L288.47 564.11C288.47 564.11 286.83 562.95 284.76 561.11C280.62 557.49 274.76 551.25 276.62 546.45C278.62 541.29 285.33 548.1 288.98 552.45C290.44 554.17 291.42 555.47 291.42 555.47Z" />
	<path id="Layer" class="shp1" d="M297.64 550.55C297.42 550.84 297.19 551.13 296.96 551.42C296.72 551.71 296.49 552 296.25 552.28C296.01 552.56 295.77 552.84 295.52 553.11C295.27 553.39 295.02 553.66 294.77 553.93C294.71 553.55 294.65 553.18 294.59 552.8C294.54 552.42 294.49 552.05 294.45 551.67C294.4 551.29 294.36 550.91 294.33 550.53C294.29 550.15 294.26 549.77 294.24 549.39C294 544.97 294.46 539.1 298.89 540.39C303.32 541.68 300.34 547.01 297.64 550.55Z" />
	<path id="Layer" class="shp1" d="M335.68 551.91C335.58 554.75 335.31 557.02 335.31 557.02C334.99 556.77 334.67 556.51 334.35 556.24C334.03 555.98 333.72 555.71 333.42 555.44C333.11 555.16 332.81 554.88 332.51 554.6C332.21 554.31 331.92 554.02 331.63 553.73C328.29 550.27 324.63 544.93 329.78 541.73C335.17 538.38 335.83 546.25 335.68 551.91Z" />
	<path id="Layer" class="shp1" d="M353.1 555.63C352.6 556.27 352.05 556.88 351.47 557.46C350.88 558.03 350.26 558.56 349.61 559.06C348.96 559.55 348.27 560 347.56 560.41C346.85 560.81 346.12 561.17 345.36 561.48C345.15 561.57 344.94 561.66 344.72 561.75C344.51 561.83 344.29 561.91 344.08 561.99C343.86 562.07 343.64 562.15 343.42 562.22C343.2 562.29 342.98 562.36 342.76 562.42L339.29 557.54C339.38 557.14 339.48 556.74 339.59 556.34C339.69 555.94 339.81 555.54 339.93 555.14C340.05 554.75 340.17 554.36 340.31 553.97C340.44 553.57 340.58 553.19 340.73 552.8C340.88 552.39 341.04 551.99 341.21 551.59C341.39 551.19 341.58 550.8 341.78 550.41C341.99 550.03 342.21 549.65 342.44 549.28C342.67 548.91 342.91 548.55 343.17 548.2C347.97 541.82 357.77 549.17 353.1 555.63Z" />
	<path id="Layer" class="shp8" d="M288.98 552.43C290.44 554.15 291.42 555.43 291.42 555.43L288.47 564.07C288.47 564.07 286.83 562.91 284.76 561.07C284.87 560.38 285.03 559.7 285.23 559.03C285.43 558.36 285.67 557.71 285.95 557.07C286.23 556.43 286.55 555.81 286.9 555.21C287.26 554.61 287.65 554.03 288.08 553.48C288.38 553.12 288.68 552.77 288.98 552.43Z" />
	<path id="Layer" class="shp8" d="M297.64 550.55C297.42 550.84 297.19 551.13 296.96 551.42C296.72 551.71 296.49 552 296.25 552.28C296.01 552.56 295.77 552.84 295.52 553.11C295.27 553.39 295.02 553.66 294.77 553.93C294.71 553.55 294.65 553.18 294.59 552.8C294.54 552.42 294.49 552.05 294.45 551.67C294.4 551.29 294.36 550.91 294.33 550.53C294.29 550.15 294.26 549.77 294.24 549.39C294.54 549.4 294.85 549.42 295.15 549.48C295.45 549.53 295.74 549.6 296.03 549.7C296.32 549.8 296.6 549.92 296.87 550.06C297.14 550.21 297.4 550.37 297.64 550.55L297.64 550.55Z" />
	<path id="Layer" class="shp1" d="M312.14 584.81L304.81 588.04C304.48 587.87 304.14 587.7 303.81 587.53C303.48 587.35 303.15 587.17 302.83 586.99C302.5 586.8 302.18 586.61 301.86 586.42C301.53 586.23 301.22 586.03 300.9 585.83C293.19 581.09 277.69 569.16 288.08 555.09C298.47 541.02 307.14 566.25 310.55 578.59C311.59 582.28 312.14 584.81 312.14 584.81Z" />
	<path id="Layer" class="shp8" d="M331.63 553.73C331.89 553.46 332.18 553.21 332.49 552.99C332.8 552.77 333.13 552.59 333.48 552.43C333.83 552.28 334.19 552.15 334.56 552.07C334.92 551.98 335.3 551.93 335.68 551.91C335.58 554.75 335.31 557.02 335.31 557.02C334.99 556.77 334.67 556.51 334.35 556.24C334.03 555.98 333.72 555.71 333.42 555.44C333.11 555.16 332.81 554.88 332.51 554.6C332.21 554.31 331.92 554.02 331.63 553.73L331.63 553.73Z" />
	<path id="Layer" class="shp8" d="M345.36 561.48C345.15 561.57 344.94 561.66 344.72 561.75C344.51 561.83 344.29 561.91 344.08 561.99C343.86 562.07 343.64 562.15 343.42 562.22C343.2 562.29 342.98 562.36 342.76 562.42L339.29 557.54C339.38 557.14 339.48 556.74 339.59 556.34C339.69 555.94 339.81 555.54 339.93 555.14C340.05 554.75 340.17 554.36 340.31 553.97C340.44 553.57 340.58 553.19 340.73 552.8C342.97 554.11 344.62 557.37 345.36 561.48Z" />
	<path id="Layer" class="shp1" d="M327.15 593.35C326.75 593.43 326.33 593.51 325.92 593.57C301.33 597.31 317.81 584.04 317.81 584.04C317.81 584.04 318.92 583.04 320.42 581.36C323.42 578.08 327.85 572.36 328.36 567.06C329.13 559.06 330.02 551.61 339.43 553.81C348.66 555.97 350.42 588.69 327.15 593.35Z" />
	<path id="Layer" class="shp11" d="M279.72 654.57L326.7 654.57L326.7 666.92L279.72 666.92L279.72 654.57Z" />
	<path id="Layer" class="shp11" d="M272.25 614.42L333.63 614.42L333.63 657.53L272.25 657.53L272.25 614.42Z" />
	<path id="Layer" class="shp8" d="M279.72 654.57L326.7 654.57L326.7 666.92L279.72 666.92L279.72 654.57Z" />
	<path id="Layer" class="shp8" d="M272.25 614.42L333.63 614.42L333.63 657.53L272.25 657.53L272.25 614.42Z" />
	<path id="Layer" class="shp11" d="M282.8 654.57L329.78 654.57L329.78 666.92L282.8 666.92L282.8 654.57Z" />
	<path id="Layer" class="shp8" d="M310.55 578.59C311.55 582.28 312.14 584.81 312.14 584.81L304.81 588.04C304.48 587.87 304.14 587.7 303.81 587.53C303.48 587.35 303.15 587.17 302.83 586.99C302.5 586.8 302.18 586.61 301.86 586.42C301.53 586.23 301.22 586.03 300.9 585.83C303.77 582.17 307.01 579.44 310.55 578.59Z" />
	<path id="Layer" class="shp8" d="M327.15 593.35C326.75 593.43 326.33 593.51 325.92 593.57C301.33 597.31 317.81 584.04 317.81 584.04C317.81 584.04 318.92 583.04 320.42 581.36C325.01 585.03 326.89 589.17 327.15 593.35Z" />
	<path id="Layer" class="shp1" d="M287.18 616.86C287.18 616.86 300.95 567.58 320.25 582.76C339.55 597.94 312.4 621.37 312.4 621.37L287.18 616.86Z" />
	<path id="Layer" class="shp8" d="M294.13 564.36C293.28 564.36 292.59 563.67 292.59 562.82C292.59 561.97 293.28 561.28 294.13 561.28C294.98 561.28 295.67 561.97 295.67 562.82C295.67 563.67 294.98 564.36 294.13 564.36Z" />
	<path id="Layer" class="shp8" d="M294 571.56C293.15 571.56 292.46 570.87 292.46 570.02C292.46 569.17 293.15 568.48 294 568.48C294.85 568.48 295.54 569.17 295.54 570.02C295.54 570.87 294.85 571.56 294 571.56Z" />
	<path id="Layer" class="shp8" d="M338.78 565.77C337.93 565.77 337.24 565.08 337.24 564.23C337.24 563.38 337.93 562.69 338.78 562.69C339.63 562.69 340.32 563.38 340.32 564.23C340.32 565.08 339.63 565.77 338.78 565.77Z" />
	<path id="Layer" class="shp8" d="M302.75 602.7C301.9 602.7 301.21 602.01 301.21 601.16C301.21 600.31 301.9 599.62 302.75 599.62C303.6 599.62 304.29 600.31 304.29 601.16C304.29 602.01 303.6 602.7 302.75 602.7Z" />
	<path id="Layer" class="shp8" d="M335.57 577.74C334.72 577.74 334.03 577.05 334.03 576.2C334.03 575.35 334.72 574.66 335.57 574.66C336.42 574.66 337.11 575.35 337.11 576.2C337.11 577.05 336.42 577.74 335.57 577.74Z" />
	<path id="Layer" class="shp8" d="M319.61 593.7C318.76 593.7 318.07 593.01 318.07 592.16C318.07 591.31 318.76 590.62 319.61 590.62C320.46 590.62 321.15 591.31 321.15 592.16C321.15 593.01 320.46 593.7 319.61 593.7Z" />
	<path id="Layer" class="shp8" d="M299.41 567.44C298.56 567.44 297.87 566.75 297.87 565.9C297.87 565.05 298.56 564.36 299.41 564.36C300.26 564.36 300.95 565.05 300.95 565.9C300.95 566.75 300.26 567.44 299.41 567.44Z" />
	<path id="Layer" class="shp8" d="M334.54 570.4C333.69 570.4 333 569.71 333 568.86C333 568.01 333.69 567.32 334.54 567.32C335.39 567.32 336.08 568.01 336.08 568.86C336.08 569.71 335.39 570.4 334.54 570.4Z" />
	<path id="Layer" class="shp8" d="M329.26 582.37C328.41 582.37 327.72 581.68 327.72 580.83C327.72 579.98 328.41 579.29 329.26 579.29C330.11 579.29 330.8 579.98 330.8 580.83C330.8 581.68 330.11 582.37 329.26 582.37Z" />
	<path id="Layer" class="shp8" d="M313.05 601.55C312.2 601.55 311.51 600.86 311.51 600.01C311.51 599.16 312.2 598.47 313.05 598.47C313.9 598.47 314.59 599.16 314.59 600.01C314.59 600.86 313.9 601.55 313.05 601.55Z" />
	<path id="Layer" class="shp8" d="M309.7 593.95C308.85 593.95 308.16 593.26 308.16 592.41C308.16 591.56 308.85 590.87 309.7 590.87C310.55 590.87 311.24 591.56 311.24 592.41C311.24 593.26 310.55 593.95 309.7 593.95Z" />
	<path id="Layer" class="shp8" d="M301.72 576.84C300.87 576.84 300.18 576.15 300.18 575.3C300.18 574.45 300.87 573.76 301.72 573.76C302.57 573.76 303.26 574.45 303.26 575.3C303.26 576.15 302.57 576.84 301.72 576.84Z" />
	<path id="Layer" class="shp8" d="M282.8 654.57L329.78 654.57L329.78 659.08L282.8 659.08L282.8 654.57Z" />
	<path id="Layer" class="shp11" d="M275.34 614.42L336.72 614.42L336.72 657.53L275.34 657.53L275.34 614.42Z" />
	<path id="Layer" class="shp8" d="M315.11 608.5C314.26 608.5 313.57 607.81 313.57 606.96C313.57 606.11 314.26 605.42 315.11 605.42C315.96 605.42 316.65 606.11 316.65 606.96C316.65 607.81 315.96 608.5 315.11 608.5Z" />
	<path id="Layer" class="shp8" d="M305.84 610.43C304.99 610.43 304.3 609.74 304.3 608.89C304.3 608.04 304.99 607.35 305.84 607.35C306.69 607.35 307.38 608.04 307.38 608.89C307.38 609.74 306.69 610.43 305.84 610.43Z" />
</svg>