<svg version="1.2" baseProfile="tiny-ps" xmlns="http://www.w3.org/2000/svg" viewBox="0 0 1047 698" width="1047" height="698">
	<title>parque-svg</title>
	<style>
		tspan { white-space:pre }
		.shp0 { fill: #3f3d56 } 
		.shp1 { fill: #b3018a } 
		.shp2 { opacity: 0.2;fill: #000000 } 
		.shp3 { fill: #e6e6e6 } 
		.shp4 { fill: #ffffff } 
		.shp5 { fill: #9e616a } 
		.shp6 { fill: #2f2e41 } 
	</style>
	<path id="Layer" class="shp0" d="M564.6 593.37L503.42 593.37L503.42 595.34L512.96 595.34L512.96 614.09L514.93 614.09L514.93 595.34L552.1 595.34L552.1 614.09L554.07 614.09L554.07 595.34L564.6 595.34L564.6 593.37L564.6 593.37Z" />
	<path id="Layer" class="shp0" d="M587.3 545.01L571.51 545.01L571.51 560.8L578.83 560.8L578.83 614.01L580.8 614.01L580.8 560.8L587.3 560.8L587.3 545.01L587.3 545.01Z" />
	<path id="Layer" class="shp0" d="M494.54 380.46L555.72 380.46L555.72 382.44L494.54 382.44L494.54 380.46Z" />
	<path id="Layer" class="shp0" d="M494.54 375.53L555.72 375.53L555.72 377.5L494.54 377.5L494.54 375.53Z" />
	<path id="Layer" class="shp0" d="M494.54 370.6L555.72 370.6L555.72 372.57L494.54 372.57L494.54 370.6Z" />
	<path id="Layer" class="shp0" d="M712.51 412.78L710.54 412.78C710.54 319.19 634.39 243.04 540.8 243.04C447.2 243.04 371.06 319.19 371.06 412.78L369.08 412.78C369.08 318.1 446.12 241.07 540.8 241.07C635.48 241.07 712.51 318.1 712.51 412.78Z" />
	<path id="Layer" class="shp1" d="M255.35 360.7C166.12 360.7 94 288.58 94 199.35C94 110.12 166.12 38 255.35 38C344.58 38 416.7 110.12 416.7 199.35C416.7 288.58 344.58 360.7 255.35 360.7Z" />
	<path id="Layer" class="shp2" d="M375.38 91.58C390.43 126.79 392.47 166.2 381.14 202.77C369.8 239.34 345.84 270.69 313.52 291.22C281.2 311.75 242.63 320.12 204.71 314.83C166.79 309.54 131.98 290.94 106.52 262.35C125.12 305.88 161.91 339.05 207.13 353.06C252.35 367.08 301.45 360.52 341.41 335.14C381.37 309.76 408.18 268.1 414.71 221.21C421.25 174.32 406.87 126.93 375.38 91.58Z" />
	<path id="Layer" class="shp0" d="M255.79 199.35L256.24 199.35L264.22 656.81L247.37 656.81L255.79 199.35L255.79 199.35Z" />
	<path id="Layer" class="shp0" d="M281.46 441.47L285.17 448.53L258.5 462.57L254.79 455.51L281.46 441.47Z" />
	<path id="Layer" class="shp1" d="M849.28 398.4C777.06 398.4 718.68 340.02 718.68 267.81C718.68 195.59 777.06 137.21 849.28 137.21C921.49 137.21 979.87 195.59 979.87 267.81C979.87 340.02 921.49 398.4 849.28 398.4Z" />
	<path id="Layer" class="shp2" d="M946.42 180.58C958.6 209.07 960.25 240.97 951.08 270.57C941.91 300.17 922.51 325.55 896.35 342.16C870.2 358.78 838.98 365.55 808.29 361.27C777.6 356.99 749.43 341.93 728.81 318.8C743.87 354.03 773.65 380.87 810.25 392.22C846.85 403.56 886.59 398.25 918.93 377.71C951.28 357.16 972.97 323.45 978.26 285.5C983.55 247.55 971.91 209.19 946.42 180.58L946.42 180.58Z" />
	<path id="Layer" class="shp0" d="M849.63 267.81L849.99 267.81L856.45 638.06L842.82 638.06L849.63 267.81L849.63 267.81Z" />
	<path id="Layer" class="shp0" d="M870.41 463.77L873.41 469.48L851.83 480.85L848.82 475.13L870.41 463.77Z" />
	<path id="Layer" class="shp1" d="M463.91 380.26C452.54 380.26 443.35 371.07 443.35 359.7C443.35 348.33 452.54 339.15 463.91 339.15C475.28 339.15 484.47 348.33 484.47 359.7C484.47 371.07 475.28 380.26 463.91 380.26Z" />
	<path id="Layer" class="shp2" d="M479.2 345.97C481.12 350.46 481.38 355.48 479.93 360.14C478.49 364.8 475.44 368.79 471.32 371.41C467.2 374.02 462.29 375.09 457.45 374.42C452.62 373.74 448.19 371.37 444.94 367.73C447.31 373.28 452 377.5 457.76 379.29C463.53 381.07 469.78 380.24 474.87 377C479.96 373.77 483.38 368.46 484.21 362.49C485.05 356.51 483.21 350.48 479.2 345.97Z" />
	<path id="Layer" class="shp0" d="M463.96 359.7L464.02 359.7L465.04 417.99L462.89 417.99L463.96 359.7L463.96 359.7Z" />
	<path id="Layer" class="shp0" d="M467.23 390.55L467.71 391.45L464.31 393.24L463.84 392.34L467.23 390.55Z" />
	<path id="Layer" class="shp1" d="M653.88 346.07C624.77 346.07 601.25 322.55 601.25 293.44C601.25 264.34 624.77 240.81 653.88 240.81C682.98 240.81 706.51 264.34 706.51 293.44C706.51 322.55 682.98 346.07 653.88 346.07Z" />
	<path id="Layer" class="shp2" d="M693.03 258.29C697.94 269.77 698.6 282.63 694.91 294.56C691.21 306.49 683.39 316.71 672.85 323.41C662.31 330.11 649.73 332.84 637.36 331.11C624.99 329.39 613.64 323.32 605.33 313.99C611.4 328.19 623.4 339.01 638.15 343.58C652.9 348.15 668.91 346.02 681.95 337.74C694.99 329.46 703.73 315.87 705.86 300.57C707.99 285.28 703.3 269.82 693.03 258.29L693.03 258.29Z" />
	<path id="Layer" class="shp0" d="M654.02 293.44L654.17 293.44L656.77 442.66L651.27 442.66L654.02 293.44L654.02 293.44Z" />
	<path id="Layer" class="shp0" d="M662.39 372.42L663.61 374.72L654.91 379.3L653.69 377L662.39 372.42Z" />
	<path id="Layer" class="shp0" d="M291.52 634.04C291.52 634.04 292.2 619.76 306.18 621.42" />
	<path id="Layer" class="shp1" d="M287.58 620.45C283.71 620.45 280.58 617.32 280.58 613.46C280.58 609.59 283.71 606.46 287.58 606.46C291.44 606.46 294.57 609.59 294.57 613.46C294.57 617.32 291.44 620.45 287.58 620.45Z" />
	<path id="Layer" class="shp0" d="M286.44 625.23L288.41 625.23L288.41 639.05L286.44 639.05L286.44 625.23Z" />
	<path id="Layer" class="shp0" d="M340.87 601.47C340.87 601.47 341.55 587.19 355.52 588.85" />
	<path id="Layer" class="shp1" d="M336.92 587.88C333.05 587.88 329.93 584.76 329.93 580.89C329.93 577.02 333.05 573.9 336.92 573.9C340.79 573.9 343.91 577.02 343.91 580.89C343.91 584.76 340.79 587.88 336.92 587.88Z" />
	<path id="Layer" class="shp0" d="M335.78 592.66L337.75 592.66L337.75 606.48L335.78 606.48L335.78 592.66Z" />
	<path id="Layer" class="shp0" d="M489.6 490.99C489.6 490.99 490.15 479.65 501.24 480.96" />
	<path id="Layer" class="shp1" d="M486.47 480.19C483.4 480.19 480.92 477.71 480.92 474.64C480.92 471.57 483.4 469.09 486.47 469.09C489.54 469.09 492.02 471.57 492.02 474.64C492.02 477.71 489.54 480.19 486.47 480.19Z" />
	<path id="Layer" class="shp0" d="M485.57 483.99L487.13 483.99L487.13 494.97L485.57 494.97L485.57 483.99Z" />
	<path id="Layer" class="shp0" d="M706.71 455.46C706.71 455.46 707.26 444.12 718.35 445.44" />
	<path id="Layer" class="shp1" d="M703.58 444.67C700.51 444.67 698.03 442.18 698.03 439.11C698.03 436.04 700.51 433.56 703.58 433.56C706.65 433.56 709.13 436.04 709.13 439.11C709.13 442.18 706.65 444.67 703.58 444.67Z" />
	<path id="Layer" class="shp0" d="M702.68 448.47L704.24 448.47L704.24 459.44L702.68 459.44L702.68 448.47Z" />
	<path id="Layer" class="shp0" d="M499.47 520.59C499.47 520.59 500.01 509.25 511.11 510.57" />
	<path id="Layer" class="shp1" d="M496.34 509.8C493.27 509.8 490.78 507.32 490.78 504.25C490.78 501.18 493.27 498.69 496.34 498.69C499.41 498.69 501.89 501.18 501.89 504.25C501.89 507.32 499.41 509.8 496.34 509.8Z" />
	<path id="Layer" class="shp0" d="M495.43 513.6L497 513.6L497 524.57L495.43 524.57L495.43 513.6Z" />
	<path id="Layer" class="shp0" d="M475.79 542.3C475.79 542.3 476.33 530.96 487.43 532.28" />
	<path id="Layer" class="shp1" d="M472.65 531.51C469.58 531.51 467.1 529.03 467.1 525.96C467.1 522.89 469.58 520.4 472.65 520.4C475.72 520.4 478.21 522.89 478.21 525.96C478.21 529.03 475.72 531.51 472.65 531.51Z" />
	<path id="Layer" class="shp0" d="M471.75 535.31L473.32 535.31L473.32 546.28L471.75 546.28L471.75 535.31Z" />
	<path id="Layer" class="shp0" d="M740.27 474.21C740.27 474.21 740.81 462.87 751.91 464.19" />
	<path id="Layer" class="shp1" d="M737.13 463.42C734.06 463.42 731.58 460.93 731.58 457.86C731.58 454.79 734.06 452.31 737.13 452.31C740.2 452.31 742.69 454.79 742.69 457.86C742.69 460.93 740.2 463.42 737.13 463.42Z" />
	<path id="Layer" class="shp0" d="M736.23 467.22L737.8 467.22L737.8 478.19L736.23 478.19L736.23 467.22Z" />
	<path id="Layer" class="shp0" d="M420.52 498.88C420.52 498.88 421.07 487.54 432.16 488.86" />
	<path id="Layer" class="shp1" d="M417.39 488.09C414.32 488.09 411.84 485.61 411.84 482.54C411.84 479.46 414.32 476.98 417.39 476.98C420.46 476.98 422.94 479.46 422.94 482.54C422.94 485.61 420.46 488.09 417.39 488.09Z" />
	<path id="Layer" class="shp0" d="M416.49 491.89L418.05 491.89L418.05 502.86L416.49 502.86L416.49 491.89Z" />
	<path id="Layer" class="shp0" d="M677.11 442.63C677.11 442.63 677.65 431.29 688.75 432.61" />
	<path id="Layer" class="shp1" d="M673.97 431.84C670.9 431.84 668.42 429.36 668.42 426.28C668.42 423.21 670.9 420.73 673.97 420.73C677.04 420.73 679.53 423.21 679.53 426.28C679.53 429.36 677.04 431.84 673.97 431.84Z" />
	<path id="Layer" class="shp0" d="M673.07 435.64L674.64 435.64L674.64 446.61L673.07 446.61L673.07 435.64Z" />
	<path id="Layer" class="shp0" d="M205.67 637C205.67 637 206.35 622.72 220.32 624.38" />
	<path id="Layer" class="shp1" d="M201.72 623.41C197.85 623.41 194.73 620.28 194.73 616.42C194.73 612.55 197.85 609.43 201.72 609.43C205.59 609.43 208.71 612.55 208.71 616.42C208.71 620.28 205.59 623.41 201.72 623.41Z" />
	<path id="Layer" class="shp0" d="M200.58 628.19L202.55 628.19L202.55 642.01L200.58 642.01L200.58 628.19Z" />
	<path id="Layer" class="shp0" d="M885.61 633.05C885.61 633.05 886.29 618.77 900.27 620.43" />
	<path id="Layer" class="shp1" d="M881.67 619.46C877.8 619.46 874.67 616.34 874.67 612.47C874.67 608.6 877.8 605.48 881.67 605.48C885.53 605.48 888.66 608.6 888.66 612.47C888.66 616.34 885.53 619.46 881.67 619.46Z" />
	<path id="Layer" class="shp0" d="M880.53 624.24L882.5 624.24L882.5 638.06L880.53 638.06L880.53 624.24Z" />
	<path id="Layer" class="shp0" d="M828.38 599.5C828.38 599.5 829.06 585.22 843.03 586.88" />
	<path id="Layer" class="shp1" d="M824.43 585.91C820.56 585.91 817.44 582.78 817.44 578.92C817.44 575.05 820.56 571.92 824.43 571.92C828.29 571.92 831.42 575.05 831.42 578.92C831.42 582.78 828.29 585.91 824.43 585.91Z" />
	<path id="Layer" class="shp0" d="M823.29 590.69L825.26 590.69L825.26 604.51L823.29 604.51L823.29 590.69Z" />
	<path id="Layer" class="shp0" d="M820.48 649.83C820.48 649.83 821.16 635.55 835.13 637.21" />
	<path id="Layer" class="shp1" d="M816.53 636.24C812.67 636.24 809.54 633.11 809.54 629.25C809.54 625.38 812.67 622.25 816.53 622.25C820.4 622.25 823.53 625.38 823.53 629.25C823.53 633.11 820.4 636.24 816.53 636.24Z" />
	<path id="Layer" class="shp0" d="M815.4 641.02L817.37 641.02L817.37 654.84L815.4 654.84L815.4 641.02Z" />
	<path id="Layer" class="shp3" d="M217.03 660.48C217.03 660.48 527.89 578.58 524.93 494.69C519.5 471.5 482 465.58 482 465.58C482 465.58 393.18 453.74 441.54 425.12C489.89 396.5 622.13 403.41 622.13 403.41C622.13 403.41 485.95 425.12 546.14 436.96C594.5 439.92 656.67 452.75 656.67 452.75C656.67 452.75 782.99 479.4 800.75 544.53C818.52 609.66 803.72 659.99 803.72 659.99L217.03 660.48Z" />
	<path id="Layer" class="shp4" d="M555.61 660.8L554.44 659.18C556.09 658 557.71 656.83 559.3 655.67L560.48 657.29C558.88 658.45 557.25 659.62 555.61 660.8Z" />
	<path id="Layer" class="shp4" d="M570.12 650.13L568.91 648.54C572.14 646.09 575.32 643.63 578.37 641.22L579.61 642.79C576.55 645.2 573.36 647.68 570.12 650.13ZM588.94 635.23L587.66 633.69C590.79 631.09 593.85 628.48 596.75 625.93L598.07 627.43C595.16 630 592.08 632.62 588.94 635.23L588.94 635.23ZM606.97 619.36L605.6 617.9C608.59 615.1 611.47 612.3 614.16 609.57L615.58 610.98C612.87 613.72 609.98 616.54 606.97 619.36L606.97 619.36ZM623.83 602.22L622.34 600.89C625.09 597.83 627.68 594.77 630.05 591.79L631.62 593.04C629.22 596.05 626.6 599.14 623.83 602.22L623.83 602.22ZM638.78 583.35L637.13 582.23C639.46 578.82 641.56 575.42 643.37 572.12L645.12 573.08C643.28 576.44 641.15 579.89 638.78 583.35ZM650.28 562.14L648.42 561.41C648.79 560.5 649.13 559.57 649.45 558.64C649.77 557.71 650.08 556.78 650.36 555.84C650.64 554.9 650.91 553.95 651.15 552.99C651.39 552.04 651.62 551.08 651.82 550.12L653.78 550.52C653.57 551.51 653.34 552.5 653.09 553.48C652.84 554.46 652.57 555.44 652.28 556.41C651.99 557.38 651.68 558.34 651.34 559.29C651.01 560.25 650.66 561.2 650.28 562.14L650.28 562.14ZM652.95 538.44C652.94 537.47 652.89 536.5 652.82 535.54C652.75 534.57 652.64 533.6 652.51 532.64C652.37 531.68 652.21 530.72 652.01 529.77C651.82 528.82 651.6 527.87 651.35 526.94L653.28 526.42C653.54 527.39 653.77 528.38 653.97 529.37C654.18 530.36 654.35 531.36 654.49 532.36C654.63 533.36 654.74 534.37 654.81 535.38C654.89 536.39 654.94 537.4 654.95 538.41L652.95 538.44ZM646.97 516.14C646.5 515.28 646 514.44 645.49 513.61C644.97 512.77 644.43 511.95 643.88 511.15C643.32 510.34 642.75 509.55 642.15 508.77C641.56 507.99 640.95 507.23 640.31 506.48L641.85 505.19C642.5 505.97 643.13 506.76 643.75 507.56C644.36 508.37 644.96 509.19 645.53 510.02C646.1 510.85 646.66 511.7 647.19 512.56C647.72 513.42 648.23 514.29 648.73 515.18L646.97 516.14ZM632.05 498.04C631.31 497.38 630.56 496.74 629.8 496.1C629.04 495.47 628.27 494.85 627.49 494.24C626.71 493.62 625.93 493.02 625.13 492.43C624.34 491.84 623.54 491.26 622.73 490.69L623.88 489.06C624.7 489.64 625.52 490.23 626.33 490.83C627.14 491.43 627.94 492.04 628.73 492.67C629.52 493.29 630.31 493.93 631.08 494.57C631.86 495.22 632.62 495.87 633.38 496.54L632.05 498.04ZM612.7 484.25C609.43 482.33 605.9 480.41 602.22 478.55L603.12 476.76C606.84 478.64 610.41 480.58 613.72 482.53L612.7 484.25ZM591.41 473.44C587.92 471.89 584.22 470.33 580.38 468.81L581.12 466.95C584.98 468.49 588.71 470.05 592.22 471.61L591.41 473.44ZM569.17 464.56C565.61 463.27 561.8 461.94 557.85 460.62L558.48 458.72C562.45 460.05 566.27 461.38 569.85 462.68L569.17 464.56ZM546.44 456.91C542.95 455.81 539.2 454.66 534.97 453.37L535.55 451.46C539.79 452.74 543.55 453.9 547.04 455L546.44 456.91ZM523.46 449.92C519.41 448.71 515.56 447.55 511.95 446.44L512.53 444.53C516.14 445.64 519.99 446.8 524.03 448L523.46 449.92ZM500.48 442.73C499.51 442.41 498.56 442.08 497.61 441.73C496.66 441.39 495.71 441.02 494.77 440.64C493.83 440.27 492.9 439.87 491.97 439.47C491.05 439.06 490.13 438.64 489.21 438.2L490.11 436.41C491 436.84 491.9 437.25 492.81 437.65C493.72 438.05 494.63 438.43 495.55 438.8C496.47 439.17 497.39 439.53 498.32 439.87C499.25 440.21 500.19 440.53 501.13 440.84L500.48 442.73ZM485.37 429.62L483.95 428.22C485.77 426.37 489.38 424.55 494.97 422.68L495.61 424.57C490.39 426.32 486.95 428.02 485.37 429.62L485.37 429.62ZM507.05 421.32L506.57 419.37C510.03 418.51 513.97 417.61 518.28 416.7L518.69 418.65C514.4 419.56 510.49 420.46 507.05 421.32L507.05 421.32ZM530.42 416.3L530.04 414.33C533.73 413.63 537.7 412.9 541.84 412.16L542.19 414.13C538.06 414.87 534.1 415.59 530.42 416.3L530.42 416.3ZM553.99 412.1L553.66 410.13C557.43 409.5 561.37 408.85 565.49 408.19L565.81 410.17C561.69 410.83 557.75 411.47 553.99 412.1Z" />
	<path id="Layer" class="shp4" d="M577.87 408.27L577.56 406.29C579.5 405.99 581.48 405.69 583.49 405.38L583.8 407.36C581.78 407.66 579.81 407.97 577.87 408.27Z" />
	<path id="Layer" class="shp0" d="M622.13 205.12L631.21 197.85C624.16 197.07 621.26 200.92 620.07 203.97C614.56 201.68 608.55 204.68 608.55 204.68L626.73 211.28C626.5 210.67 626.23 210.08 625.92 209.51C625.61 208.94 625.26 208.39 624.87 207.87C624.48 207.35 624.06 206.86 623.6 206.4C623.14 205.94 622.65 205.51 622.13 205.12Z" />
	<path id="Layer" class="shp0" d="M453.38 261.37L462.46 254.1C455.4 253.33 452.5 257.17 451.32 260.22C445.8 257.93 439.8 260.93 439.8 260.93L457.98 267.53C457.75 266.92 457.48 266.33 457.17 265.76C456.86 265.19 456.5 264.64 456.12 264.12C455.73 263.6 455.3 263.11 454.84 262.65C454.39 262.19 453.89 261.76 453.38 261.37L453.38 261.37Z" />
	<path id="Layer" class="shp0" d="M497.78 144.92L506.87 137.65C499.81 136.88 496.91 140.72 495.73 143.77C490.21 141.48 484.21 144.48 484.21 144.48L502.39 151.08C502.16 150.47 501.89 149.88 501.58 149.31C501.26 148.74 500.91 148.19 500.52 147.67C500.14 147.15 499.71 146.66 499.25 146.2C498.79 145.74 498.3 145.31 497.78 144.92Z" />
	<path id="Layer" class="shp5" d="M596.54 468.44C596.54 468.44 588.68 468.44 587.8 473.25C586.93 478.06 585.62 530.52 586.49 537.07C587.36 543.63 587.36 542.32 587.36 542.32C587.36 542.32 585.62 554.78 589.55 555.33C593.48 555.87 593.48 541.01 593.48 541.01L596.54 487.68L596.54 468.44Z" />
	<path id="Layer" class="shp5" d="M630.64 468.44C630.64 468.44 638.51 468.44 639.38 473.25C640.26 478.06 641.57 530.52 640.7 537.07C639.82 543.63 639.82 542.32 639.82 542.32C639.82 542.32 641.57 554.78 637.63 555.33C633.7 555.87 633.7 541.01 633.7 541.01L630.64 487.68L630.64 468.44Z" />
	<path id="Layer" class="shp6" d="M595.23 651.17L591.74 651.17C590.7 651.17 589.68 651.38 588.72 651.77C587.77 652.17 586.9 652.75 586.17 653.48C585.44 654.21 584.86 655.07 584.47 656.03C584.07 656.98 583.87 658.01 583.87 659.04L583.87 659.04L605.29 659.04L605.29 648.99L595.23 648.99L595.23 651.17Z" />
	<path id="Layer" class="shp6" d="M628.89 651.17L632.39 651.17C633.42 651.17 634.45 651.38 635.4 651.77C636.36 652.17 637.22 652.75 637.95 653.48C638.69 654.21 639.26 655.07 639.66 656.03C640.06 656.98 640.26 658.01 640.26 659.04L640.26 659.04L618.84 659.04L618.84 648.99L628.89 648.99L628.89 651.17Z" />
	<path id="Layer" class="shp5" d="M610.1 458.39C603.81 458.39 598.73 453.31 598.73 447.02C598.73 440.74 603.81 435.66 610.1 435.66C616.38 435.66 621.46 440.74 621.46 447.02C621.46 453.31 616.38 458.39 610.1 458.39Z" />
	<path id="Layer" class="shp5" d="M607.47 453.14C607.47 453.14 606.16 467.57 604.41 468.88C602.66 470.19 622.77 468 622.77 468C622.77 468 615.78 457.51 617.09 454.02C618.4 450.52 607.47 453.14 607.47 453.14Z" />
	<path id="Layer" class="shp6" d="M633.26 468.44C633.26 468.44 609.22 458.39 593.48 468.44C593.48 468.44 589.55 478.5 592.61 484.18C595.67 489.86 600.48 503.41 595.67 512.59C590.86 521.77 596.11 517.84 596.11 517.84C596.11 517.84 589.99 542.32 589.11 561.56C588.24 580.79 591.74 649.86 594.36 650.3C596.98 650.73 605.29 651.61 606.16 650.3C607.04 648.99 613.16 557.62 613.16 557.62C613.16 557.62 615.78 651.17 618.4 651.17C621.02 651.17 628.02 651.17 629.33 648.99C630.64 646.8 641.57 562.43 637.64 544.94C633.7 527.46 631.08 518.71 631.08 518.71C631.08 518.71 635.89 515.65 634.58 513.91C633.26 512.16 626.71 493.36 629.77 490.3C632.83 487.24 633.26 468.44 633.26 468.44Z" />
	<path id="Layer" class="shp6" d="M617.31 458.53C607.16 458.53 598.95 450.32 598.95 440.17C598.95 430.02 607.16 421.81 617.31 421.81C627.46 421.81 635.67 430.02 635.67 440.17C635.67 450.32 627.46 458.53 617.31 458.53Z" />
	<path id="Layer" class="shp6" d="M628.77 430.98C627.24 430.62 625.79 429.97 624.5 429.07C623.21 428.16 622.11 427.02 621.25 425.7C620.39 424.38 619.78 422.91 619.48 421.37C619.17 419.82 619.16 418.23 619.44 416.69C619.39 416.87 619.34 417.06 619.29 417.26C618.54 420.45 619.1 423.81 620.82 426.6C622.55 429.38 625.31 431.37 628.51 432.12C631.7 432.87 635.06 432.32 637.85 430.59C640.63 428.87 642.62 426.11 643.37 422.92C643.42 422.72 643.46 422.53 643.49 422.34C643.06 423.85 642.34 425.27 641.38 426.51C640.41 427.76 639.22 428.81 637.86 429.61C636.51 430.4 635.01 430.93 633.45 431.17C631.89 431.4 630.31 431.34 628.77 430.98Z" />
	<path id="Layer" class="shp6" d="M629.52 433.37C624.55 433.37 620.54 429.36 620.54 424.39C620.54 419.42 624.55 415.4 629.52 415.4C634.49 415.4 638.51 419.42 638.51 424.39C638.51 429.36 634.49 433.37 629.52 433.37Z" />
</svg>