<svg version="1.2" baseProfile="tiny-ps" xmlns="http://www.w3.org/2000/svg" viewBox="0 0 1017 678" width="1017" height="678">
	<title>pensamientos-svg</title>
	<style>
		tspan { white-space:pre }
		.shp0 { fill: #3f3d56 } 
		.shp1 { fill: #b3018a } 
		.shp2 { fill: #e6e6e6 } 
		.shp3 { fill: #ff6584 } 
		.shp4 { fill: #cccccc } 
		.shp5 { fill: #a0616a } 
		.shp6 { fill: #2f2e41 } 
	</style>
	<path id="Layer" fill-rule="evenodd" class="shp0" d="M972.01 104L972.01 354L415.01 354L415.01 104L972.01 104ZM554.01 352L554.01 106L417.01 106L417.01 352L554.01 352ZM556.01 352L714.01 352L714.01 106L556.01 106L556.01 352ZM970.01 106L716.01 106L716.01 352L970.01 352L970.01 106Z" />
	<path id="Layer" class="shp1" d="M478.39 226.24L440.49 226.24C444.76 208.76 448.85 192.43 440.49 180.77L478.39 180.77C485.52 195.94 485.52 211.1 478.39 226.24Z" />
	<path id="Layer" class="shp2" d="M668.89 311.69L631 311.69C628.63 290.61 633.86 274.9 631 266.22L668.89 266.22C668.53 270 668.26 273.78 668.07 277.57C667.89 281.37 667.8 285.16 667.8 288.96C667.8 292.75 667.89 296.55 668.07 300.34C668.26 304.13 668.53 307.91 668.89 311.69L668.89 311.69Z" />
	<path id="Layer" class="shp1" d="M622.59 245.45L584.7 245.45C586.12 227.97 590.7 211.64 584.7 199.98L622.59 199.98C629.73 215.14 629.73 230.3 622.59 245.45Z" />
	<path id="Layer" class="shp3" d="M655.33 215.72L693.22 215.72C695.59 198.23 690.36 181.9 693.22 170.25L655.33 170.25C648.19 185.4 648.19 200.56 655.33 215.72Z" />
	<path id="Layer" class="shp2" d="M479.55 297.71L517.44 297.71C519.81 280.23 514.58 263.9 517.44 252.24L479.55 252.24C472.41 267.4 472.41 282.56 479.55 297.71Z" />
	<path id="Layer" class="shp0" d="M452.12 125.46L508.01 125.46L508.01 127.46L452.12 127.46L452.12 125.46Z" />
	<path id="Layer" class="shp0" d="M606.12 125.46L662.01 125.46L662.01 127.46L606.12 127.46L606.12 125.46Z" />
	<path id="Layer" class="shp0" d="M815.12 125.46L871.01 125.46L871.01 127.46L815.12 127.46L815.12 125.46Z" />
	<path id="Layer" class="shp4" d="M104.91 449.49L104.91 452.23C104.92 454.47 105.36 456.7 106.22 458.77C107.08 460.84 108.34 462.73 109.93 464.32C111.51 465.9 113.4 467.16 115.47 468.02C117.55 468.88 119.77 469.33 122.02 469.33L267.04 469.33C269.29 469.33 271.51 468.89 273.59 468.03C275.66 467.17 277.55 465.91 279.13 464.32C280.72 462.73 281.98 460.85 282.84 458.77C283.7 456.7 284.14 454.47 284.15 452.23L284.15 449.49C284.15 448.5 284.06 447.51 283.89 446.54C283.72 445.56 283.47 444.6 283.13 443.67C282.79 442.74 282.37 441.84 281.88 440.98C281.38 440.12 280.81 439.31 280.18 438.55C279.96 438.29 279.74 438.04 279.51 437.8C279.29 437.56 279.05 437.32 278.81 437.1C278.57 436.87 278.32 436.65 278.07 436.43C277.82 436.22 277.56 436.01 277.29 435.81L202.07 435.81C201.62 435.81 201.17 435.72 200.76 435.55C200.34 435.38 199.97 435.13 199.65 434.81C199.33 434.49 199.08 434.11 198.91 433.7C198.74 433.28 198.65 432.84 198.65 432.39L122.02 432.39C119.77 432.39 117.55 432.84 115.47 433.7C113.4 434.56 111.52 435.82 109.93 437.41C108.34 438.99 107.08 440.88 106.22 442.95C105.36 445.02 104.92 447.25 104.91 449.49L104.91 449.49Z" />
	<path id="Layer" class="shp4" d="M202.75 594.52L184.96 594.52L184.96 468.65L202.75 468.65L202.75 594.52Z" />
	<path id="Layer" class="shp4" d="M134.34 593.9C134.34 595.82 161.29 594.64 194.54 594.64C227.78 594.64 254.74 595.82 254.74 593.9C254.74 591.98 227.78 576.74 194.54 576.74C161.29 576.74 134.34 591.98 134.34 593.9Z" />
	<path id="Layer" class="shp5" d="M285.09 578.5L302.08 578.5L310.17 512.96L285.09 512.96L285.09 578.5L285.09 578.5Z" />
	<path id="Layer" class="shp6" d="M280.76 572.95L314.22 572.95L314.22 572.95C317.02 572.95 319.79 573.5 322.38 574.57C324.97 575.65 327.32 577.22 329.3 579.2C331.28 581.18 332.85 583.53 333.92 586.11C334.99 588.7 335.55 591.47 335.55 594.27L335.55 594.97L280.76 594.97L280.76 572.95Z" />
	<path id="Layer" class="shp5" d="M219.32 543.69L205.56 553.65L160.59 505.3L180.9 490.6L219.32 543.69L219.32 543.69Z" />
	<path id="Layer" class="shp6" d="M232.49 554.5L188.1 586.61L187.7 586.05C186.05 583.78 184.88 581.21 184.23 578.49C183.58 575.76 183.47 572.94 183.92 570.17C184.36 567.41 185.34 564.76 186.81 562.37C188.28 559.99 190.2 557.92 192.47 556.27L192.47 556.27L219.58 536.66L232.49 554.5Z" />
	<path id="Layer" class="shp4" d="M237.92 288.94C237.92 288.94 220.09 275.59 200.82 288.94L187.48 400.21L227.53 400.21L233.47 364.6L246.82 311.19L237.92 288.94Z" />
	<path id="Layer" class="shp6" d="M278.05 460.79L206.16 437.31L171.88 464.51L208.29 520.17L189.25 545.14L188.7 544.52C186.34 541.83 130.84 478.41 131 460.42C131.16 442.59 137.07 424.65 137.13 424.47L155.16 398.88L180.75 391.36L265.46 403.25L265.6 403.27L299.82 424.1C301.51 425.19 303.07 426.46 304.48 427.89C305.88 429.32 307.12 430.9 308.18 432.61C309.23 434.32 310.09 436.14 310.74 438.04C311.38 439.94 311.82 441.9 312.03 443.9C313.5 457.13 316.45 563.06 316.48 564.13L316.5 564.82L279.53 564.82L278.05 460.79Z" />
	<path id="Layer" class="shp0" d="M232.45 434.21C219.96 428.66 204 406.97 201.37 403.32C196.23 406.11 158.73 426.15 148.16 421C146.63 421.85 139.69 425.99 138.44 432.24L138.12 433.81L137.22 432.49C137.05 432.25 120.77 408.03 141.83 392.98C161.04 379.26 166.21 365.4 166.75 363.82L156.33 308.73L156.6 308.47C157.46 307.68 177.75 289.01 196.26 286.79L207.68 284.78L208.18 328.25L208.18 383.91C217.41 382.75 232.01 285.5 232.01 285.5L239.63 288.3C241.61 288.67 263.76 293.1 269.64 301.92L269.83 302.2L249.68 356.68L243.79 365.55L243.79 376.9L278.21 406.84L277.72 407.35C276.55 408.58 251.16 434.98 236.38 434.98C236.04 434.98 235.71 434.97 235.37 434.94C235.04 434.91 234.7 434.87 234.37 434.8C234.04 434.74 233.72 434.65 233.4 434.55C233.08 434.46 232.76 434.34 232.45 434.21Z" />
	<path id="Layer" class="shp5" d="M248.45 256.4C239.65 272.5 219.51 278.4 203.41 269.6C187.3 260.79 181.4 240.66 190.21 224.56C199.01 208.45 219.14 202.55 235.25 211.35C251.35 220.16 257.26 240.29 248.45 256.4Z" />
	<path id="Layer" class="shp5" d="M210.97 444.09C211.21 442.21 211.86 440.4 212.87 438.79C213.88 437.18 215.24 435.82 216.83 434.79C218.43 433.76 220.24 433.1 222.12 432.84C224 432.59 225.92 432.75 227.73 433.31L246.75 410.51L263.43 418.69L236.12 450.51C234.96 453.5 232.76 455.96 229.92 457.42C227.07 458.89 223.79 459.26 220.69 458.47C217.59 457.68 214.89 455.78 213.1 453.13C211.31 450.48 210.55 447.26 210.97 444.09L210.97 444.09Z" />
	<path id="Layer" class="shp0" d="M224.42 424.75L254.26 384.47L246.87 344.55L258.86 299.57L259.16 299.44C259.41 299.34 265.15 296.92 269.52 298.73C269.96 298.92 270.39 299.15 270.78 299.42C271.18 299.69 271.55 300 271.89 300.35C272.22 300.7 272.52 301.08 272.77 301.49C273.03 301.9 273.24 302.33 273.41 302.78C276.38 310.2 283.54 385.8 283.84 389.15C283.78 389.76 282.31 404.18 279.32 410.15C276.35 416.1 249.22 446.12 248.06 447.4L247.59 447.92L224.42 424.75Z" />
	<path id="Layer" class="shp6" d="M247.84 231.93C236.79 245.83 217.86 243.28 202.71 238.2C202.92 240.95 202.9 243.72 202.65 246.47C202.39 249.22 201.89 251.95 201.17 254.61C200.44 257.28 199.48 259.88 198.31 262.38C197.14 264.88 195.75 267.28 194.16 269.54C196.12 261.66 187.88 260.09 183.07 257.16C181.22 254.82 182.76 251.32 182 248.43C173.36 238.3 167.64 230.67 178.72 218.78C185.21 210.1 193 199.25 205.36 201.53C215.15 190.12 231.18 193.09 242.12 201.07C243.35 201.98 244.55 202.93 245.72 203.91C246.89 204.88 248.04 205.9 249.15 206.94C250.26 207.99 251.35 209.07 252.4 210.18C253.45 211.29 254.46 212.43 255.45 213.6C255.13 215.13 254.75 216.66 254.3 218.16C253.85 219.66 253.34 221.14 252.76 222.6C252.18 224.06 251.53 225.49 250.83 226.89C250.12 228.29 249.35 229.66 248.52 230.99" />
	<path id="Layer" class="shp0" d="M428 597L47 597C46.73 597 46.48 596.89 46.29 596.71C46.11 596.52 46 596.27 46 596C46 595.73 46.11 595.48 46.29 595.29C46.48 595.11 46.73 595 47 595L428 595C428.27 595 428.52 595.11 428.71 595.29C428.89 595.48 429 595.73 429 596C429 596.27 428.89 596.52 428.71 596.71C428.52 596.89 428.27 597 428 597Z" />
	<path id="Layer" class="shp1" d="M239.02 462.38L201.12 462.38C202.54 444.89 207.12 428.57 201.12 416.91L239.02 416.91C246.15 432.06 246.15 447.22 239.02 462.38Z" />
	<path id="Layer" class="shp5" d="M222.46 453.79C222.22 451.91 221.57 450.1 220.56 448.49C219.55 446.88 218.19 445.52 216.6 444.49C215 443.46 213.19 442.8 211.31 442.54C209.43 442.29 207.51 442.45 205.7 443.01L186.68 420.21L170 428.39L197.32 460.22C198.47 463.2 200.67 465.66 203.52 467.12C206.36 468.59 209.64 468.96 212.74 468.17C215.84 467.38 218.54 465.48 220.33 462.83C222.12 460.18 222.88 456.96 222.46 453.79Z" />
	<path id="Layer" class="shp0" d="M185.59 449.71C183.89 448.43 143.87 418.35 139.4 409.41C134.92 400.46 136.03 373.94 136.09 372.73C136.16 372.31 143.12 330.87 149.02 316.13C155.13 300.85 170.51 306.79 170.67 306.86L171.13 307.04L164.43 385.17L200.96 433.63L186.08 450.08L185.59 449.71Z" />
</svg>